%FSLAX45Y45*%
G04 Gerber Fmt 4.5, Leading zero omitted, Abs format (unit mm)*
G04 Created by KiCad (PCBNEW (5.1.10-1-10_14)) date 2021-11-02 16:23:37*
%MOMM*%
%LPD*%
G01*
G04 APERTURE LIST*
%TA.AperFunction,Profile*%
%ADD10C,0.200000*%
%TD*%
%ADD11C,0.200000*%
%ADD12C,0.300000*%
G04 APERTURE END LIST*
D10*
X32540000Y-2850000D02*
X32540000Y-9385787D01*
X32540000Y-2850000D02*
G75*
G02*
X33040000Y-2350000I500000J0D01*
G01*
X51558322Y-9367232D02*
G75*
G02*
X51704784Y-9720765I-353538J-353569D01*
G01*
X51705000Y-12700000D02*
X51704784Y-9720765D01*
X32832893Y-10092893D02*
G75*
G02*
X32540000Y-9385787I707107J707107D01*
G01*
X36354213Y-13200000D02*
G75*
G02*
X35647107Y-12907107I0J1000000D01*
G01*
X50425079Y-8234091D02*
G75*
G02*
X50425194Y-7385563I424322J424207D01*
G01*
X51558322Y-9367232D02*
X50425079Y-8234091D01*
X48488142Y-2507182D02*
X48418828Y-2437868D01*
X48700274Y-2595050D02*
G75*
G02*
X48488142Y-2507182I0J300000D01*
G01*
X49513746Y-2595050D02*
X48700274Y-2595050D01*
X49725878Y-2507182D02*
G75*
G02*
X49513746Y-2595050I-212132J212132D01*
G01*
X49795192Y-2437868D02*
X49725878Y-2507182D01*
X49795192Y-2437868D02*
G75*
G02*
X50007324Y-2350000I212132J-212132D01*
G01*
X51205000Y-2350000D02*
X50007324Y-2350000D01*
X51205000Y-2350000D02*
G75*
G02*
X51705000Y-2850000I0J-500000D01*
G01*
X48206696Y-2350000D02*
G75*
G02*
X48418828Y-2437868I0J-300000D01*
G01*
X48206696Y-2350000D02*
X33040000Y-2350000D01*
X32832893Y-10092893D02*
X35647107Y-12907107D01*
X51705000Y-12700000D02*
G75*
G02*
X51205000Y-13200000I-500000J0D01*
G01*
X36354214Y-13200000D02*
X51205000Y-13200000D01*
X51705000Y-5898957D02*
X51705000Y-2850000D01*
X51705000Y-5898957D02*
G75*
G02*
X51558506Y-6252558I-500000J0D01*
G01*
X50425194Y-7385563D02*
X51558506Y-6252558D01*
D11*
X34782500Y-2688000D02*
X34932500Y-2838000D01*
X34932500Y-2688000D02*
X34782500Y-2838000D01*
X35267500Y-2688000D02*
X35417500Y-2838000D01*
X35417500Y-2688000D02*
X35267500Y-2838000D01*
X37577090Y-4000000D02*
G75*
G03*
X37577090Y-4000000I-85090J0D01*
G01*
X37577090Y-5905000D02*
G75*
G03*
X37577090Y-5905000I-85090J0D01*
G01*
X37577090Y-7810000D02*
G75*
G03*
X37577090Y-7810000I-85090J0D01*
G01*
X37577090Y-11620000D02*
G75*
G03*
X37577090Y-11620000I-85090J0D01*
G01*
X38529590Y-9715000D02*
G75*
G03*
X38529590Y-9715000I-85090J0D01*
G01*
X38593090Y-4000000D02*
G75*
G03*
X38593090Y-4000000I-85090J0D01*
G01*
X38593090Y-5905000D02*
G75*
G03*
X38593090Y-5905000I-85090J0D01*
G01*
X38593090Y-7810000D02*
G75*
G03*
X38593090Y-7810000I-85090J0D01*
G01*
X38593090Y-11620000D02*
G75*
G03*
X38593090Y-11620000I-85090J0D01*
G01*
X39482090Y-4000000D02*
G75*
G03*
X39482090Y-4000000I-85090J0D01*
G01*
X39482090Y-5905000D02*
G75*
G03*
X39482090Y-5905000I-85090J0D01*
G01*
X39482090Y-7810000D02*
G75*
G03*
X39482090Y-7810000I-85090J0D01*
G01*
X39482090Y-11620000D02*
G75*
G03*
X39482090Y-11620000I-85090J0D01*
G01*
X39545590Y-9715000D02*
G75*
G03*
X39545590Y-9715000I-85090J0D01*
G01*
X40498090Y-4000000D02*
G75*
G03*
X40498090Y-4000000I-85090J0D01*
G01*
X40498090Y-5905000D02*
G75*
G03*
X40498090Y-5905000I-85090J0D01*
G01*
X40498090Y-7810000D02*
G75*
G03*
X40498090Y-7810000I-85090J0D01*
G01*
X40498090Y-11620000D02*
G75*
G03*
X40498090Y-11620000I-85090J0D01*
G01*
X41387090Y-4000000D02*
G75*
G03*
X41387090Y-4000000I-85090J0D01*
G01*
X41387090Y-5905000D02*
G75*
G03*
X41387090Y-5905000I-85090J0D01*
G01*
X41387090Y-7810000D02*
G75*
G03*
X41387090Y-7810000I-85090J0D01*
G01*
X41387090Y-9715000D02*
G75*
G03*
X41387090Y-9715000I-85090J0D01*
G01*
X41387090Y-11620000D02*
G75*
G03*
X41387090Y-11620000I-85090J0D01*
G01*
X42403090Y-4000000D02*
G75*
G03*
X42403090Y-4000000I-85090J0D01*
G01*
X42403090Y-5905000D02*
G75*
G03*
X42403090Y-5905000I-85090J0D01*
G01*
X42403090Y-7810000D02*
G75*
G03*
X42403090Y-7810000I-85090J0D01*
G01*
X42403090Y-9715000D02*
G75*
G03*
X42403090Y-9715000I-85090J0D01*
G01*
X42403090Y-11620000D02*
G75*
G03*
X42403090Y-11620000I-85090J0D01*
G01*
X43292090Y-4000000D02*
G75*
G03*
X43292090Y-4000000I-85090J0D01*
G01*
X43292090Y-5905000D02*
G75*
G03*
X43292090Y-5905000I-85090J0D01*
G01*
X43292090Y-7810000D02*
G75*
G03*
X43292090Y-7810000I-85090J0D01*
G01*
X43292090Y-9715000D02*
G75*
G03*
X43292090Y-9715000I-85090J0D01*
G01*
X44244590Y-11620000D02*
G75*
G03*
X44244590Y-11620000I-85090J0D01*
G01*
X44308090Y-4000000D02*
G75*
G03*
X44308090Y-4000000I-85090J0D01*
G01*
X44308090Y-5905000D02*
G75*
G03*
X44308090Y-5905000I-85090J0D01*
G01*
X44308090Y-7810000D02*
G75*
G03*
X44308090Y-7810000I-85090J0D01*
G01*
X44308090Y-9715000D02*
G75*
G03*
X44308090Y-9715000I-85090J0D01*
G01*
X45197090Y-4000000D02*
G75*
G03*
X45197090Y-4000000I-85090J0D01*
G01*
X45197090Y-5905000D02*
G75*
G03*
X45197090Y-5905000I-85090J0D01*
G01*
X45197090Y-7810000D02*
G75*
G03*
X45197090Y-7810000I-85090J0D01*
G01*
X45197090Y-9715000D02*
G75*
G03*
X45197090Y-9715000I-85090J0D01*
G01*
X45260590Y-11620000D02*
G75*
G03*
X45260590Y-11620000I-85090J0D01*
G01*
X46213090Y-4000000D02*
G75*
G03*
X46213090Y-4000000I-85090J0D01*
G01*
X46213090Y-5905000D02*
G75*
G03*
X46213090Y-5905000I-85090J0D01*
G01*
X46213090Y-7810000D02*
G75*
G03*
X46213090Y-7810000I-85090J0D01*
G01*
X46213090Y-9715000D02*
G75*
G03*
X46213090Y-9715000I-85090J0D01*
G01*
X48830880Y-8169210D02*
G75*
G03*
X48830880Y-8169210I-85090J0D01*
G01*
X49549300Y-7450790D02*
G75*
G03*
X49549300Y-7450790I-85090J0D01*
G01*
X34827500Y-2370000D02*
X34827500Y-2550000D01*
X34737500Y-2460000D02*
X34917500Y-2460000D01*
X35372500Y-2370000D02*
X35372500Y-2550000D01*
X35282500Y-2460000D02*
X35462500Y-2460000D01*
X37866464Y-9124264D02*
X37866464Y-8908736D01*
X37650936Y-8908736D01*
X37650936Y-9124264D01*
X37866464Y-9124264D01*
X40254064Y-9124264D02*
X40254064Y-8908736D01*
X40038536Y-8908736D01*
X40038536Y-9124264D01*
X40254064Y-9124264D01*
X43581464Y-11029264D02*
X43581464Y-10813736D01*
X43365936Y-10813736D01*
X43365936Y-11029264D01*
X43581464Y-11029264D01*
X45969064Y-11029264D02*
X45969064Y-10813736D01*
X45753536Y-10813736D01*
X45753536Y-11029264D01*
X45969064Y-11029264D01*
X47567740Y-3188300D02*
X47722740Y-3033300D01*
X47567740Y-2878300D01*
X47412740Y-3033300D01*
X47567740Y-3188300D01*
X47567740Y-6045700D02*
X47722740Y-5890700D01*
X47567740Y-5735700D01*
X47412740Y-5890700D01*
X47567740Y-6045700D01*
X50648260Y-3188300D02*
X50803260Y-3033300D01*
X50648260Y-2878300D01*
X50493260Y-3033300D01*
X50648260Y-3188300D01*
X50648260Y-6045700D02*
X50803260Y-5890700D01*
X50648260Y-5735700D01*
X50493260Y-5890700D01*
X50648260Y-6045700D01*
X32880000Y-2690000D02*
X33200000Y-3010000D01*
X33200000Y-2690000D02*
X32880000Y-3010000D01*
X33200000Y-2850000D02*
G75*
G03*
X33200000Y-2850000I-160000J0D01*
G01*
X32880000Y-9374000D02*
X33200000Y-9694000D01*
X33200000Y-9374000D02*
X32880000Y-9694000D01*
X33200000Y-9534000D02*
G75*
G03*
X33200000Y-9534000I-160000J0D01*
G01*
X36194214Y-12541000D02*
X36514214Y-12861000D01*
X36514214Y-12541000D02*
X36194214Y-12861000D01*
X36514214Y-12701000D02*
G75*
G03*
X36514214Y-12701000I-160000J0D01*
G01*
X47040000Y-7650000D02*
X47360000Y-7970000D01*
X47360000Y-7650000D02*
X47040000Y-7970000D01*
X47360000Y-7810000D02*
G75*
G03*
X47360000Y-7810000I-160000J0D01*
G01*
X51045000Y-2690000D02*
X51365000Y-3010000D01*
X51365000Y-2690000D02*
X51045000Y-3010000D01*
X51365000Y-2850000D02*
G75*
G03*
X51365000Y-2850000I-160000J0D01*
G01*
X51052000Y-12541000D02*
X51372000Y-12861000D01*
X51372000Y-12541000D02*
X51052000Y-12861000D01*
X51372000Y-12701000D02*
G75*
G03*
X51372000Y-12701000I-160000J0D01*
G01*
X37559310Y-10341110D02*
X37958090Y-10739890D01*
X37958090Y-10341110D02*
X37559310Y-10739890D01*
X37758700Y-10341110D02*
X37758700Y-10739890D01*
X37559310Y-10540500D02*
X37958090Y-10540500D01*
X37800610Y-3800610D02*
X38199390Y-4199390D01*
X38199390Y-3800610D02*
X37800610Y-4199390D01*
X38000000Y-3800610D02*
X38000000Y-4199390D01*
X37800610Y-4000000D02*
X38199390Y-4000000D01*
X37800610Y-5705610D02*
X38199390Y-6104390D01*
X38199390Y-5705610D02*
X37800610Y-6104390D01*
X38000000Y-5705610D02*
X38000000Y-6104390D01*
X37800610Y-5905000D02*
X38199390Y-5905000D01*
X37800610Y-7610610D02*
X38199390Y-8009390D01*
X38199390Y-7610610D02*
X37800610Y-8009390D01*
X38000000Y-7610610D02*
X38000000Y-8009390D01*
X37800610Y-7810000D02*
X38199390Y-7810000D01*
X37800610Y-11420610D02*
X38199390Y-11819390D01*
X38199390Y-11420610D02*
X37800610Y-11819390D01*
X38000000Y-11420610D02*
X38000000Y-11819390D01*
X37800610Y-11620000D02*
X38199390Y-11620000D01*
X38753110Y-9515610D02*
X39151890Y-9914390D01*
X39151890Y-9515610D02*
X38753110Y-9914390D01*
X38952500Y-9515610D02*
X38952500Y-9914390D01*
X38753110Y-9715000D02*
X39151890Y-9715000D01*
X39705610Y-3800610D02*
X40104390Y-4199390D01*
X40104390Y-3800610D02*
X39705610Y-4199390D01*
X39905000Y-3800610D02*
X39905000Y-4199390D01*
X39705610Y-4000000D02*
X40104390Y-4000000D01*
X39705610Y-5705610D02*
X40104390Y-6104390D01*
X40104390Y-5705610D02*
X39705610Y-6104390D01*
X39905000Y-5705610D02*
X39905000Y-6104390D01*
X39705610Y-5905000D02*
X40104390Y-5905000D01*
X39705610Y-7610610D02*
X40104390Y-8009390D01*
X40104390Y-7610610D02*
X39705610Y-8009390D01*
X39905000Y-7610610D02*
X39905000Y-8009390D01*
X39705610Y-7810000D02*
X40104390Y-7810000D01*
X39705610Y-11420610D02*
X40104390Y-11819390D01*
X40104390Y-11420610D02*
X39705610Y-11819390D01*
X39905000Y-11420610D02*
X39905000Y-11819390D01*
X39705610Y-11620000D02*
X40104390Y-11620000D01*
X39946910Y-10341110D02*
X40345690Y-10739890D01*
X40345690Y-10341110D02*
X39946910Y-10739890D01*
X40146300Y-10341110D02*
X40146300Y-10739890D01*
X39946910Y-10540500D02*
X40345690Y-10540500D01*
X41610610Y-3800610D02*
X42009390Y-4199390D01*
X42009390Y-3800610D02*
X41610610Y-4199390D01*
X41810000Y-3800610D02*
X41810000Y-4199390D01*
X41610610Y-4000000D02*
X42009390Y-4000000D01*
X41610610Y-5705610D02*
X42009390Y-6104390D01*
X42009390Y-5705610D02*
X41610610Y-6104390D01*
X41810000Y-5705610D02*
X41810000Y-6104390D01*
X41610610Y-5905000D02*
X42009390Y-5905000D01*
X41610610Y-7610610D02*
X42009390Y-8009390D01*
X42009390Y-7610610D02*
X41610610Y-8009390D01*
X41810000Y-7610610D02*
X41810000Y-8009390D01*
X41610610Y-7810000D02*
X42009390Y-7810000D01*
X41610610Y-9515610D02*
X42009390Y-9914390D01*
X42009390Y-9515610D02*
X41610610Y-9914390D01*
X41810000Y-9515610D02*
X41810000Y-9914390D01*
X41610610Y-9715000D02*
X42009390Y-9715000D01*
X41610610Y-11420610D02*
X42009390Y-11819390D01*
X42009390Y-11420610D02*
X41610610Y-11819390D01*
X41810000Y-11420610D02*
X41810000Y-11819390D01*
X41610610Y-11620000D02*
X42009390Y-11620000D01*
X43274310Y-12246110D02*
X43673090Y-12644890D01*
X43673090Y-12246110D02*
X43274310Y-12644890D01*
X43473700Y-12246110D02*
X43473700Y-12644890D01*
X43274310Y-12445500D02*
X43673090Y-12445500D01*
X43515610Y-3800610D02*
X43914390Y-4199390D01*
X43914390Y-3800610D02*
X43515610Y-4199390D01*
X43715000Y-3800610D02*
X43715000Y-4199390D01*
X43515610Y-4000000D02*
X43914390Y-4000000D01*
X43515610Y-5705610D02*
X43914390Y-6104390D01*
X43914390Y-5705610D02*
X43515610Y-6104390D01*
X43715000Y-5705610D02*
X43715000Y-6104390D01*
X43515610Y-5905000D02*
X43914390Y-5905000D01*
X43515610Y-7610610D02*
X43914390Y-8009390D01*
X43914390Y-7610610D02*
X43515610Y-8009390D01*
X43715000Y-7610610D02*
X43715000Y-8009390D01*
X43515610Y-7810000D02*
X43914390Y-7810000D01*
X43515610Y-9515610D02*
X43914390Y-9914390D01*
X43914390Y-9515610D02*
X43515610Y-9914390D01*
X43715000Y-9515610D02*
X43715000Y-9914390D01*
X43515610Y-9715000D02*
X43914390Y-9715000D01*
X44468110Y-11420610D02*
X44866890Y-11819390D01*
X44866890Y-11420610D02*
X44468110Y-11819390D01*
X44667500Y-11420610D02*
X44667500Y-11819390D01*
X44468110Y-11620000D02*
X44866890Y-11620000D01*
X45420610Y-3800610D02*
X45819390Y-4199390D01*
X45819390Y-3800610D02*
X45420610Y-4199390D01*
X45620000Y-3800610D02*
X45620000Y-4199390D01*
X45420610Y-4000000D02*
X45819390Y-4000000D01*
X45420610Y-5705610D02*
X45819390Y-6104390D01*
X45819390Y-5705610D02*
X45420610Y-6104390D01*
X45620000Y-5705610D02*
X45620000Y-6104390D01*
X45420610Y-5905000D02*
X45819390Y-5905000D01*
X45420610Y-7610610D02*
X45819390Y-8009390D01*
X45819390Y-7610610D02*
X45420610Y-8009390D01*
X45620000Y-7610610D02*
X45620000Y-8009390D01*
X45420610Y-7810000D02*
X45819390Y-7810000D01*
X45420610Y-9515610D02*
X45819390Y-9914390D01*
X45819390Y-9515610D02*
X45420610Y-9914390D01*
X45620000Y-9515610D02*
X45620000Y-9914390D01*
X45420610Y-9715000D02*
X45819390Y-9715000D01*
X45661910Y-12246110D02*
X46060690Y-12644890D01*
X46060690Y-12246110D02*
X45661910Y-12644890D01*
X45861300Y-12246110D02*
X45861300Y-12644890D01*
X45661910Y-12445500D02*
X46060690Y-12445500D01*
X48905610Y-7610610D02*
X49304390Y-8009390D01*
X49304390Y-7610610D02*
X48905610Y-8009390D01*
X49105000Y-7610610D02*
X49105000Y-8009390D01*
X48905610Y-7810000D02*
X49304390Y-7810000D01*
D12*
X32816428Y-13675714D02*
X32816428Y-13375714D01*
X32887857Y-13375714D01*
X32930714Y-13390000D01*
X32959285Y-13418572D01*
X32973571Y-13447143D01*
X32987857Y-13504286D01*
X32987857Y-13547143D01*
X32973571Y-13604286D01*
X32959285Y-13632857D01*
X32930714Y-13661429D01*
X32887857Y-13675714D01*
X32816428Y-13675714D01*
X33116428Y-13675714D02*
X33116428Y-13475714D01*
X33116428Y-13532857D02*
X33130714Y-13504286D01*
X33145000Y-13490000D01*
X33173571Y-13475714D01*
X33202143Y-13475714D01*
X33302143Y-13675714D02*
X33302143Y-13475714D01*
X33302143Y-13375714D02*
X33287857Y-13390000D01*
X33302143Y-13404286D01*
X33316428Y-13390000D01*
X33302143Y-13375714D01*
X33302143Y-13404286D01*
X33487857Y-13675714D02*
X33459285Y-13661429D01*
X33445000Y-13632857D01*
X33445000Y-13375714D01*
X33645000Y-13675714D02*
X33616428Y-13661429D01*
X33602143Y-13632857D01*
X33602143Y-13375714D01*
X33987857Y-13675714D02*
X33987857Y-13375714D01*
X34087857Y-13590000D01*
X34187857Y-13375714D01*
X34187857Y-13675714D01*
X34459286Y-13675714D02*
X34459286Y-13518572D01*
X34445000Y-13490000D01*
X34416428Y-13475714D01*
X34359286Y-13475714D01*
X34330714Y-13490000D01*
X34459286Y-13661429D02*
X34430714Y-13675714D01*
X34359286Y-13675714D01*
X34330714Y-13661429D01*
X34316428Y-13632857D01*
X34316428Y-13604286D01*
X34330714Y-13575714D01*
X34359286Y-13561429D01*
X34430714Y-13561429D01*
X34459286Y-13547143D01*
X34602143Y-13475714D02*
X34602143Y-13775714D01*
X34602143Y-13490000D02*
X34630714Y-13475714D01*
X34687857Y-13475714D01*
X34716428Y-13490000D01*
X34730714Y-13504286D01*
X34745000Y-13532857D01*
X34745000Y-13618572D01*
X34730714Y-13647143D01*
X34716428Y-13661429D01*
X34687857Y-13675714D01*
X34630714Y-13675714D01*
X34602143Y-13661429D01*
X34873571Y-13647143D02*
X34887857Y-13661429D01*
X34873571Y-13675714D01*
X34859286Y-13661429D01*
X34873571Y-13647143D01*
X34873571Y-13675714D01*
X34873571Y-13490000D02*
X34887857Y-13504286D01*
X34873571Y-13518572D01*
X34859286Y-13504286D01*
X34873571Y-13490000D01*
X34873571Y-13518572D01*
X32380000Y-14095000D02*
X32530000Y-14245000D01*
X32530000Y-14095000D02*
X32380000Y-14245000D01*
X32973571Y-14305714D02*
X32802143Y-14305714D01*
X32887857Y-14305714D02*
X32887857Y-14005714D01*
X32859285Y-14048572D01*
X32830714Y-14077143D01*
X32802143Y-14091429D01*
X33102143Y-14277143D02*
X33116428Y-14291429D01*
X33102143Y-14305714D01*
X33087857Y-14291429D01*
X33102143Y-14277143D01*
X33102143Y-14305714D01*
X33387857Y-14005714D02*
X33245000Y-14005714D01*
X33230714Y-14148572D01*
X33245000Y-14134286D01*
X33273571Y-14120000D01*
X33345000Y-14120000D01*
X33373571Y-14134286D01*
X33387857Y-14148572D01*
X33402143Y-14177143D01*
X33402143Y-14248572D01*
X33387857Y-14277143D01*
X33373571Y-14291429D01*
X33345000Y-14305714D01*
X33273571Y-14305714D01*
X33245000Y-14291429D01*
X33230714Y-14277143D01*
X33587857Y-14005714D02*
X33616428Y-14005714D01*
X33645000Y-14020000D01*
X33659286Y-14034286D01*
X33673571Y-14062857D01*
X33687857Y-14120000D01*
X33687857Y-14191429D01*
X33673571Y-14248572D01*
X33659286Y-14277143D01*
X33645000Y-14291429D01*
X33616428Y-14305714D01*
X33587857Y-14305714D01*
X33559286Y-14291429D01*
X33545000Y-14277143D01*
X33530714Y-14248572D01*
X33516428Y-14191429D01*
X33516428Y-14120000D01*
X33530714Y-14062857D01*
X33545000Y-14034286D01*
X33559286Y-14020000D01*
X33587857Y-14005714D01*
X33873571Y-14005714D02*
X33902143Y-14005714D01*
X33930714Y-14020000D01*
X33945000Y-14034286D01*
X33959286Y-14062857D01*
X33973571Y-14120000D01*
X33973571Y-14191429D01*
X33959286Y-14248572D01*
X33945000Y-14277143D01*
X33930714Y-14291429D01*
X33902143Y-14305714D01*
X33873571Y-14305714D01*
X33845000Y-14291429D01*
X33830714Y-14277143D01*
X33816428Y-14248572D01*
X33802143Y-14191429D01*
X33802143Y-14120000D01*
X33816428Y-14062857D01*
X33830714Y-14034286D01*
X33845000Y-14020000D01*
X33873571Y-14005714D01*
X34102143Y-14305714D02*
X34102143Y-14105714D01*
X34102143Y-14134286D02*
X34116428Y-14120000D01*
X34145000Y-14105714D01*
X34187857Y-14105714D01*
X34216428Y-14120000D01*
X34230714Y-14148572D01*
X34230714Y-14305714D01*
X34230714Y-14148572D02*
X34245000Y-14120000D01*
X34273571Y-14105714D01*
X34316428Y-14105714D01*
X34345000Y-14120000D01*
X34359286Y-14148572D01*
X34359286Y-14305714D01*
X34502143Y-14305714D02*
X34502143Y-14105714D01*
X34502143Y-14134286D02*
X34516428Y-14120000D01*
X34545000Y-14105714D01*
X34587857Y-14105714D01*
X34616428Y-14120000D01*
X34630714Y-14148572D01*
X34630714Y-14305714D01*
X34630714Y-14148572D02*
X34645000Y-14120000D01*
X34673571Y-14105714D01*
X34716428Y-14105714D01*
X34745000Y-14120000D01*
X34759286Y-14148572D01*
X34759286Y-14305714D01*
X35345000Y-13991429D02*
X35087857Y-14377143D01*
X35730714Y-14005714D02*
X35759286Y-14005714D01*
X35787857Y-14020000D01*
X35802143Y-14034286D01*
X35816428Y-14062857D01*
X35830714Y-14120000D01*
X35830714Y-14191429D01*
X35816428Y-14248572D01*
X35802143Y-14277143D01*
X35787857Y-14291429D01*
X35759286Y-14305714D01*
X35730714Y-14305714D01*
X35702143Y-14291429D01*
X35687857Y-14277143D01*
X35673571Y-14248572D01*
X35659286Y-14191429D01*
X35659286Y-14120000D01*
X35673571Y-14062857D01*
X35687857Y-14034286D01*
X35702143Y-14020000D01*
X35730714Y-14005714D01*
X35959286Y-14277143D02*
X35973571Y-14291429D01*
X35959286Y-14305714D01*
X35945000Y-14291429D01*
X35959286Y-14277143D01*
X35959286Y-14305714D01*
X36159286Y-14005714D02*
X36187857Y-14005714D01*
X36216428Y-14020000D01*
X36230714Y-14034286D01*
X36245000Y-14062857D01*
X36259286Y-14120000D01*
X36259286Y-14191429D01*
X36245000Y-14248572D01*
X36230714Y-14277143D01*
X36216428Y-14291429D01*
X36187857Y-14305714D01*
X36159286Y-14305714D01*
X36130714Y-14291429D01*
X36116428Y-14277143D01*
X36102143Y-14248572D01*
X36087857Y-14191429D01*
X36087857Y-14120000D01*
X36102143Y-14062857D01*
X36116428Y-14034286D01*
X36130714Y-14020000D01*
X36159286Y-14005714D01*
X36530714Y-14005714D02*
X36387857Y-14005714D01*
X36373571Y-14148572D01*
X36387857Y-14134286D01*
X36416428Y-14120000D01*
X36487857Y-14120000D01*
X36516428Y-14134286D01*
X36530714Y-14148572D01*
X36545000Y-14177143D01*
X36545000Y-14248572D01*
X36530714Y-14277143D01*
X36516428Y-14291429D01*
X36487857Y-14305714D01*
X36416428Y-14305714D01*
X36387857Y-14291429D01*
X36373571Y-14277143D01*
X36687857Y-14305714D02*
X36745000Y-14305714D01*
X36773571Y-14291429D01*
X36787857Y-14277143D01*
X36816428Y-14234286D01*
X36830714Y-14177143D01*
X36830714Y-14062857D01*
X36816428Y-14034286D01*
X36802143Y-14020000D01*
X36773571Y-14005714D01*
X36716428Y-14005714D01*
X36687857Y-14020000D01*
X36673571Y-14034286D01*
X36659286Y-14062857D01*
X36659286Y-14134286D01*
X36673571Y-14162857D01*
X36687857Y-14177143D01*
X36716428Y-14191429D01*
X36773571Y-14191429D01*
X36802143Y-14177143D01*
X36816428Y-14162857D01*
X36830714Y-14134286D01*
X37116428Y-14305714D02*
X36945000Y-14305714D01*
X37030714Y-14305714D02*
X37030714Y-14005714D01*
X37002143Y-14048572D01*
X36973571Y-14077143D01*
X36945000Y-14091429D01*
X37230714Y-14005714D02*
X37230714Y-14062857D01*
X37345000Y-14005714D02*
X37345000Y-14062857D01*
X37787857Y-14420000D02*
X37773571Y-14405714D01*
X37745000Y-14362857D01*
X37730714Y-14334286D01*
X37716428Y-14291429D01*
X37702143Y-14220000D01*
X37702143Y-14162857D01*
X37716428Y-14091429D01*
X37730714Y-14048572D01*
X37745000Y-14020000D01*
X37773571Y-13977143D01*
X37787857Y-13962857D01*
X37887857Y-14034286D02*
X37902143Y-14020000D01*
X37930714Y-14005714D01*
X38002143Y-14005714D01*
X38030714Y-14020000D01*
X38045000Y-14034286D01*
X38059286Y-14062857D01*
X38059286Y-14091429D01*
X38045000Y-14134286D01*
X37873571Y-14305714D01*
X38059286Y-14305714D01*
X38416428Y-14305714D02*
X38416428Y-14005714D01*
X38545000Y-14305714D02*
X38545000Y-14148572D01*
X38530714Y-14120000D01*
X38502143Y-14105714D01*
X38459286Y-14105714D01*
X38430714Y-14120000D01*
X38416428Y-14134286D01*
X38730714Y-14305714D02*
X38702143Y-14291429D01*
X38687857Y-14277143D01*
X38673571Y-14248572D01*
X38673571Y-14162857D01*
X38687857Y-14134286D01*
X38702143Y-14120000D01*
X38730714Y-14105714D01*
X38773571Y-14105714D01*
X38802143Y-14120000D01*
X38816428Y-14134286D01*
X38830714Y-14162857D01*
X38830714Y-14248572D01*
X38816428Y-14277143D01*
X38802143Y-14291429D01*
X38773571Y-14305714D01*
X38730714Y-14305714D01*
X39002143Y-14305714D02*
X38973571Y-14291429D01*
X38959286Y-14262857D01*
X38959286Y-14005714D01*
X39230714Y-14291429D02*
X39202143Y-14305714D01*
X39145000Y-14305714D01*
X39116428Y-14291429D01*
X39102143Y-14262857D01*
X39102143Y-14148572D01*
X39116428Y-14120000D01*
X39145000Y-14105714D01*
X39202143Y-14105714D01*
X39230714Y-14120000D01*
X39245000Y-14148572D01*
X39245000Y-14177143D01*
X39102143Y-14205714D01*
X39359286Y-14291429D02*
X39387857Y-14305714D01*
X39445000Y-14305714D01*
X39473571Y-14291429D01*
X39487857Y-14262857D01*
X39487857Y-14248572D01*
X39473571Y-14220000D01*
X39445000Y-14205714D01*
X39402143Y-14205714D01*
X39373571Y-14191429D01*
X39359286Y-14162857D01*
X39359286Y-14148572D01*
X39373571Y-14120000D01*
X39402143Y-14105714D01*
X39445000Y-14105714D01*
X39473571Y-14120000D01*
X39587857Y-14420000D02*
X39602143Y-14405714D01*
X39630714Y-14362857D01*
X39645000Y-14334286D01*
X39659286Y-14291429D01*
X39673571Y-14220000D01*
X39673571Y-14162857D01*
X39659286Y-14091429D01*
X39645000Y-14048572D01*
X39630714Y-14020000D01*
X39602143Y-13977143D01*
X39587857Y-13962857D01*
X40130714Y-14420000D02*
X40116428Y-14405714D01*
X40087857Y-14362857D01*
X40073571Y-14334286D01*
X40059286Y-14291429D01*
X40045000Y-14220000D01*
X40045000Y-14162857D01*
X40059286Y-14091429D01*
X40073571Y-14048572D01*
X40087857Y-14020000D01*
X40116428Y-13977143D01*
X40130714Y-13962857D01*
X40245000Y-14105714D02*
X40245000Y-14305714D01*
X40245000Y-14134286D02*
X40259286Y-14120000D01*
X40287857Y-14105714D01*
X40330714Y-14105714D01*
X40359286Y-14120000D01*
X40373571Y-14148572D01*
X40373571Y-14305714D01*
X40559286Y-14305714D02*
X40530714Y-14291429D01*
X40516428Y-14277143D01*
X40502143Y-14248572D01*
X40502143Y-14162857D01*
X40516428Y-14134286D01*
X40530714Y-14120000D01*
X40559286Y-14105714D01*
X40602143Y-14105714D01*
X40630714Y-14120000D01*
X40645000Y-14134286D01*
X40659286Y-14162857D01*
X40659286Y-14248572D01*
X40645000Y-14277143D01*
X40630714Y-14291429D01*
X40602143Y-14305714D01*
X40559286Y-14305714D01*
X40745000Y-14105714D02*
X40859286Y-14105714D01*
X40787857Y-14005714D02*
X40787857Y-14262857D01*
X40802143Y-14291429D01*
X40830714Y-14305714D01*
X40859286Y-14305714D01*
X41187857Y-14105714D02*
X41187857Y-14405714D01*
X41187857Y-14120000D02*
X41216428Y-14105714D01*
X41273571Y-14105714D01*
X41302143Y-14120000D01*
X41316428Y-14134286D01*
X41330714Y-14162857D01*
X41330714Y-14248572D01*
X41316428Y-14277143D01*
X41302143Y-14291429D01*
X41273571Y-14305714D01*
X41216428Y-14305714D01*
X41187857Y-14291429D01*
X41502143Y-14305714D02*
X41473571Y-14291429D01*
X41459286Y-14262857D01*
X41459286Y-14005714D01*
X41745000Y-14305714D02*
X41745000Y-14148572D01*
X41730714Y-14120000D01*
X41702143Y-14105714D01*
X41645000Y-14105714D01*
X41616428Y-14120000D01*
X41745000Y-14291429D02*
X41716428Y-14305714D01*
X41645000Y-14305714D01*
X41616428Y-14291429D01*
X41602143Y-14262857D01*
X41602143Y-14234286D01*
X41616428Y-14205714D01*
X41645000Y-14191429D01*
X41716428Y-14191429D01*
X41745000Y-14177143D01*
X41845000Y-14105714D02*
X41959286Y-14105714D01*
X41887857Y-14005714D02*
X41887857Y-14262857D01*
X41902143Y-14291429D01*
X41930714Y-14305714D01*
X41959286Y-14305714D01*
X42173571Y-14291429D02*
X42145000Y-14305714D01*
X42087857Y-14305714D01*
X42059286Y-14291429D01*
X42045000Y-14262857D01*
X42045000Y-14148572D01*
X42059286Y-14120000D01*
X42087857Y-14105714D01*
X42145000Y-14105714D01*
X42173571Y-14120000D01*
X42187857Y-14148572D01*
X42187857Y-14177143D01*
X42045000Y-14205714D01*
X42445000Y-14305714D02*
X42445000Y-14005714D01*
X42445000Y-14291429D02*
X42416428Y-14305714D01*
X42359286Y-14305714D01*
X42330714Y-14291429D01*
X42316428Y-14277143D01*
X42302143Y-14248572D01*
X42302143Y-14162857D01*
X42316428Y-14134286D01*
X42330714Y-14120000D01*
X42359286Y-14105714D01*
X42416428Y-14105714D01*
X42445000Y-14120000D01*
X42559286Y-14420000D02*
X42573571Y-14405714D01*
X42602143Y-14362857D01*
X42616428Y-14334286D01*
X42630714Y-14291429D01*
X42645000Y-14220000D01*
X42645000Y-14162857D01*
X42630714Y-14091429D01*
X42616428Y-14048572D01*
X42602143Y-14020000D01*
X42573571Y-13977143D01*
X42559286Y-13962857D01*
X32530000Y-14566000D02*
G75*
G03*
X32530000Y-14566000I-85090J0D01*
G01*
X32973571Y-14701714D02*
X32802143Y-14701714D01*
X32887857Y-14701714D02*
X32887857Y-14401714D01*
X32859285Y-14444572D01*
X32830714Y-14473143D01*
X32802143Y-14487429D01*
X33102143Y-14673143D02*
X33116428Y-14687429D01*
X33102143Y-14701714D01*
X33087857Y-14687429D01*
X33102143Y-14673143D01*
X33102143Y-14701714D01*
X33216428Y-14401714D02*
X33416428Y-14401714D01*
X33287857Y-14701714D01*
X33587857Y-14401714D02*
X33616428Y-14401714D01*
X33645000Y-14416000D01*
X33659286Y-14430286D01*
X33673571Y-14458857D01*
X33687857Y-14516000D01*
X33687857Y-14587429D01*
X33673571Y-14644572D01*
X33659286Y-14673143D01*
X33645000Y-14687429D01*
X33616428Y-14701714D01*
X33587857Y-14701714D01*
X33559286Y-14687429D01*
X33545000Y-14673143D01*
X33530714Y-14644572D01*
X33516428Y-14587429D01*
X33516428Y-14516000D01*
X33530714Y-14458857D01*
X33545000Y-14430286D01*
X33559286Y-14416000D01*
X33587857Y-14401714D01*
X33802143Y-14430286D02*
X33816428Y-14416000D01*
X33845000Y-14401714D01*
X33916428Y-14401714D01*
X33945000Y-14416000D01*
X33959286Y-14430286D01*
X33973571Y-14458857D01*
X33973571Y-14487429D01*
X33959286Y-14530286D01*
X33787857Y-14701714D01*
X33973571Y-14701714D01*
X34102143Y-14701714D02*
X34102143Y-14501714D01*
X34102143Y-14530286D02*
X34116428Y-14516000D01*
X34145000Y-14501714D01*
X34187857Y-14501714D01*
X34216428Y-14516000D01*
X34230714Y-14544572D01*
X34230714Y-14701714D01*
X34230714Y-14544572D02*
X34245000Y-14516000D01*
X34273571Y-14501714D01*
X34316428Y-14501714D01*
X34345000Y-14516000D01*
X34359286Y-14544572D01*
X34359286Y-14701714D01*
X34502143Y-14701714D02*
X34502143Y-14501714D01*
X34502143Y-14530286D02*
X34516428Y-14516000D01*
X34545000Y-14501714D01*
X34587857Y-14501714D01*
X34616428Y-14516000D01*
X34630714Y-14544572D01*
X34630714Y-14701714D01*
X34630714Y-14544572D02*
X34645000Y-14516000D01*
X34673571Y-14501714D01*
X34716428Y-14501714D01*
X34745000Y-14516000D01*
X34759286Y-14544572D01*
X34759286Y-14701714D01*
X35345000Y-14387429D02*
X35087857Y-14773143D01*
X35730714Y-14401714D02*
X35759286Y-14401714D01*
X35787857Y-14416000D01*
X35802143Y-14430286D01*
X35816428Y-14458857D01*
X35830714Y-14516000D01*
X35830714Y-14587429D01*
X35816428Y-14644572D01*
X35802143Y-14673143D01*
X35787857Y-14687429D01*
X35759286Y-14701714D01*
X35730714Y-14701714D01*
X35702143Y-14687429D01*
X35687857Y-14673143D01*
X35673571Y-14644572D01*
X35659286Y-14587429D01*
X35659286Y-14516000D01*
X35673571Y-14458857D01*
X35687857Y-14430286D01*
X35702143Y-14416000D01*
X35730714Y-14401714D01*
X35959286Y-14673143D02*
X35973571Y-14687429D01*
X35959286Y-14701714D01*
X35945000Y-14687429D01*
X35959286Y-14673143D01*
X35959286Y-14701714D01*
X36159286Y-14401714D02*
X36187857Y-14401714D01*
X36216428Y-14416000D01*
X36230714Y-14430286D01*
X36245000Y-14458857D01*
X36259286Y-14516000D01*
X36259286Y-14587429D01*
X36245000Y-14644572D01*
X36230714Y-14673143D01*
X36216428Y-14687429D01*
X36187857Y-14701714D01*
X36159286Y-14701714D01*
X36130714Y-14687429D01*
X36116428Y-14673143D01*
X36102143Y-14644572D01*
X36087857Y-14587429D01*
X36087857Y-14516000D01*
X36102143Y-14458857D01*
X36116428Y-14430286D01*
X36130714Y-14416000D01*
X36159286Y-14401714D01*
X36516428Y-14401714D02*
X36459286Y-14401714D01*
X36430714Y-14416000D01*
X36416428Y-14430286D01*
X36387857Y-14473143D01*
X36373571Y-14530286D01*
X36373571Y-14644572D01*
X36387857Y-14673143D01*
X36402143Y-14687429D01*
X36430714Y-14701714D01*
X36487857Y-14701714D01*
X36516428Y-14687429D01*
X36530714Y-14673143D01*
X36545000Y-14644572D01*
X36545000Y-14573143D01*
X36530714Y-14544572D01*
X36516428Y-14530286D01*
X36487857Y-14516000D01*
X36430714Y-14516000D01*
X36402143Y-14530286D01*
X36387857Y-14544572D01*
X36373571Y-14573143D01*
X36645000Y-14401714D02*
X36845000Y-14401714D01*
X36716428Y-14701714D01*
X37016428Y-14401714D02*
X37045000Y-14401714D01*
X37073571Y-14416000D01*
X37087857Y-14430286D01*
X37102143Y-14458857D01*
X37116428Y-14516000D01*
X37116428Y-14587429D01*
X37102143Y-14644572D01*
X37087857Y-14673143D01*
X37073571Y-14687429D01*
X37045000Y-14701714D01*
X37016428Y-14701714D01*
X36987857Y-14687429D01*
X36973571Y-14673143D01*
X36959286Y-14644572D01*
X36945000Y-14587429D01*
X36945000Y-14516000D01*
X36959286Y-14458857D01*
X36973571Y-14430286D01*
X36987857Y-14416000D01*
X37016428Y-14401714D01*
X37230714Y-14401714D02*
X37230714Y-14458857D01*
X37345000Y-14401714D02*
X37345000Y-14458857D01*
X37787857Y-14816000D02*
X37773571Y-14801714D01*
X37745000Y-14758857D01*
X37730714Y-14730286D01*
X37716428Y-14687429D01*
X37702143Y-14616000D01*
X37702143Y-14558857D01*
X37716428Y-14487429D01*
X37730714Y-14444572D01*
X37745000Y-14416000D01*
X37773571Y-14373143D01*
X37787857Y-14358857D01*
X38030714Y-14501714D02*
X38030714Y-14701714D01*
X37959286Y-14387429D02*
X37887857Y-14601714D01*
X38073571Y-14601714D01*
X38230714Y-14530286D02*
X38202143Y-14516000D01*
X38187857Y-14501714D01*
X38173571Y-14473143D01*
X38173571Y-14458857D01*
X38187857Y-14430286D01*
X38202143Y-14416000D01*
X38230714Y-14401714D01*
X38287857Y-14401714D01*
X38316428Y-14416000D01*
X38330714Y-14430286D01*
X38345000Y-14458857D01*
X38345000Y-14473143D01*
X38330714Y-14501714D01*
X38316428Y-14516000D01*
X38287857Y-14530286D01*
X38230714Y-14530286D01*
X38202143Y-14544572D01*
X38187857Y-14558857D01*
X38173571Y-14587429D01*
X38173571Y-14644572D01*
X38187857Y-14673143D01*
X38202143Y-14687429D01*
X38230714Y-14701714D01*
X38287857Y-14701714D01*
X38316428Y-14687429D01*
X38330714Y-14673143D01*
X38345000Y-14644572D01*
X38345000Y-14587429D01*
X38330714Y-14558857D01*
X38316428Y-14544572D01*
X38287857Y-14530286D01*
X38702143Y-14701714D02*
X38702143Y-14401714D01*
X38830714Y-14701714D02*
X38830714Y-14544572D01*
X38816428Y-14516000D01*
X38787857Y-14501714D01*
X38745000Y-14501714D01*
X38716428Y-14516000D01*
X38702143Y-14530286D01*
X39016428Y-14701714D02*
X38987857Y-14687429D01*
X38973571Y-14673143D01*
X38959286Y-14644572D01*
X38959286Y-14558857D01*
X38973571Y-14530286D01*
X38987857Y-14516000D01*
X39016428Y-14501714D01*
X39059286Y-14501714D01*
X39087857Y-14516000D01*
X39102143Y-14530286D01*
X39116428Y-14558857D01*
X39116428Y-14644572D01*
X39102143Y-14673143D01*
X39087857Y-14687429D01*
X39059286Y-14701714D01*
X39016428Y-14701714D01*
X39287857Y-14701714D02*
X39259286Y-14687429D01*
X39245000Y-14658857D01*
X39245000Y-14401714D01*
X39516428Y-14687429D02*
X39487857Y-14701714D01*
X39430714Y-14701714D01*
X39402143Y-14687429D01*
X39387857Y-14658857D01*
X39387857Y-14544572D01*
X39402143Y-14516000D01*
X39430714Y-14501714D01*
X39487857Y-14501714D01*
X39516428Y-14516000D01*
X39530714Y-14544572D01*
X39530714Y-14573143D01*
X39387857Y-14601714D01*
X39645000Y-14687429D02*
X39673571Y-14701714D01*
X39730714Y-14701714D01*
X39759286Y-14687429D01*
X39773571Y-14658857D01*
X39773571Y-14644572D01*
X39759286Y-14616000D01*
X39730714Y-14601714D01*
X39687857Y-14601714D01*
X39659286Y-14587429D01*
X39645000Y-14558857D01*
X39645000Y-14544572D01*
X39659286Y-14516000D01*
X39687857Y-14501714D01*
X39730714Y-14501714D01*
X39759286Y-14516000D01*
X39873571Y-14816000D02*
X39887857Y-14801714D01*
X39916428Y-14758857D01*
X39930714Y-14730286D01*
X39945000Y-14687429D01*
X39959286Y-14616000D01*
X39959286Y-14558857D01*
X39945000Y-14487429D01*
X39930714Y-14444572D01*
X39916428Y-14416000D01*
X39887857Y-14373143D01*
X39873571Y-14358857D01*
X40416428Y-14816000D02*
X40402143Y-14801714D01*
X40373571Y-14758857D01*
X40359286Y-14730286D01*
X40345000Y-14687429D01*
X40330714Y-14616000D01*
X40330714Y-14558857D01*
X40345000Y-14487429D01*
X40359286Y-14444572D01*
X40373571Y-14416000D01*
X40402143Y-14373143D01*
X40416428Y-14358857D01*
X40530714Y-14501714D02*
X40530714Y-14701714D01*
X40530714Y-14530286D02*
X40545000Y-14516000D01*
X40573571Y-14501714D01*
X40616428Y-14501714D01*
X40645000Y-14516000D01*
X40659286Y-14544572D01*
X40659286Y-14701714D01*
X40845000Y-14701714D02*
X40816428Y-14687429D01*
X40802143Y-14673143D01*
X40787857Y-14644572D01*
X40787857Y-14558857D01*
X40802143Y-14530286D01*
X40816428Y-14516000D01*
X40845000Y-14501714D01*
X40887857Y-14501714D01*
X40916428Y-14516000D01*
X40930714Y-14530286D01*
X40945000Y-14558857D01*
X40945000Y-14644572D01*
X40930714Y-14673143D01*
X40916428Y-14687429D01*
X40887857Y-14701714D01*
X40845000Y-14701714D01*
X41030714Y-14501714D02*
X41145000Y-14501714D01*
X41073571Y-14401714D02*
X41073571Y-14658857D01*
X41087857Y-14687429D01*
X41116428Y-14701714D01*
X41145000Y-14701714D01*
X41473571Y-14501714D02*
X41473571Y-14801714D01*
X41473571Y-14516000D02*
X41502143Y-14501714D01*
X41559286Y-14501714D01*
X41587857Y-14516000D01*
X41602143Y-14530286D01*
X41616428Y-14558857D01*
X41616428Y-14644572D01*
X41602143Y-14673143D01*
X41587857Y-14687429D01*
X41559286Y-14701714D01*
X41502143Y-14701714D01*
X41473571Y-14687429D01*
X41787857Y-14701714D02*
X41759286Y-14687429D01*
X41745000Y-14658857D01*
X41745000Y-14401714D01*
X42030714Y-14701714D02*
X42030714Y-14544572D01*
X42016428Y-14516000D01*
X41987857Y-14501714D01*
X41930714Y-14501714D01*
X41902143Y-14516000D01*
X42030714Y-14687429D02*
X42002143Y-14701714D01*
X41930714Y-14701714D01*
X41902143Y-14687429D01*
X41887857Y-14658857D01*
X41887857Y-14630286D01*
X41902143Y-14601714D01*
X41930714Y-14587429D01*
X42002143Y-14587429D01*
X42030714Y-14573143D01*
X42130714Y-14501714D02*
X42245000Y-14501714D01*
X42173571Y-14401714D02*
X42173571Y-14658857D01*
X42187857Y-14687429D01*
X42216428Y-14701714D01*
X42245000Y-14701714D01*
X42459286Y-14687429D02*
X42430714Y-14701714D01*
X42373571Y-14701714D01*
X42345000Y-14687429D01*
X42330714Y-14658857D01*
X42330714Y-14544572D01*
X42345000Y-14516000D01*
X42373571Y-14501714D01*
X42430714Y-14501714D01*
X42459286Y-14516000D01*
X42473571Y-14544572D01*
X42473571Y-14573143D01*
X42330714Y-14601714D01*
X42730714Y-14701714D02*
X42730714Y-14401714D01*
X42730714Y-14687429D02*
X42702143Y-14701714D01*
X42645000Y-14701714D01*
X42616428Y-14687429D01*
X42602143Y-14673143D01*
X42587857Y-14644572D01*
X42587857Y-14558857D01*
X42602143Y-14530286D01*
X42616428Y-14516000D01*
X42645000Y-14501714D01*
X42702143Y-14501714D01*
X42730714Y-14516000D01*
X42845000Y-14816000D02*
X42859286Y-14801714D01*
X42887857Y-14758857D01*
X42902143Y-14730286D01*
X42916428Y-14687429D01*
X42930714Y-14616000D01*
X42930714Y-14558857D01*
X42916428Y-14487429D01*
X42902143Y-14444572D01*
X42887857Y-14416000D01*
X42859286Y-14373143D01*
X42845000Y-14358857D01*
X32440000Y-14872000D02*
X32440000Y-15052000D01*
X32350000Y-14962000D02*
X32530000Y-14962000D01*
X32973571Y-15097714D02*
X32802143Y-15097714D01*
X32887857Y-15097714D02*
X32887857Y-14797714D01*
X32859285Y-14840572D01*
X32830714Y-14869143D01*
X32802143Y-14883429D01*
X33102143Y-15069143D02*
X33116428Y-15083429D01*
X33102143Y-15097714D01*
X33087857Y-15083429D01*
X33102143Y-15069143D01*
X33102143Y-15097714D01*
X33287857Y-14926286D02*
X33259285Y-14912000D01*
X33245000Y-14897714D01*
X33230714Y-14869143D01*
X33230714Y-14854857D01*
X33245000Y-14826286D01*
X33259285Y-14812000D01*
X33287857Y-14797714D01*
X33345000Y-14797714D01*
X33373571Y-14812000D01*
X33387857Y-14826286D01*
X33402143Y-14854857D01*
X33402143Y-14869143D01*
X33387857Y-14897714D01*
X33373571Y-14912000D01*
X33345000Y-14926286D01*
X33287857Y-14926286D01*
X33259285Y-14940572D01*
X33245000Y-14954857D01*
X33230714Y-14983429D01*
X33230714Y-15040572D01*
X33245000Y-15069143D01*
X33259285Y-15083429D01*
X33287857Y-15097714D01*
X33345000Y-15097714D01*
X33373571Y-15083429D01*
X33387857Y-15069143D01*
X33402143Y-15040572D01*
X33402143Y-14983429D01*
X33387857Y-14954857D01*
X33373571Y-14940572D01*
X33345000Y-14926286D01*
X33587857Y-14797714D02*
X33616428Y-14797714D01*
X33645000Y-14812000D01*
X33659286Y-14826286D01*
X33673571Y-14854857D01*
X33687857Y-14912000D01*
X33687857Y-14983429D01*
X33673571Y-15040572D01*
X33659286Y-15069143D01*
X33645000Y-15083429D01*
X33616428Y-15097714D01*
X33587857Y-15097714D01*
X33559286Y-15083429D01*
X33545000Y-15069143D01*
X33530714Y-15040572D01*
X33516428Y-14983429D01*
X33516428Y-14912000D01*
X33530714Y-14854857D01*
X33545000Y-14826286D01*
X33559286Y-14812000D01*
X33587857Y-14797714D01*
X33873571Y-14797714D02*
X33902143Y-14797714D01*
X33930714Y-14812000D01*
X33945000Y-14826286D01*
X33959286Y-14854857D01*
X33973571Y-14912000D01*
X33973571Y-14983429D01*
X33959286Y-15040572D01*
X33945000Y-15069143D01*
X33930714Y-15083429D01*
X33902143Y-15097714D01*
X33873571Y-15097714D01*
X33845000Y-15083429D01*
X33830714Y-15069143D01*
X33816428Y-15040572D01*
X33802143Y-14983429D01*
X33802143Y-14912000D01*
X33816428Y-14854857D01*
X33830714Y-14826286D01*
X33845000Y-14812000D01*
X33873571Y-14797714D01*
X34102143Y-15097714D02*
X34102143Y-14897714D01*
X34102143Y-14926286D02*
X34116428Y-14912000D01*
X34145000Y-14897714D01*
X34187857Y-14897714D01*
X34216428Y-14912000D01*
X34230714Y-14940572D01*
X34230714Y-15097714D01*
X34230714Y-14940572D02*
X34245000Y-14912000D01*
X34273571Y-14897714D01*
X34316428Y-14897714D01*
X34345000Y-14912000D01*
X34359286Y-14940572D01*
X34359286Y-15097714D01*
X34502143Y-15097714D02*
X34502143Y-14897714D01*
X34502143Y-14926286D02*
X34516428Y-14912000D01*
X34545000Y-14897714D01*
X34587857Y-14897714D01*
X34616428Y-14912000D01*
X34630714Y-14940572D01*
X34630714Y-15097714D01*
X34630714Y-14940572D02*
X34645000Y-14912000D01*
X34673571Y-14897714D01*
X34716428Y-14897714D01*
X34745000Y-14912000D01*
X34759286Y-14940572D01*
X34759286Y-15097714D01*
X35345000Y-14783429D02*
X35087857Y-15169143D01*
X35730714Y-14797714D02*
X35759286Y-14797714D01*
X35787857Y-14812000D01*
X35802143Y-14826286D01*
X35816428Y-14854857D01*
X35830714Y-14912000D01*
X35830714Y-14983429D01*
X35816428Y-15040572D01*
X35802143Y-15069143D01*
X35787857Y-15083429D01*
X35759286Y-15097714D01*
X35730714Y-15097714D01*
X35702143Y-15083429D01*
X35687857Y-15069143D01*
X35673571Y-15040572D01*
X35659286Y-14983429D01*
X35659286Y-14912000D01*
X35673571Y-14854857D01*
X35687857Y-14826286D01*
X35702143Y-14812000D01*
X35730714Y-14797714D01*
X35959286Y-15069143D02*
X35973571Y-15083429D01*
X35959286Y-15097714D01*
X35945000Y-15083429D01*
X35959286Y-15069143D01*
X35959286Y-15097714D01*
X36159286Y-14797714D02*
X36187857Y-14797714D01*
X36216428Y-14812000D01*
X36230714Y-14826286D01*
X36245000Y-14854857D01*
X36259286Y-14912000D01*
X36259286Y-14983429D01*
X36245000Y-15040572D01*
X36230714Y-15069143D01*
X36216428Y-15083429D01*
X36187857Y-15097714D01*
X36159286Y-15097714D01*
X36130714Y-15083429D01*
X36116428Y-15069143D01*
X36102143Y-15040572D01*
X36087857Y-14983429D01*
X36087857Y-14912000D01*
X36102143Y-14854857D01*
X36116428Y-14826286D01*
X36130714Y-14812000D01*
X36159286Y-14797714D01*
X36359286Y-14797714D02*
X36559286Y-14797714D01*
X36430714Y-15097714D01*
X36730714Y-14797714D02*
X36759286Y-14797714D01*
X36787857Y-14812000D01*
X36802143Y-14826286D01*
X36816428Y-14854857D01*
X36830714Y-14912000D01*
X36830714Y-14983429D01*
X36816428Y-15040572D01*
X36802143Y-15069143D01*
X36787857Y-15083429D01*
X36759286Y-15097714D01*
X36730714Y-15097714D01*
X36702143Y-15083429D01*
X36687857Y-15069143D01*
X36673571Y-15040572D01*
X36659286Y-14983429D01*
X36659286Y-14912000D01*
X36673571Y-14854857D01*
X36687857Y-14826286D01*
X36702143Y-14812000D01*
X36730714Y-14797714D01*
X36973571Y-15097714D02*
X37030714Y-15097714D01*
X37059286Y-15083429D01*
X37073571Y-15069143D01*
X37102143Y-15026286D01*
X37116428Y-14969143D01*
X37116428Y-14854857D01*
X37102143Y-14826286D01*
X37087857Y-14812000D01*
X37059286Y-14797714D01*
X37002143Y-14797714D01*
X36973571Y-14812000D01*
X36959286Y-14826286D01*
X36945000Y-14854857D01*
X36945000Y-14926286D01*
X36959286Y-14954857D01*
X36973571Y-14969143D01*
X37002143Y-14983429D01*
X37059286Y-14983429D01*
X37087857Y-14969143D01*
X37102143Y-14954857D01*
X37116428Y-14926286D01*
X37230714Y-14797714D02*
X37230714Y-14854857D01*
X37345000Y-14797714D02*
X37345000Y-14854857D01*
X37787857Y-15212000D02*
X37773571Y-15197714D01*
X37745000Y-15154857D01*
X37730714Y-15126286D01*
X37716428Y-15083429D01*
X37702143Y-15012000D01*
X37702143Y-14954857D01*
X37716428Y-14883429D01*
X37730714Y-14840572D01*
X37745000Y-14812000D01*
X37773571Y-14769143D01*
X37787857Y-14754857D01*
X37887857Y-14826286D02*
X37902143Y-14812000D01*
X37930714Y-14797714D01*
X38002143Y-14797714D01*
X38030714Y-14812000D01*
X38045000Y-14826286D01*
X38059286Y-14854857D01*
X38059286Y-14883429D01*
X38045000Y-14926286D01*
X37873571Y-15097714D01*
X38059286Y-15097714D01*
X38416428Y-15097714D02*
X38416428Y-14797714D01*
X38545000Y-15097714D02*
X38545000Y-14940572D01*
X38530714Y-14912000D01*
X38502143Y-14897714D01*
X38459286Y-14897714D01*
X38430714Y-14912000D01*
X38416428Y-14926286D01*
X38730714Y-15097714D02*
X38702143Y-15083429D01*
X38687857Y-15069143D01*
X38673571Y-15040572D01*
X38673571Y-14954857D01*
X38687857Y-14926286D01*
X38702143Y-14912000D01*
X38730714Y-14897714D01*
X38773571Y-14897714D01*
X38802143Y-14912000D01*
X38816428Y-14926286D01*
X38830714Y-14954857D01*
X38830714Y-15040572D01*
X38816428Y-15069143D01*
X38802143Y-15083429D01*
X38773571Y-15097714D01*
X38730714Y-15097714D01*
X39002143Y-15097714D02*
X38973571Y-15083429D01*
X38959286Y-15054857D01*
X38959286Y-14797714D01*
X39230714Y-15083429D02*
X39202143Y-15097714D01*
X39145000Y-15097714D01*
X39116428Y-15083429D01*
X39102143Y-15054857D01*
X39102143Y-14940572D01*
X39116428Y-14912000D01*
X39145000Y-14897714D01*
X39202143Y-14897714D01*
X39230714Y-14912000D01*
X39245000Y-14940572D01*
X39245000Y-14969143D01*
X39102143Y-14997714D01*
X39359286Y-15083429D02*
X39387857Y-15097714D01*
X39445000Y-15097714D01*
X39473571Y-15083429D01*
X39487857Y-15054857D01*
X39487857Y-15040572D01*
X39473571Y-15012000D01*
X39445000Y-14997714D01*
X39402143Y-14997714D01*
X39373571Y-14983429D01*
X39359286Y-14954857D01*
X39359286Y-14940572D01*
X39373571Y-14912000D01*
X39402143Y-14897714D01*
X39445000Y-14897714D01*
X39473571Y-14912000D01*
X39587857Y-15212000D02*
X39602143Y-15197714D01*
X39630714Y-15154857D01*
X39645000Y-15126286D01*
X39659286Y-15083429D01*
X39673571Y-15012000D01*
X39673571Y-14954857D01*
X39659286Y-14883429D01*
X39645000Y-14840572D01*
X39630714Y-14812000D01*
X39602143Y-14769143D01*
X39587857Y-14754857D01*
X40130714Y-15212000D02*
X40116428Y-15197714D01*
X40087857Y-15154857D01*
X40073571Y-15126286D01*
X40059286Y-15083429D01*
X40045000Y-15012000D01*
X40045000Y-14954857D01*
X40059286Y-14883429D01*
X40073571Y-14840572D01*
X40087857Y-14812000D01*
X40116428Y-14769143D01*
X40130714Y-14754857D01*
X40245000Y-14897714D02*
X40245000Y-15097714D01*
X40245000Y-14926286D02*
X40259286Y-14912000D01*
X40287857Y-14897714D01*
X40330714Y-14897714D01*
X40359286Y-14912000D01*
X40373571Y-14940572D01*
X40373571Y-15097714D01*
X40559286Y-15097714D02*
X40530714Y-15083429D01*
X40516428Y-15069143D01*
X40502143Y-15040572D01*
X40502143Y-14954857D01*
X40516428Y-14926286D01*
X40530714Y-14912000D01*
X40559286Y-14897714D01*
X40602143Y-14897714D01*
X40630714Y-14912000D01*
X40645000Y-14926286D01*
X40659286Y-14954857D01*
X40659286Y-15040572D01*
X40645000Y-15069143D01*
X40630714Y-15083429D01*
X40602143Y-15097714D01*
X40559286Y-15097714D01*
X40745000Y-14897714D02*
X40859286Y-14897714D01*
X40787857Y-14797714D02*
X40787857Y-15054857D01*
X40802143Y-15083429D01*
X40830714Y-15097714D01*
X40859286Y-15097714D01*
X41187857Y-14897714D02*
X41187857Y-15197714D01*
X41187857Y-14912000D02*
X41216428Y-14897714D01*
X41273571Y-14897714D01*
X41302143Y-14912000D01*
X41316428Y-14926286D01*
X41330714Y-14954857D01*
X41330714Y-15040572D01*
X41316428Y-15069143D01*
X41302143Y-15083429D01*
X41273571Y-15097714D01*
X41216428Y-15097714D01*
X41187857Y-15083429D01*
X41502143Y-15097714D02*
X41473571Y-15083429D01*
X41459286Y-15054857D01*
X41459286Y-14797714D01*
X41745000Y-15097714D02*
X41745000Y-14940572D01*
X41730714Y-14912000D01*
X41702143Y-14897714D01*
X41645000Y-14897714D01*
X41616428Y-14912000D01*
X41745000Y-15083429D02*
X41716428Y-15097714D01*
X41645000Y-15097714D01*
X41616428Y-15083429D01*
X41602143Y-15054857D01*
X41602143Y-15026286D01*
X41616428Y-14997714D01*
X41645000Y-14983429D01*
X41716428Y-14983429D01*
X41745000Y-14969143D01*
X41845000Y-14897714D02*
X41959286Y-14897714D01*
X41887857Y-14797714D02*
X41887857Y-15054857D01*
X41902143Y-15083429D01*
X41930714Y-15097714D01*
X41959286Y-15097714D01*
X42173571Y-15083429D02*
X42145000Y-15097714D01*
X42087857Y-15097714D01*
X42059286Y-15083429D01*
X42045000Y-15054857D01*
X42045000Y-14940572D01*
X42059286Y-14912000D01*
X42087857Y-14897714D01*
X42145000Y-14897714D01*
X42173571Y-14912000D01*
X42187857Y-14940572D01*
X42187857Y-14969143D01*
X42045000Y-14997714D01*
X42445000Y-15097714D02*
X42445000Y-14797714D01*
X42445000Y-15083429D02*
X42416428Y-15097714D01*
X42359286Y-15097714D01*
X42330714Y-15083429D01*
X42316428Y-15069143D01*
X42302143Y-15040572D01*
X42302143Y-14954857D01*
X42316428Y-14926286D01*
X42330714Y-14912000D01*
X42359286Y-14897714D01*
X42416428Y-14897714D01*
X42445000Y-14912000D01*
X42559286Y-15212000D02*
X42573571Y-15197714D01*
X42602143Y-15154857D01*
X42616428Y-15126286D01*
X42630714Y-15083429D01*
X42645000Y-15012000D01*
X42645000Y-14954857D01*
X42630714Y-14883429D01*
X42616428Y-14840572D01*
X42602143Y-14812000D01*
X42573571Y-14769143D01*
X42559286Y-14754857D01*
X32485364Y-15465764D02*
X32485364Y-15250236D01*
X32269836Y-15250236D01*
X32269836Y-15465764D01*
X32485364Y-15465764D01*
X32787857Y-15193714D02*
X32973571Y-15193714D01*
X32873571Y-15308000D01*
X32916428Y-15308000D01*
X32945000Y-15322286D01*
X32959285Y-15336572D01*
X32973571Y-15365143D01*
X32973571Y-15436572D01*
X32959285Y-15465143D01*
X32945000Y-15479429D01*
X32916428Y-15493714D01*
X32830714Y-15493714D01*
X32802143Y-15479429D01*
X32787857Y-15465143D01*
X33102143Y-15465143D02*
X33116428Y-15479429D01*
X33102143Y-15493714D01*
X33087857Y-15479429D01*
X33102143Y-15465143D01*
X33102143Y-15493714D01*
X33302143Y-15193714D02*
X33330714Y-15193714D01*
X33359285Y-15208000D01*
X33373571Y-15222286D01*
X33387857Y-15250857D01*
X33402143Y-15308000D01*
X33402143Y-15379429D01*
X33387857Y-15436572D01*
X33373571Y-15465143D01*
X33359285Y-15479429D01*
X33330714Y-15493714D01*
X33302143Y-15493714D01*
X33273571Y-15479429D01*
X33259285Y-15465143D01*
X33245000Y-15436572D01*
X33230714Y-15379429D01*
X33230714Y-15308000D01*
X33245000Y-15250857D01*
X33259285Y-15222286D01*
X33273571Y-15208000D01*
X33302143Y-15193714D01*
X33659286Y-15293714D02*
X33659286Y-15493714D01*
X33587857Y-15179429D02*
X33516428Y-15393714D01*
X33702143Y-15393714D01*
X33859286Y-15322286D02*
X33830714Y-15308000D01*
X33816428Y-15293714D01*
X33802143Y-15265143D01*
X33802143Y-15250857D01*
X33816428Y-15222286D01*
X33830714Y-15208000D01*
X33859286Y-15193714D01*
X33916428Y-15193714D01*
X33945000Y-15208000D01*
X33959286Y-15222286D01*
X33973571Y-15250857D01*
X33973571Y-15265143D01*
X33959286Y-15293714D01*
X33945000Y-15308000D01*
X33916428Y-15322286D01*
X33859286Y-15322286D01*
X33830714Y-15336572D01*
X33816428Y-15350857D01*
X33802143Y-15379429D01*
X33802143Y-15436572D01*
X33816428Y-15465143D01*
X33830714Y-15479429D01*
X33859286Y-15493714D01*
X33916428Y-15493714D01*
X33945000Y-15479429D01*
X33959286Y-15465143D01*
X33973571Y-15436572D01*
X33973571Y-15379429D01*
X33959286Y-15350857D01*
X33945000Y-15336572D01*
X33916428Y-15322286D01*
X34102143Y-15493714D02*
X34102143Y-15293714D01*
X34102143Y-15322286D02*
X34116428Y-15308000D01*
X34145000Y-15293714D01*
X34187857Y-15293714D01*
X34216428Y-15308000D01*
X34230714Y-15336572D01*
X34230714Y-15493714D01*
X34230714Y-15336572D02*
X34245000Y-15308000D01*
X34273571Y-15293714D01*
X34316428Y-15293714D01*
X34345000Y-15308000D01*
X34359286Y-15336572D01*
X34359286Y-15493714D01*
X34502143Y-15493714D02*
X34502143Y-15293714D01*
X34502143Y-15322286D02*
X34516428Y-15308000D01*
X34545000Y-15293714D01*
X34587857Y-15293714D01*
X34616428Y-15308000D01*
X34630714Y-15336572D01*
X34630714Y-15493714D01*
X34630714Y-15336572D02*
X34645000Y-15308000D01*
X34673571Y-15293714D01*
X34716428Y-15293714D01*
X34745000Y-15308000D01*
X34759286Y-15336572D01*
X34759286Y-15493714D01*
X35345000Y-15179429D02*
X35087857Y-15565143D01*
X35730714Y-15193714D02*
X35759286Y-15193714D01*
X35787857Y-15208000D01*
X35802143Y-15222286D01*
X35816428Y-15250857D01*
X35830714Y-15308000D01*
X35830714Y-15379429D01*
X35816428Y-15436572D01*
X35802143Y-15465143D01*
X35787857Y-15479429D01*
X35759286Y-15493714D01*
X35730714Y-15493714D01*
X35702143Y-15479429D01*
X35687857Y-15465143D01*
X35673571Y-15436572D01*
X35659286Y-15379429D01*
X35659286Y-15308000D01*
X35673571Y-15250857D01*
X35687857Y-15222286D01*
X35702143Y-15208000D01*
X35730714Y-15193714D01*
X35959286Y-15465143D02*
X35973571Y-15479429D01*
X35959286Y-15493714D01*
X35945000Y-15479429D01*
X35959286Y-15465143D01*
X35959286Y-15493714D01*
X36259286Y-15493714D02*
X36087857Y-15493714D01*
X36173571Y-15493714D02*
X36173571Y-15193714D01*
X36145000Y-15236572D01*
X36116428Y-15265143D01*
X36087857Y-15279429D01*
X36373571Y-15222286D02*
X36387857Y-15208000D01*
X36416428Y-15193714D01*
X36487857Y-15193714D01*
X36516428Y-15208000D01*
X36530714Y-15222286D01*
X36545000Y-15250857D01*
X36545000Y-15279429D01*
X36530714Y-15322286D01*
X36359286Y-15493714D01*
X36545000Y-15493714D01*
X36730714Y-15193714D02*
X36759286Y-15193714D01*
X36787857Y-15208000D01*
X36802143Y-15222286D01*
X36816428Y-15250857D01*
X36830714Y-15308000D01*
X36830714Y-15379429D01*
X36816428Y-15436572D01*
X36802143Y-15465143D01*
X36787857Y-15479429D01*
X36759286Y-15493714D01*
X36730714Y-15493714D01*
X36702143Y-15479429D01*
X36687857Y-15465143D01*
X36673571Y-15436572D01*
X36659286Y-15379429D01*
X36659286Y-15308000D01*
X36673571Y-15250857D01*
X36687857Y-15222286D01*
X36702143Y-15208000D01*
X36730714Y-15193714D01*
X37016428Y-15193714D02*
X37045000Y-15193714D01*
X37073571Y-15208000D01*
X37087857Y-15222286D01*
X37102143Y-15250857D01*
X37116428Y-15308000D01*
X37116428Y-15379429D01*
X37102143Y-15436572D01*
X37087857Y-15465143D01*
X37073571Y-15479429D01*
X37045000Y-15493714D01*
X37016428Y-15493714D01*
X36987857Y-15479429D01*
X36973571Y-15465143D01*
X36959286Y-15436572D01*
X36945000Y-15379429D01*
X36945000Y-15308000D01*
X36959286Y-15250857D01*
X36973571Y-15222286D01*
X36987857Y-15208000D01*
X37016428Y-15193714D01*
X37230714Y-15193714D02*
X37230714Y-15250857D01*
X37345000Y-15193714D02*
X37345000Y-15250857D01*
X37787857Y-15608000D02*
X37773571Y-15593714D01*
X37745000Y-15550857D01*
X37730714Y-15522286D01*
X37716428Y-15479429D01*
X37702143Y-15408000D01*
X37702143Y-15350857D01*
X37716428Y-15279429D01*
X37730714Y-15236572D01*
X37745000Y-15208000D01*
X37773571Y-15165143D01*
X37787857Y-15150857D01*
X38030714Y-15293714D02*
X38030714Y-15493714D01*
X37959286Y-15179429D02*
X37887857Y-15393714D01*
X38073571Y-15393714D01*
X38416428Y-15493714D02*
X38416428Y-15193714D01*
X38545000Y-15493714D02*
X38545000Y-15336572D01*
X38530714Y-15308000D01*
X38502143Y-15293714D01*
X38459286Y-15293714D01*
X38430714Y-15308000D01*
X38416428Y-15322286D01*
X38730714Y-15493714D02*
X38702143Y-15479429D01*
X38687857Y-15465143D01*
X38673571Y-15436572D01*
X38673571Y-15350857D01*
X38687857Y-15322286D01*
X38702143Y-15308000D01*
X38730714Y-15293714D01*
X38773571Y-15293714D01*
X38802143Y-15308000D01*
X38816428Y-15322286D01*
X38830714Y-15350857D01*
X38830714Y-15436572D01*
X38816428Y-15465143D01*
X38802143Y-15479429D01*
X38773571Y-15493714D01*
X38730714Y-15493714D01*
X39002143Y-15493714D02*
X38973571Y-15479429D01*
X38959286Y-15450857D01*
X38959286Y-15193714D01*
X39230714Y-15479429D02*
X39202143Y-15493714D01*
X39145000Y-15493714D01*
X39116428Y-15479429D01*
X39102143Y-15450857D01*
X39102143Y-15336572D01*
X39116428Y-15308000D01*
X39145000Y-15293714D01*
X39202143Y-15293714D01*
X39230714Y-15308000D01*
X39245000Y-15336572D01*
X39245000Y-15365143D01*
X39102143Y-15393714D01*
X39359286Y-15479429D02*
X39387857Y-15493714D01*
X39445000Y-15493714D01*
X39473571Y-15479429D01*
X39487857Y-15450857D01*
X39487857Y-15436572D01*
X39473571Y-15408000D01*
X39445000Y-15393714D01*
X39402143Y-15393714D01*
X39373571Y-15379429D01*
X39359286Y-15350857D01*
X39359286Y-15336572D01*
X39373571Y-15308000D01*
X39402143Y-15293714D01*
X39445000Y-15293714D01*
X39473571Y-15308000D01*
X39587857Y-15608000D02*
X39602143Y-15593714D01*
X39630714Y-15550857D01*
X39645000Y-15522286D01*
X39659286Y-15479429D01*
X39673571Y-15408000D01*
X39673571Y-15350857D01*
X39659286Y-15279429D01*
X39645000Y-15236572D01*
X39630714Y-15208000D01*
X39602143Y-15165143D01*
X39587857Y-15150857D01*
X40130714Y-15608000D02*
X40116428Y-15593714D01*
X40087857Y-15550857D01*
X40073571Y-15522286D01*
X40059286Y-15479429D01*
X40045000Y-15408000D01*
X40045000Y-15350857D01*
X40059286Y-15279429D01*
X40073571Y-15236572D01*
X40087857Y-15208000D01*
X40116428Y-15165143D01*
X40130714Y-15150857D01*
X40245000Y-15293714D02*
X40245000Y-15493714D01*
X40245000Y-15322286D02*
X40259286Y-15308000D01*
X40287857Y-15293714D01*
X40330714Y-15293714D01*
X40359286Y-15308000D01*
X40373571Y-15336572D01*
X40373571Y-15493714D01*
X40559286Y-15493714D02*
X40530714Y-15479429D01*
X40516428Y-15465143D01*
X40502143Y-15436572D01*
X40502143Y-15350857D01*
X40516428Y-15322286D01*
X40530714Y-15308000D01*
X40559286Y-15293714D01*
X40602143Y-15293714D01*
X40630714Y-15308000D01*
X40645000Y-15322286D01*
X40659286Y-15350857D01*
X40659286Y-15436572D01*
X40645000Y-15465143D01*
X40630714Y-15479429D01*
X40602143Y-15493714D01*
X40559286Y-15493714D01*
X40745000Y-15293714D02*
X40859286Y-15293714D01*
X40787857Y-15193714D02*
X40787857Y-15450857D01*
X40802143Y-15479429D01*
X40830714Y-15493714D01*
X40859286Y-15493714D01*
X41187857Y-15293714D02*
X41187857Y-15593714D01*
X41187857Y-15308000D02*
X41216428Y-15293714D01*
X41273571Y-15293714D01*
X41302143Y-15308000D01*
X41316428Y-15322286D01*
X41330714Y-15350857D01*
X41330714Y-15436572D01*
X41316428Y-15465143D01*
X41302143Y-15479429D01*
X41273571Y-15493714D01*
X41216428Y-15493714D01*
X41187857Y-15479429D01*
X41502143Y-15493714D02*
X41473571Y-15479429D01*
X41459286Y-15450857D01*
X41459286Y-15193714D01*
X41745000Y-15493714D02*
X41745000Y-15336572D01*
X41730714Y-15308000D01*
X41702143Y-15293714D01*
X41645000Y-15293714D01*
X41616428Y-15308000D01*
X41745000Y-15479429D02*
X41716428Y-15493714D01*
X41645000Y-15493714D01*
X41616428Y-15479429D01*
X41602143Y-15450857D01*
X41602143Y-15422286D01*
X41616428Y-15393714D01*
X41645000Y-15379429D01*
X41716428Y-15379429D01*
X41745000Y-15365143D01*
X41845000Y-15293714D02*
X41959286Y-15293714D01*
X41887857Y-15193714D02*
X41887857Y-15450857D01*
X41902143Y-15479429D01*
X41930714Y-15493714D01*
X41959286Y-15493714D01*
X42173571Y-15479429D02*
X42145000Y-15493714D01*
X42087857Y-15493714D01*
X42059286Y-15479429D01*
X42045000Y-15450857D01*
X42045000Y-15336572D01*
X42059286Y-15308000D01*
X42087857Y-15293714D01*
X42145000Y-15293714D01*
X42173571Y-15308000D01*
X42187857Y-15336572D01*
X42187857Y-15365143D01*
X42045000Y-15393714D01*
X42445000Y-15493714D02*
X42445000Y-15193714D01*
X42445000Y-15479429D02*
X42416428Y-15493714D01*
X42359286Y-15493714D01*
X42330714Y-15479429D01*
X42316428Y-15465143D01*
X42302143Y-15436572D01*
X42302143Y-15350857D01*
X42316428Y-15322286D01*
X42330714Y-15308000D01*
X42359286Y-15293714D01*
X42416428Y-15293714D01*
X42445000Y-15308000D01*
X42559286Y-15608000D02*
X42573571Y-15593714D01*
X42602143Y-15550857D01*
X42616428Y-15522286D01*
X42630714Y-15479429D01*
X42645000Y-15408000D01*
X42645000Y-15350857D01*
X42630714Y-15279429D01*
X42616428Y-15236572D01*
X42602143Y-15208000D01*
X42573571Y-15165143D01*
X42559286Y-15150857D01*
X32375000Y-15947800D02*
X32530000Y-15792800D01*
X32375000Y-15637800D01*
X32220000Y-15792800D01*
X32375000Y-15947800D01*
X32787857Y-15628514D02*
X32973571Y-15628514D01*
X32873571Y-15742800D01*
X32916428Y-15742800D01*
X32945000Y-15757086D01*
X32959285Y-15771372D01*
X32973571Y-15799943D01*
X32973571Y-15871372D01*
X32959285Y-15899943D01*
X32945000Y-15914229D01*
X32916428Y-15928514D01*
X32830714Y-15928514D01*
X32802143Y-15914229D01*
X32787857Y-15899943D01*
X33102143Y-15899943D02*
X33116428Y-15914229D01*
X33102143Y-15928514D01*
X33087857Y-15914229D01*
X33102143Y-15899943D01*
X33102143Y-15928514D01*
X33402143Y-15928514D02*
X33230714Y-15928514D01*
X33316428Y-15928514D02*
X33316428Y-15628514D01*
X33287857Y-15671372D01*
X33259285Y-15699943D01*
X33230714Y-15714229D01*
X33587857Y-15628514D02*
X33616428Y-15628514D01*
X33645000Y-15642800D01*
X33659286Y-15657086D01*
X33673571Y-15685657D01*
X33687857Y-15742800D01*
X33687857Y-15814229D01*
X33673571Y-15871372D01*
X33659286Y-15899943D01*
X33645000Y-15914229D01*
X33616428Y-15928514D01*
X33587857Y-15928514D01*
X33559286Y-15914229D01*
X33545000Y-15899943D01*
X33530714Y-15871372D01*
X33516428Y-15814229D01*
X33516428Y-15742800D01*
X33530714Y-15685657D01*
X33545000Y-15657086D01*
X33559286Y-15642800D01*
X33587857Y-15628514D01*
X33873571Y-15628514D02*
X33902143Y-15628514D01*
X33930714Y-15642800D01*
X33945000Y-15657086D01*
X33959286Y-15685657D01*
X33973571Y-15742800D01*
X33973571Y-15814229D01*
X33959286Y-15871372D01*
X33945000Y-15899943D01*
X33930714Y-15914229D01*
X33902143Y-15928514D01*
X33873571Y-15928514D01*
X33845000Y-15914229D01*
X33830714Y-15899943D01*
X33816428Y-15871372D01*
X33802143Y-15814229D01*
X33802143Y-15742800D01*
X33816428Y-15685657D01*
X33830714Y-15657086D01*
X33845000Y-15642800D01*
X33873571Y-15628514D01*
X34102143Y-15928514D02*
X34102143Y-15728514D01*
X34102143Y-15757086D02*
X34116428Y-15742800D01*
X34145000Y-15728514D01*
X34187857Y-15728514D01*
X34216428Y-15742800D01*
X34230714Y-15771372D01*
X34230714Y-15928514D01*
X34230714Y-15771372D02*
X34245000Y-15742800D01*
X34273571Y-15728514D01*
X34316428Y-15728514D01*
X34345000Y-15742800D01*
X34359286Y-15771372D01*
X34359286Y-15928514D01*
X34502143Y-15928514D02*
X34502143Y-15728514D01*
X34502143Y-15757086D02*
X34516428Y-15742800D01*
X34545000Y-15728514D01*
X34587857Y-15728514D01*
X34616428Y-15742800D01*
X34630714Y-15771372D01*
X34630714Y-15928514D01*
X34630714Y-15771372D02*
X34645000Y-15742800D01*
X34673571Y-15728514D01*
X34716428Y-15728514D01*
X34745000Y-15742800D01*
X34759286Y-15771372D01*
X34759286Y-15928514D01*
X35345000Y-15614229D02*
X35087857Y-15999943D01*
X35730714Y-15628514D02*
X35759286Y-15628514D01*
X35787857Y-15642800D01*
X35802143Y-15657086D01*
X35816428Y-15685657D01*
X35830714Y-15742800D01*
X35830714Y-15814229D01*
X35816428Y-15871372D01*
X35802143Y-15899943D01*
X35787857Y-15914229D01*
X35759286Y-15928514D01*
X35730714Y-15928514D01*
X35702143Y-15914229D01*
X35687857Y-15899943D01*
X35673571Y-15871372D01*
X35659286Y-15814229D01*
X35659286Y-15742800D01*
X35673571Y-15685657D01*
X35687857Y-15657086D01*
X35702143Y-15642800D01*
X35730714Y-15628514D01*
X35959286Y-15899943D02*
X35973571Y-15914229D01*
X35959286Y-15928514D01*
X35945000Y-15914229D01*
X35959286Y-15899943D01*
X35959286Y-15928514D01*
X36259286Y-15928514D02*
X36087857Y-15928514D01*
X36173571Y-15928514D02*
X36173571Y-15628514D01*
X36145000Y-15671372D01*
X36116428Y-15699943D01*
X36087857Y-15714229D01*
X36373571Y-15657086D02*
X36387857Y-15642800D01*
X36416428Y-15628514D01*
X36487857Y-15628514D01*
X36516428Y-15642800D01*
X36530714Y-15657086D01*
X36545000Y-15685657D01*
X36545000Y-15714229D01*
X36530714Y-15757086D01*
X36359286Y-15928514D01*
X36545000Y-15928514D01*
X36659286Y-15657086D02*
X36673571Y-15642800D01*
X36702143Y-15628514D01*
X36773571Y-15628514D01*
X36802143Y-15642800D01*
X36816428Y-15657086D01*
X36830714Y-15685657D01*
X36830714Y-15714229D01*
X36816428Y-15757086D01*
X36645000Y-15928514D01*
X36830714Y-15928514D01*
X37016428Y-15628514D02*
X37045000Y-15628514D01*
X37073571Y-15642800D01*
X37087857Y-15657086D01*
X37102143Y-15685657D01*
X37116428Y-15742800D01*
X37116428Y-15814229D01*
X37102143Y-15871372D01*
X37087857Y-15899943D01*
X37073571Y-15914229D01*
X37045000Y-15928514D01*
X37016428Y-15928514D01*
X36987857Y-15914229D01*
X36973571Y-15899943D01*
X36959286Y-15871372D01*
X36945000Y-15814229D01*
X36945000Y-15742800D01*
X36959286Y-15685657D01*
X36973571Y-15657086D01*
X36987857Y-15642800D01*
X37016428Y-15628514D01*
X37230714Y-15628514D02*
X37230714Y-15685657D01*
X37345000Y-15628514D02*
X37345000Y-15685657D01*
X37787857Y-16042800D02*
X37773571Y-16028514D01*
X37745000Y-15985657D01*
X37730714Y-15957086D01*
X37716428Y-15914229D01*
X37702143Y-15842800D01*
X37702143Y-15785657D01*
X37716428Y-15714229D01*
X37730714Y-15671372D01*
X37745000Y-15642800D01*
X37773571Y-15599943D01*
X37787857Y-15585657D01*
X38030714Y-15728514D02*
X38030714Y-15928514D01*
X37959286Y-15614229D02*
X37887857Y-15828514D01*
X38073571Y-15828514D01*
X38416428Y-15928514D02*
X38416428Y-15628514D01*
X38545000Y-15928514D02*
X38545000Y-15771372D01*
X38530714Y-15742800D01*
X38502143Y-15728514D01*
X38459286Y-15728514D01*
X38430714Y-15742800D01*
X38416428Y-15757086D01*
X38730714Y-15928514D02*
X38702143Y-15914229D01*
X38687857Y-15899943D01*
X38673571Y-15871372D01*
X38673571Y-15785657D01*
X38687857Y-15757086D01*
X38702143Y-15742800D01*
X38730714Y-15728514D01*
X38773571Y-15728514D01*
X38802143Y-15742800D01*
X38816428Y-15757086D01*
X38830714Y-15785657D01*
X38830714Y-15871372D01*
X38816428Y-15899943D01*
X38802143Y-15914229D01*
X38773571Y-15928514D01*
X38730714Y-15928514D01*
X39002143Y-15928514D02*
X38973571Y-15914229D01*
X38959286Y-15885657D01*
X38959286Y-15628514D01*
X39230714Y-15914229D02*
X39202143Y-15928514D01*
X39145000Y-15928514D01*
X39116428Y-15914229D01*
X39102143Y-15885657D01*
X39102143Y-15771372D01*
X39116428Y-15742800D01*
X39145000Y-15728514D01*
X39202143Y-15728514D01*
X39230714Y-15742800D01*
X39245000Y-15771372D01*
X39245000Y-15799943D01*
X39102143Y-15828514D01*
X39359286Y-15914229D02*
X39387857Y-15928514D01*
X39445000Y-15928514D01*
X39473571Y-15914229D01*
X39487857Y-15885657D01*
X39487857Y-15871372D01*
X39473571Y-15842800D01*
X39445000Y-15828514D01*
X39402143Y-15828514D01*
X39373571Y-15814229D01*
X39359286Y-15785657D01*
X39359286Y-15771372D01*
X39373571Y-15742800D01*
X39402143Y-15728514D01*
X39445000Y-15728514D01*
X39473571Y-15742800D01*
X39587857Y-16042800D02*
X39602143Y-16028514D01*
X39630714Y-15985657D01*
X39645000Y-15957086D01*
X39659286Y-15914229D01*
X39673571Y-15842800D01*
X39673571Y-15785657D01*
X39659286Y-15714229D01*
X39645000Y-15671372D01*
X39630714Y-15642800D01*
X39602143Y-15599943D01*
X39587857Y-15585657D01*
X40130714Y-16042800D02*
X40116428Y-16028514D01*
X40087857Y-15985657D01*
X40073571Y-15957086D01*
X40059286Y-15914229D01*
X40045000Y-15842800D01*
X40045000Y-15785657D01*
X40059286Y-15714229D01*
X40073571Y-15671372D01*
X40087857Y-15642800D01*
X40116428Y-15599943D01*
X40130714Y-15585657D01*
X40245000Y-15728514D02*
X40245000Y-15928514D01*
X40245000Y-15757086D02*
X40259286Y-15742800D01*
X40287857Y-15728514D01*
X40330714Y-15728514D01*
X40359286Y-15742800D01*
X40373571Y-15771372D01*
X40373571Y-15928514D01*
X40559286Y-15928514D02*
X40530714Y-15914229D01*
X40516428Y-15899943D01*
X40502143Y-15871372D01*
X40502143Y-15785657D01*
X40516428Y-15757086D01*
X40530714Y-15742800D01*
X40559286Y-15728514D01*
X40602143Y-15728514D01*
X40630714Y-15742800D01*
X40645000Y-15757086D01*
X40659286Y-15785657D01*
X40659286Y-15871372D01*
X40645000Y-15899943D01*
X40630714Y-15914229D01*
X40602143Y-15928514D01*
X40559286Y-15928514D01*
X40745000Y-15728514D02*
X40859286Y-15728514D01*
X40787857Y-15628514D02*
X40787857Y-15885657D01*
X40802143Y-15914229D01*
X40830714Y-15928514D01*
X40859286Y-15928514D01*
X41187857Y-15728514D02*
X41187857Y-16028514D01*
X41187857Y-15742800D02*
X41216428Y-15728514D01*
X41273571Y-15728514D01*
X41302143Y-15742800D01*
X41316428Y-15757086D01*
X41330714Y-15785657D01*
X41330714Y-15871372D01*
X41316428Y-15899943D01*
X41302143Y-15914229D01*
X41273571Y-15928514D01*
X41216428Y-15928514D01*
X41187857Y-15914229D01*
X41502143Y-15928514D02*
X41473571Y-15914229D01*
X41459286Y-15885657D01*
X41459286Y-15628514D01*
X41745000Y-15928514D02*
X41745000Y-15771372D01*
X41730714Y-15742800D01*
X41702143Y-15728514D01*
X41645000Y-15728514D01*
X41616428Y-15742800D01*
X41745000Y-15914229D02*
X41716428Y-15928514D01*
X41645000Y-15928514D01*
X41616428Y-15914229D01*
X41602143Y-15885657D01*
X41602143Y-15857086D01*
X41616428Y-15828514D01*
X41645000Y-15814229D01*
X41716428Y-15814229D01*
X41745000Y-15799943D01*
X41845000Y-15728514D02*
X41959286Y-15728514D01*
X41887857Y-15628514D02*
X41887857Y-15885657D01*
X41902143Y-15914229D01*
X41930714Y-15928514D01*
X41959286Y-15928514D01*
X42173571Y-15914229D02*
X42145000Y-15928514D01*
X42087857Y-15928514D01*
X42059286Y-15914229D01*
X42045000Y-15885657D01*
X42045000Y-15771372D01*
X42059286Y-15742800D01*
X42087857Y-15728514D01*
X42145000Y-15728514D01*
X42173571Y-15742800D01*
X42187857Y-15771372D01*
X42187857Y-15799943D01*
X42045000Y-15828514D01*
X42445000Y-15928514D02*
X42445000Y-15628514D01*
X42445000Y-15914229D02*
X42416428Y-15928514D01*
X42359286Y-15928514D01*
X42330714Y-15914229D01*
X42316428Y-15899943D01*
X42302143Y-15871372D01*
X42302143Y-15785657D01*
X42316428Y-15757086D01*
X42330714Y-15742800D01*
X42359286Y-15728514D01*
X42416428Y-15728514D01*
X42445000Y-15742800D01*
X42559286Y-16042800D02*
X42573571Y-16028514D01*
X42602143Y-15985657D01*
X42616428Y-15957086D01*
X42630714Y-15914229D01*
X42645000Y-15842800D01*
X42645000Y-15785657D01*
X42630714Y-15714229D01*
X42616428Y-15671372D01*
X42602143Y-15642800D01*
X42573571Y-15599943D01*
X42559286Y-15585657D01*
X32210000Y-16072800D02*
X32530000Y-16392800D01*
X32530000Y-16072800D02*
X32210000Y-16392800D01*
X32530000Y-16232800D02*
G75*
G03*
X32530000Y-16232800I-160000J0D01*
G01*
X32787857Y-16068514D02*
X32973571Y-16068514D01*
X32873571Y-16182800D01*
X32916428Y-16182800D01*
X32945000Y-16197086D01*
X32959285Y-16211372D01*
X32973571Y-16239943D01*
X32973571Y-16311372D01*
X32959285Y-16339943D01*
X32945000Y-16354229D01*
X32916428Y-16368514D01*
X32830714Y-16368514D01*
X32802143Y-16354229D01*
X32787857Y-16339943D01*
X33102143Y-16339943D02*
X33116428Y-16354229D01*
X33102143Y-16368514D01*
X33087857Y-16354229D01*
X33102143Y-16339943D01*
X33102143Y-16368514D01*
X33230714Y-16097086D02*
X33245000Y-16082800D01*
X33273571Y-16068514D01*
X33345000Y-16068514D01*
X33373571Y-16082800D01*
X33387857Y-16097086D01*
X33402143Y-16125657D01*
X33402143Y-16154229D01*
X33387857Y-16197086D01*
X33216428Y-16368514D01*
X33402143Y-16368514D01*
X33587857Y-16068514D02*
X33616428Y-16068514D01*
X33645000Y-16082800D01*
X33659286Y-16097086D01*
X33673571Y-16125657D01*
X33687857Y-16182800D01*
X33687857Y-16254229D01*
X33673571Y-16311372D01*
X33659286Y-16339943D01*
X33645000Y-16354229D01*
X33616428Y-16368514D01*
X33587857Y-16368514D01*
X33559286Y-16354229D01*
X33545000Y-16339943D01*
X33530714Y-16311372D01*
X33516428Y-16254229D01*
X33516428Y-16182800D01*
X33530714Y-16125657D01*
X33545000Y-16097086D01*
X33559286Y-16082800D01*
X33587857Y-16068514D01*
X33873571Y-16068514D02*
X33902143Y-16068514D01*
X33930714Y-16082800D01*
X33945000Y-16097086D01*
X33959286Y-16125657D01*
X33973571Y-16182800D01*
X33973571Y-16254229D01*
X33959286Y-16311372D01*
X33945000Y-16339943D01*
X33930714Y-16354229D01*
X33902143Y-16368514D01*
X33873571Y-16368514D01*
X33845000Y-16354229D01*
X33830714Y-16339943D01*
X33816428Y-16311372D01*
X33802143Y-16254229D01*
X33802143Y-16182800D01*
X33816428Y-16125657D01*
X33830714Y-16097086D01*
X33845000Y-16082800D01*
X33873571Y-16068514D01*
X34102143Y-16368514D02*
X34102143Y-16168514D01*
X34102143Y-16197086D02*
X34116428Y-16182800D01*
X34145000Y-16168514D01*
X34187857Y-16168514D01*
X34216428Y-16182800D01*
X34230714Y-16211372D01*
X34230714Y-16368514D01*
X34230714Y-16211372D02*
X34245000Y-16182800D01*
X34273571Y-16168514D01*
X34316428Y-16168514D01*
X34345000Y-16182800D01*
X34359286Y-16211372D01*
X34359286Y-16368514D01*
X34502143Y-16368514D02*
X34502143Y-16168514D01*
X34502143Y-16197086D02*
X34516428Y-16182800D01*
X34545000Y-16168514D01*
X34587857Y-16168514D01*
X34616428Y-16182800D01*
X34630714Y-16211372D01*
X34630714Y-16368514D01*
X34630714Y-16211372D02*
X34645000Y-16182800D01*
X34673571Y-16168514D01*
X34716428Y-16168514D01*
X34745000Y-16182800D01*
X34759286Y-16211372D01*
X34759286Y-16368514D01*
X35345000Y-16054229D02*
X35087857Y-16439943D01*
X35730714Y-16068514D02*
X35759286Y-16068514D01*
X35787857Y-16082800D01*
X35802143Y-16097086D01*
X35816428Y-16125657D01*
X35830714Y-16182800D01*
X35830714Y-16254229D01*
X35816428Y-16311372D01*
X35802143Y-16339943D01*
X35787857Y-16354229D01*
X35759286Y-16368514D01*
X35730714Y-16368514D01*
X35702143Y-16354229D01*
X35687857Y-16339943D01*
X35673571Y-16311372D01*
X35659286Y-16254229D01*
X35659286Y-16182800D01*
X35673571Y-16125657D01*
X35687857Y-16097086D01*
X35702143Y-16082800D01*
X35730714Y-16068514D01*
X35959286Y-16339943D02*
X35973571Y-16354229D01*
X35959286Y-16368514D01*
X35945000Y-16354229D01*
X35959286Y-16339943D01*
X35959286Y-16368514D01*
X36259286Y-16368514D02*
X36087857Y-16368514D01*
X36173571Y-16368514D02*
X36173571Y-16068514D01*
X36145000Y-16111372D01*
X36116428Y-16139943D01*
X36087857Y-16154229D01*
X36373571Y-16097086D02*
X36387857Y-16082800D01*
X36416428Y-16068514D01*
X36487857Y-16068514D01*
X36516428Y-16082800D01*
X36530714Y-16097086D01*
X36545000Y-16125657D01*
X36545000Y-16154229D01*
X36530714Y-16197086D01*
X36359286Y-16368514D01*
X36545000Y-16368514D01*
X36802143Y-16068514D02*
X36745000Y-16068514D01*
X36716428Y-16082800D01*
X36702143Y-16097086D01*
X36673571Y-16139943D01*
X36659286Y-16197086D01*
X36659286Y-16311372D01*
X36673571Y-16339943D01*
X36687857Y-16354229D01*
X36716428Y-16368514D01*
X36773571Y-16368514D01*
X36802143Y-16354229D01*
X36816428Y-16339943D01*
X36830714Y-16311372D01*
X36830714Y-16239943D01*
X36816428Y-16211372D01*
X36802143Y-16197086D01*
X36773571Y-16182800D01*
X36716428Y-16182800D01*
X36687857Y-16197086D01*
X36673571Y-16211372D01*
X36659286Y-16239943D01*
X37016428Y-16068514D02*
X37045000Y-16068514D01*
X37073571Y-16082800D01*
X37087857Y-16097086D01*
X37102143Y-16125657D01*
X37116428Y-16182800D01*
X37116428Y-16254229D01*
X37102143Y-16311372D01*
X37087857Y-16339943D01*
X37073571Y-16354229D01*
X37045000Y-16368514D01*
X37016428Y-16368514D01*
X36987857Y-16354229D01*
X36973571Y-16339943D01*
X36959286Y-16311372D01*
X36945000Y-16254229D01*
X36945000Y-16182800D01*
X36959286Y-16125657D01*
X36973571Y-16097086D01*
X36987857Y-16082800D01*
X37016428Y-16068514D01*
X37230714Y-16068514D02*
X37230714Y-16125657D01*
X37345000Y-16068514D02*
X37345000Y-16125657D01*
X37787857Y-16482800D02*
X37773571Y-16468514D01*
X37745000Y-16425657D01*
X37730714Y-16397086D01*
X37716428Y-16354229D01*
X37702143Y-16282800D01*
X37702143Y-16225657D01*
X37716428Y-16154229D01*
X37730714Y-16111372D01*
X37745000Y-16082800D01*
X37773571Y-16039943D01*
X37787857Y-16025657D01*
X38030714Y-16068514D02*
X37973571Y-16068514D01*
X37945000Y-16082800D01*
X37930714Y-16097086D01*
X37902143Y-16139943D01*
X37887857Y-16197086D01*
X37887857Y-16311372D01*
X37902143Y-16339943D01*
X37916428Y-16354229D01*
X37945000Y-16368514D01*
X38002143Y-16368514D01*
X38030714Y-16354229D01*
X38045000Y-16339943D01*
X38059286Y-16311372D01*
X38059286Y-16239943D01*
X38045000Y-16211372D01*
X38030714Y-16197086D01*
X38002143Y-16182800D01*
X37945000Y-16182800D01*
X37916428Y-16197086D01*
X37902143Y-16211372D01*
X37887857Y-16239943D01*
X38416428Y-16368514D02*
X38416428Y-16068514D01*
X38545000Y-16368514D02*
X38545000Y-16211372D01*
X38530714Y-16182800D01*
X38502143Y-16168514D01*
X38459286Y-16168514D01*
X38430714Y-16182800D01*
X38416428Y-16197086D01*
X38730714Y-16368514D02*
X38702143Y-16354229D01*
X38687857Y-16339943D01*
X38673571Y-16311372D01*
X38673571Y-16225657D01*
X38687857Y-16197086D01*
X38702143Y-16182800D01*
X38730714Y-16168514D01*
X38773571Y-16168514D01*
X38802143Y-16182800D01*
X38816428Y-16197086D01*
X38830714Y-16225657D01*
X38830714Y-16311372D01*
X38816428Y-16339943D01*
X38802143Y-16354229D01*
X38773571Y-16368514D01*
X38730714Y-16368514D01*
X39002143Y-16368514D02*
X38973571Y-16354229D01*
X38959286Y-16325657D01*
X38959286Y-16068514D01*
X39230714Y-16354229D02*
X39202143Y-16368514D01*
X39145000Y-16368514D01*
X39116428Y-16354229D01*
X39102143Y-16325657D01*
X39102143Y-16211372D01*
X39116428Y-16182800D01*
X39145000Y-16168514D01*
X39202143Y-16168514D01*
X39230714Y-16182800D01*
X39245000Y-16211372D01*
X39245000Y-16239943D01*
X39102143Y-16268514D01*
X39359286Y-16354229D02*
X39387857Y-16368514D01*
X39445000Y-16368514D01*
X39473571Y-16354229D01*
X39487857Y-16325657D01*
X39487857Y-16311372D01*
X39473571Y-16282800D01*
X39445000Y-16268514D01*
X39402143Y-16268514D01*
X39373571Y-16254229D01*
X39359286Y-16225657D01*
X39359286Y-16211372D01*
X39373571Y-16182800D01*
X39402143Y-16168514D01*
X39445000Y-16168514D01*
X39473571Y-16182800D01*
X39587857Y-16482800D02*
X39602143Y-16468514D01*
X39630714Y-16425657D01*
X39645000Y-16397086D01*
X39659286Y-16354229D01*
X39673571Y-16282800D01*
X39673571Y-16225657D01*
X39659286Y-16154229D01*
X39645000Y-16111372D01*
X39630714Y-16082800D01*
X39602143Y-16039943D01*
X39587857Y-16025657D01*
X40130714Y-16482800D02*
X40116428Y-16468514D01*
X40087857Y-16425657D01*
X40073571Y-16397086D01*
X40059286Y-16354229D01*
X40045000Y-16282800D01*
X40045000Y-16225657D01*
X40059286Y-16154229D01*
X40073571Y-16111372D01*
X40087857Y-16082800D01*
X40116428Y-16039943D01*
X40130714Y-16025657D01*
X40245000Y-16168514D02*
X40245000Y-16368514D01*
X40245000Y-16197086D02*
X40259286Y-16182800D01*
X40287857Y-16168514D01*
X40330714Y-16168514D01*
X40359286Y-16182800D01*
X40373571Y-16211372D01*
X40373571Y-16368514D01*
X40559286Y-16368514D02*
X40530714Y-16354229D01*
X40516428Y-16339943D01*
X40502143Y-16311372D01*
X40502143Y-16225657D01*
X40516428Y-16197086D01*
X40530714Y-16182800D01*
X40559286Y-16168514D01*
X40602143Y-16168514D01*
X40630714Y-16182800D01*
X40645000Y-16197086D01*
X40659286Y-16225657D01*
X40659286Y-16311372D01*
X40645000Y-16339943D01*
X40630714Y-16354229D01*
X40602143Y-16368514D01*
X40559286Y-16368514D01*
X40745000Y-16168514D02*
X40859286Y-16168514D01*
X40787857Y-16068514D02*
X40787857Y-16325657D01*
X40802143Y-16354229D01*
X40830714Y-16368514D01*
X40859286Y-16368514D01*
X41187857Y-16168514D02*
X41187857Y-16468514D01*
X41187857Y-16182800D02*
X41216428Y-16168514D01*
X41273571Y-16168514D01*
X41302143Y-16182800D01*
X41316428Y-16197086D01*
X41330714Y-16225657D01*
X41330714Y-16311372D01*
X41316428Y-16339943D01*
X41302143Y-16354229D01*
X41273571Y-16368514D01*
X41216428Y-16368514D01*
X41187857Y-16354229D01*
X41502143Y-16368514D02*
X41473571Y-16354229D01*
X41459286Y-16325657D01*
X41459286Y-16068514D01*
X41745000Y-16368514D02*
X41745000Y-16211372D01*
X41730714Y-16182800D01*
X41702143Y-16168514D01*
X41645000Y-16168514D01*
X41616428Y-16182800D01*
X41745000Y-16354229D02*
X41716428Y-16368514D01*
X41645000Y-16368514D01*
X41616428Y-16354229D01*
X41602143Y-16325657D01*
X41602143Y-16297086D01*
X41616428Y-16268514D01*
X41645000Y-16254229D01*
X41716428Y-16254229D01*
X41745000Y-16239943D01*
X41845000Y-16168514D02*
X41959286Y-16168514D01*
X41887857Y-16068514D02*
X41887857Y-16325657D01*
X41902143Y-16354229D01*
X41930714Y-16368514D01*
X41959286Y-16368514D01*
X42173571Y-16354229D02*
X42145000Y-16368514D01*
X42087857Y-16368514D01*
X42059286Y-16354229D01*
X42045000Y-16325657D01*
X42045000Y-16211372D01*
X42059286Y-16182800D01*
X42087857Y-16168514D01*
X42145000Y-16168514D01*
X42173571Y-16182800D01*
X42187857Y-16211372D01*
X42187857Y-16239943D01*
X42045000Y-16268514D01*
X42445000Y-16368514D02*
X42445000Y-16068514D01*
X42445000Y-16354229D02*
X42416428Y-16368514D01*
X42359286Y-16368514D01*
X42330714Y-16354229D01*
X42316428Y-16339943D01*
X42302143Y-16311372D01*
X42302143Y-16225657D01*
X42316428Y-16197086D01*
X42330714Y-16182800D01*
X42359286Y-16168514D01*
X42416428Y-16168514D01*
X42445000Y-16182800D01*
X42559286Y-16482800D02*
X42573571Y-16468514D01*
X42602143Y-16425657D01*
X42616428Y-16397086D01*
X42630714Y-16354229D01*
X42645000Y-16282800D01*
X42645000Y-16225657D01*
X42630714Y-16154229D01*
X42616428Y-16111372D01*
X42602143Y-16082800D01*
X42573571Y-16039943D01*
X42559286Y-16025657D01*
X32131220Y-16483410D02*
X32530000Y-16882190D01*
X32530000Y-16483410D02*
X32131220Y-16882190D01*
X32330610Y-16483410D02*
X32330610Y-16882190D01*
X32131220Y-16682800D02*
X32530000Y-16682800D01*
X32787857Y-16518514D02*
X32973571Y-16518514D01*
X32873571Y-16632800D01*
X32916428Y-16632800D01*
X32945000Y-16647086D01*
X32959285Y-16661372D01*
X32973571Y-16689943D01*
X32973571Y-16761372D01*
X32959285Y-16789943D01*
X32945000Y-16804229D01*
X32916428Y-16818514D01*
X32830714Y-16818514D01*
X32802143Y-16804229D01*
X32787857Y-16789943D01*
X33102143Y-16789943D02*
X33116428Y-16804229D01*
X33102143Y-16818514D01*
X33087857Y-16804229D01*
X33102143Y-16789943D01*
X33102143Y-16818514D01*
X33259285Y-16818514D02*
X33316428Y-16818514D01*
X33345000Y-16804229D01*
X33359285Y-16789943D01*
X33387857Y-16747086D01*
X33402143Y-16689943D01*
X33402143Y-16575657D01*
X33387857Y-16547086D01*
X33373571Y-16532800D01*
X33345000Y-16518514D01*
X33287857Y-16518514D01*
X33259285Y-16532800D01*
X33245000Y-16547086D01*
X33230714Y-16575657D01*
X33230714Y-16647086D01*
X33245000Y-16675657D01*
X33259285Y-16689943D01*
X33287857Y-16704229D01*
X33345000Y-16704229D01*
X33373571Y-16689943D01*
X33387857Y-16675657D01*
X33402143Y-16647086D01*
X33573571Y-16647086D02*
X33545000Y-16632800D01*
X33530714Y-16618514D01*
X33516428Y-16589943D01*
X33516428Y-16575657D01*
X33530714Y-16547086D01*
X33545000Y-16532800D01*
X33573571Y-16518514D01*
X33630714Y-16518514D01*
X33659286Y-16532800D01*
X33673571Y-16547086D01*
X33687857Y-16575657D01*
X33687857Y-16589943D01*
X33673571Y-16618514D01*
X33659286Y-16632800D01*
X33630714Y-16647086D01*
X33573571Y-16647086D01*
X33545000Y-16661372D01*
X33530714Y-16675657D01*
X33516428Y-16704229D01*
X33516428Y-16761372D01*
X33530714Y-16789943D01*
X33545000Y-16804229D01*
X33573571Y-16818514D01*
X33630714Y-16818514D01*
X33659286Y-16804229D01*
X33673571Y-16789943D01*
X33687857Y-16761372D01*
X33687857Y-16704229D01*
X33673571Y-16675657D01*
X33659286Y-16661372D01*
X33630714Y-16647086D01*
X33859286Y-16647086D02*
X33830714Y-16632800D01*
X33816428Y-16618514D01*
X33802143Y-16589943D01*
X33802143Y-16575657D01*
X33816428Y-16547086D01*
X33830714Y-16532800D01*
X33859286Y-16518514D01*
X33916428Y-16518514D01*
X33945000Y-16532800D01*
X33959286Y-16547086D01*
X33973571Y-16575657D01*
X33973571Y-16589943D01*
X33959286Y-16618514D01*
X33945000Y-16632800D01*
X33916428Y-16647086D01*
X33859286Y-16647086D01*
X33830714Y-16661372D01*
X33816428Y-16675657D01*
X33802143Y-16704229D01*
X33802143Y-16761372D01*
X33816428Y-16789943D01*
X33830714Y-16804229D01*
X33859286Y-16818514D01*
X33916428Y-16818514D01*
X33945000Y-16804229D01*
X33959286Y-16789943D01*
X33973571Y-16761372D01*
X33973571Y-16704229D01*
X33959286Y-16675657D01*
X33945000Y-16661372D01*
X33916428Y-16647086D01*
X34102143Y-16818514D02*
X34102143Y-16618514D01*
X34102143Y-16647086D02*
X34116428Y-16632800D01*
X34145000Y-16618514D01*
X34187857Y-16618514D01*
X34216428Y-16632800D01*
X34230714Y-16661372D01*
X34230714Y-16818514D01*
X34230714Y-16661372D02*
X34245000Y-16632800D01*
X34273571Y-16618514D01*
X34316428Y-16618514D01*
X34345000Y-16632800D01*
X34359286Y-16661372D01*
X34359286Y-16818514D01*
X34502143Y-16818514D02*
X34502143Y-16618514D01*
X34502143Y-16647086D02*
X34516428Y-16632800D01*
X34545000Y-16618514D01*
X34587857Y-16618514D01*
X34616428Y-16632800D01*
X34630714Y-16661372D01*
X34630714Y-16818514D01*
X34630714Y-16661372D02*
X34645000Y-16632800D01*
X34673571Y-16618514D01*
X34716428Y-16618514D01*
X34745000Y-16632800D01*
X34759286Y-16661372D01*
X34759286Y-16818514D01*
X35345000Y-16504229D02*
X35087857Y-16889943D01*
X35730714Y-16518514D02*
X35759286Y-16518514D01*
X35787857Y-16532800D01*
X35802143Y-16547086D01*
X35816428Y-16575657D01*
X35830714Y-16632800D01*
X35830714Y-16704229D01*
X35816428Y-16761372D01*
X35802143Y-16789943D01*
X35787857Y-16804229D01*
X35759286Y-16818514D01*
X35730714Y-16818514D01*
X35702143Y-16804229D01*
X35687857Y-16789943D01*
X35673571Y-16761372D01*
X35659286Y-16704229D01*
X35659286Y-16632800D01*
X35673571Y-16575657D01*
X35687857Y-16547086D01*
X35702143Y-16532800D01*
X35730714Y-16518514D01*
X35959286Y-16789943D02*
X35973571Y-16804229D01*
X35959286Y-16818514D01*
X35945000Y-16804229D01*
X35959286Y-16789943D01*
X35959286Y-16818514D01*
X36259286Y-16818514D02*
X36087857Y-16818514D01*
X36173571Y-16818514D02*
X36173571Y-16518514D01*
X36145000Y-16561372D01*
X36116428Y-16589943D01*
X36087857Y-16604229D01*
X36530714Y-16518514D02*
X36387857Y-16518514D01*
X36373571Y-16661372D01*
X36387857Y-16647086D01*
X36416428Y-16632800D01*
X36487857Y-16632800D01*
X36516428Y-16647086D01*
X36530714Y-16661372D01*
X36545000Y-16689943D01*
X36545000Y-16761372D01*
X36530714Y-16789943D01*
X36516428Y-16804229D01*
X36487857Y-16818514D01*
X36416428Y-16818514D01*
X36387857Y-16804229D01*
X36373571Y-16789943D01*
X36645000Y-16518514D02*
X36845000Y-16518514D01*
X36716428Y-16818514D01*
X37016428Y-16518514D02*
X37045000Y-16518514D01*
X37073571Y-16532800D01*
X37087857Y-16547086D01*
X37102143Y-16575657D01*
X37116428Y-16632800D01*
X37116428Y-16704229D01*
X37102143Y-16761372D01*
X37087857Y-16789943D01*
X37073571Y-16804229D01*
X37045000Y-16818514D01*
X37016428Y-16818514D01*
X36987857Y-16804229D01*
X36973571Y-16789943D01*
X36959286Y-16761372D01*
X36945000Y-16704229D01*
X36945000Y-16632800D01*
X36959286Y-16575657D01*
X36973571Y-16547086D01*
X36987857Y-16532800D01*
X37016428Y-16518514D01*
X37230714Y-16518514D02*
X37230714Y-16575657D01*
X37345000Y-16518514D02*
X37345000Y-16575657D01*
X37787857Y-16932800D02*
X37773571Y-16918514D01*
X37745000Y-16875657D01*
X37730714Y-16847086D01*
X37716428Y-16804229D01*
X37702143Y-16732800D01*
X37702143Y-16675657D01*
X37716428Y-16604229D01*
X37730714Y-16561372D01*
X37745000Y-16532800D01*
X37773571Y-16489943D01*
X37787857Y-16475657D01*
X37887857Y-16547086D02*
X37902143Y-16532800D01*
X37930714Y-16518514D01*
X38002143Y-16518514D01*
X38030714Y-16532800D01*
X38045000Y-16547086D01*
X38059286Y-16575657D01*
X38059286Y-16604229D01*
X38045000Y-16647086D01*
X37873571Y-16818514D01*
X38059286Y-16818514D01*
X38230714Y-16647086D02*
X38202143Y-16632800D01*
X38187857Y-16618514D01*
X38173571Y-16589943D01*
X38173571Y-16575657D01*
X38187857Y-16547086D01*
X38202143Y-16532800D01*
X38230714Y-16518514D01*
X38287857Y-16518514D01*
X38316428Y-16532800D01*
X38330714Y-16547086D01*
X38345000Y-16575657D01*
X38345000Y-16589943D01*
X38330714Y-16618514D01*
X38316428Y-16632800D01*
X38287857Y-16647086D01*
X38230714Y-16647086D01*
X38202143Y-16661372D01*
X38187857Y-16675657D01*
X38173571Y-16704229D01*
X38173571Y-16761372D01*
X38187857Y-16789943D01*
X38202143Y-16804229D01*
X38230714Y-16818514D01*
X38287857Y-16818514D01*
X38316428Y-16804229D01*
X38330714Y-16789943D01*
X38345000Y-16761372D01*
X38345000Y-16704229D01*
X38330714Y-16675657D01*
X38316428Y-16661372D01*
X38287857Y-16647086D01*
X38702143Y-16818514D02*
X38702143Y-16518514D01*
X38830714Y-16818514D02*
X38830714Y-16661372D01*
X38816428Y-16632800D01*
X38787857Y-16618514D01*
X38745000Y-16618514D01*
X38716428Y-16632800D01*
X38702143Y-16647086D01*
X39016428Y-16818514D02*
X38987857Y-16804229D01*
X38973571Y-16789943D01*
X38959286Y-16761372D01*
X38959286Y-16675657D01*
X38973571Y-16647086D01*
X38987857Y-16632800D01*
X39016428Y-16618514D01*
X39059286Y-16618514D01*
X39087857Y-16632800D01*
X39102143Y-16647086D01*
X39116428Y-16675657D01*
X39116428Y-16761372D01*
X39102143Y-16789943D01*
X39087857Y-16804229D01*
X39059286Y-16818514D01*
X39016428Y-16818514D01*
X39287857Y-16818514D02*
X39259286Y-16804229D01*
X39245000Y-16775657D01*
X39245000Y-16518514D01*
X39516428Y-16804229D02*
X39487857Y-16818514D01*
X39430714Y-16818514D01*
X39402143Y-16804229D01*
X39387857Y-16775657D01*
X39387857Y-16661372D01*
X39402143Y-16632800D01*
X39430714Y-16618514D01*
X39487857Y-16618514D01*
X39516428Y-16632800D01*
X39530714Y-16661372D01*
X39530714Y-16689943D01*
X39387857Y-16718514D01*
X39645000Y-16804229D02*
X39673571Y-16818514D01*
X39730714Y-16818514D01*
X39759286Y-16804229D01*
X39773571Y-16775657D01*
X39773571Y-16761372D01*
X39759286Y-16732800D01*
X39730714Y-16718514D01*
X39687857Y-16718514D01*
X39659286Y-16704229D01*
X39645000Y-16675657D01*
X39645000Y-16661372D01*
X39659286Y-16632800D01*
X39687857Y-16618514D01*
X39730714Y-16618514D01*
X39759286Y-16632800D01*
X39873571Y-16932800D02*
X39887857Y-16918514D01*
X39916428Y-16875657D01*
X39930714Y-16847086D01*
X39945000Y-16804229D01*
X39959286Y-16732800D01*
X39959286Y-16675657D01*
X39945000Y-16604229D01*
X39930714Y-16561372D01*
X39916428Y-16532800D01*
X39887857Y-16489943D01*
X39873571Y-16475657D01*
X40416428Y-16932800D02*
X40402143Y-16918514D01*
X40373571Y-16875657D01*
X40359286Y-16847086D01*
X40345000Y-16804229D01*
X40330714Y-16732800D01*
X40330714Y-16675657D01*
X40345000Y-16604229D01*
X40359286Y-16561372D01*
X40373571Y-16532800D01*
X40402143Y-16489943D01*
X40416428Y-16475657D01*
X40530714Y-16618514D02*
X40530714Y-16818514D01*
X40530714Y-16647086D02*
X40545000Y-16632800D01*
X40573571Y-16618514D01*
X40616428Y-16618514D01*
X40645000Y-16632800D01*
X40659286Y-16661372D01*
X40659286Y-16818514D01*
X40845000Y-16818514D02*
X40816428Y-16804229D01*
X40802143Y-16789943D01*
X40787857Y-16761372D01*
X40787857Y-16675657D01*
X40802143Y-16647086D01*
X40816428Y-16632800D01*
X40845000Y-16618514D01*
X40887857Y-16618514D01*
X40916428Y-16632800D01*
X40930714Y-16647086D01*
X40945000Y-16675657D01*
X40945000Y-16761372D01*
X40930714Y-16789943D01*
X40916428Y-16804229D01*
X40887857Y-16818514D01*
X40845000Y-16818514D01*
X41030714Y-16618514D02*
X41145000Y-16618514D01*
X41073571Y-16518514D02*
X41073571Y-16775657D01*
X41087857Y-16804229D01*
X41116428Y-16818514D01*
X41145000Y-16818514D01*
X41473571Y-16618514D02*
X41473571Y-16918514D01*
X41473571Y-16632800D02*
X41502143Y-16618514D01*
X41559286Y-16618514D01*
X41587857Y-16632800D01*
X41602143Y-16647086D01*
X41616428Y-16675657D01*
X41616428Y-16761372D01*
X41602143Y-16789943D01*
X41587857Y-16804229D01*
X41559286Y-16818514D01*
X41502143Y-16818514D01*
X41473571Y-16804229D01*
X41787857Y-16818514D02*
X41759286Y-16804229D01*
X41745000Y-16775657D01*
X41745000Y-16518514D01*
X42030714Y-16818514D02*
X42030714Y-16661372D01*
X42016428Y-16632800D01*
X41987857Y-16618514D01*
X41930714Y-16618514D01*
X41902143Y-16632800D01*
X42030714Y-16804229D02*
X42002143Y-16818514D01*
X41930714Y-16818514D01*
X41902143Y-16804229D01*
X41887857Y-16775657D01*
X41887857Y-16747086D01*
X41902143Y-16718514D01*
X41930714Y-16704229D01*
X42002143Y-16704229D01*
X42030714Y-16689943D01*
X42130714Y-16618514D02*
X42245000Y-16618514D01*
X42173571Y-16518514D02*
X42173571Y-16775657D01*
X42187857Y-16804229D01*
X42216428Y-16818514D01*
X42245000Y-16818514D01*
X42459286Y-16804229D02*
X42430714Y-16818514D01*
X42373571Y-16818514D01*
X42345000Y-16804229D01*
X42330714Y-16775657D01*
X42330714Y-16661372D01*
X42345000Y-16632800D01*
X42373571Y-16618514D01*
X42430714Y-16618514D01*
X42459286Y-16632800D01*
X42473571Y-16661372D01*
X42473571Y-16689943D01*
X42330714Y-16718514D01*
X42730714Y-16818514D02*
X42730714Y-16518514D01*
X42730714Y-16804229D02*
X42702143Y-16818514D01*
X42645000Y-16818514D01*
X42616428Y-16804229D01*
X42602143Y-16789943D01*
X42587857Y-16761372D01*
X42587857Y-16675657D01*
X42602143Y-16647086D01*
X42616428Y-16632800D01*
X42645000Y-16618514D01*
X42702143Y-16618514D01*
X42730714Y-16632800D01*
X42845000Y-16932800D02*
X42859286Y-16918514D01*
X42887857Y-16875657D01*
X42902143Y-16847086D01*
X42916428Y-16804229D01*
X42930714Y-16732800D01*
X42930714Y-16675657D01*
X42916428Y-16604229D01*
X42902143Y-16561372D01*
X42887857Y-16532800D01*
X42859286Y-16489943D01*
X42845000Y-16475657D01*
M02*
