%FSLAX45Y45*%
G04 Gerber Fmt 4.5, Leading zero omitted, Abs format (unit mm)*
G04 Created by KiCad (PCBNEW (5.1.10-1-10_14)) date 2021-11-02 16:23:37*
%MOMM*%
%LPD*%
G01*
G04 APERTURE LIST*
%TA.AperFunction,Profile*%
%ADD10C,0.200000*%
%TD*%
%ADD11C,0.200000*%
%ADD12C,0.300000*%
G04 APERTURE END LIST*
D10*
X32540000Y-2850000D02*
X32540000Y-9385787D01*
X32540000Y-2850000D02*
G75*
G02*
X33040000Y-2350000I500000J0D01*
G01*
X51558322Y-9367232D02*
G75*
G02*
X51704784Y-9720765I-353538J-353569D01*
G01*
X51705000Y-12700000D02*
X51704784Y-9720765D01*
X32832893Y-10092893D02*
G75*
G02*
X32540000Y-9385787I707107J707107D01*
G01*
X36354213Y-13200000D02*
G75*
G02*
X35647107Y-12907107I0J1000000D01*
G01*
X50425079Y-8234091D02*
G75*
G02*
X50425194Y-7385563I424322J424207D01*
G01*
X51558322Y-9367232D02*
X50425079Y-8234091D01*
X48488142Y-2507182D02*
X48418828Y-2437868D01*
X48700274Y-2595050D02*
G75*
G02*
X48488142Y-2507182I0J300000D01*
G01*
X49513746Y-2595050D02*
X48700274Y-2595050D01*
X49725878Y-2507182D02*
G75*
G02*
X49513746Y-2595050I-212132J212132D01*
G01*
X49795192Y-2437868D02*
X49725878Y-2507182D01*
X49795192Y-2437868D02*
G75*
G02*
X50007324Y-2350000I212132J-212132D01*
G01*
X51205000Y-2350000D02*
X50007324Y-2350000D01*
X51205000Y-2350000D02*
G75*
G02*
X51705000Y-2850000I0J-500000D01*
G01*
X48206696Y-2350000D02*
G75*
G02*
X48418828Y-2437868I0J-300000D01*
G01*
X48206696Y-2350000D02*
X33040000Y-2350000D01*
X32832893Y-10092893D02*
X35647107Y-12907107D01*
X51705000Y-12700000D02*
G75*
G02*
X51205000Y-13200000I-500000J0D01*
G01*
X36354214Y-13200000D02*
X51205000Y-13200000D01*
X51705000Y-5898957D02*
X51705000Y-2850000D01*
X51705000Y-5898957D02*
G75*
G02*
X51558506Y-6252558I-500000J0D01*
G01*
X50425194Y-7385563D02*
X51558506Y-6252558D01*
D11*
X37020470Y-3442470D02*
X37119530Y-3541530D01*
X37119530Y-3442470D02*
X37020470Y-3541530D01*
X37020470Y-4458470D02*
X37119530Y-4557530D01*
X37119530Y-4458470D02*
X37020470Y-4557530D01*
X37020470Y-5347470D02*
X37119530Y-5446530D01*
X37119530Y-5347470D02*
X37020470Y-5446530D01*
X37020470Y-6363470D02*
X37119530Y-6462530D01*
X37119530Y-6363470D02*
X37020470Y-6462530D01*
X37020470Y-7252470D02*
X37119530Y-7351530D01*
X37119530Y-7252470D02*
X37020470Y-7351530D01*
X37020470Y-8268470D02*
X37119530Y-8367530D01*
X37119530Y-8268470D02*
X37020470Y-8367530D01*
X37020470Y-9157470D02*
X37119530Y-9256530D01*
X37119530Y-9157470D02*
X37020470Y-9256530D01*
X37020470Y-10173470D02*
X37119530Y-10272530D01*
X37119530Y-10173470D02*
X37020470Y-10272530D01*
X37020470Y-11062470D02*
X37119530Y-11161530D01*
X37119530Y-11062470D02*
X37020470Y-11161530D01*
X37020470Y-12078470D02*
X37119530Y-12177530D01*
X37119530Y-12078470D02*
X37020470Y-12177530D01*
X38925470Y-3442470D02*
X39024530Y-3541530D01*
X39024530Y-3442470D02*
X38925470Y-3541530D01*
X38925470Y-4458470D02*
X39024530Y-4557530D01*
X39024530Y-4458470D02*
X38925470Y-4557530D01*
X38925470Y-5347470D02*
X39024530Y-5446530D01*
X39024530Y-5347470D02*
X38925470Y-5446530D01*
X38925470Y-6363470D02*
X39024530Y-6462530D01*
X39024530Y-6363470D02*
X38925470Y-6462530D01*
X38925470Y-7252470D02*
X39024530Y-7351530D01*
X39024530Y-7252470D02*
X38925470Y-7351530D01*
X38925470Y-8268470D02*
X39024530Y-8367530D01*
X39024530Y-8268470D02*
X38925470Y-8367530D01*
X38925470Y-11062470D02*
X39024530Y-11161530D01*
X39024530Y-11062470D02*
X38925470Y-11161530D01*
X38925470Y-12078470D02*
X39024530Y-12177530D01*
X39024530Y-12078470D02*
X38925470Y-12177530D01*
X40830470Y-3442470D02*
X40929530Y-3541530D01*
X40929530Y-3442470D02*
X40830470Y-3541530D01*
X40830470Y-4458470D02*
X40929530Y-4557530D01*
X40929530Y-4458470D02*
X40830470Y-4557530D01*
X40830470Y-5347470D02*
X40929530Y-5446530D01*
X40929530Y-5347470D02*
X40830470Y-5446530D01*
X40830470Y-6363470D02*
X40929530Y-6462530D01*
X40929530Y-6363470D02*
X40830470Y-6462530D01*
X40830470Y-7252470D02*
X40929530Y-7351530D01*
X40929530Y-7252470D02*
X40830470Y-7351530D01*
X40830470Y-8268470D02*
X40929530Y-8367530D01*
X40929530Y-8268470D02*
X40830470Y-8367530D01*
X40830470Y-9157470D02*
X40929530Y-9256530D01*
X40929530Y-9157470D02*
X40830470Y-9256530D01*
X40830470Y-10173470D02*
X40929530Y-10272530D01*
X40929530Y-10173470D02*
X40830470Y-10272530D01*
X40830470Y-11062470D02*
X40929530Y-11161530D01*
X40929530Y-11062470D02*
X40830470Y-11161530D01*
X40830470Y-12078470D02*
X40929530Y-12177530D01*
X40929530Y-12078470D02*
X40830470Y-12177530D01*
X42735470Y-3442470D02*
X42834530Y-3541530D01*
X42834530Y-3442470D02*
X42735470Y-3541530D01*
X42735470Y-4458470D02*
X42834530Y-4557530D01*
X42834530Y-4458470D02*
X42735470Y-4557530D01*
X42735470Y-5347470D02*
X42834530Y-5446530D01*
X42834530Y-5347470D02*
X42735470Y-5446530D01*
X42735470Y-6363470D02*
X42834530Y-6462530D01*
X42834530Y-6363470D02*
X42735470Y-6462530D01*
X42735470Y-7252470D02*
X42834530Y-7351530D01*
X42834530Y-7252470D02*
X42735470Y-7351530D01*
X42735470Y-8268470D02*
X42834530Y-8367530D01*
X42834530Y-8268470D02*
X42735470Y-8367530D01*
X42735470Y-9157470D02*
X42834530Y-9256530D01*
X42834530Y-9157470D02*
X42735470Y-9256530D01*
X42735470Y-10173470D02*
X42834530Y-10272530D01*
X42834530Y-10173470D02*
X42735470Y-10272530D01*
X42735470Y-11062470D02*
X42834530Y-11161530D01*
X42834530Y-11062470D02*
X42735470Y-11161530D01*
X42735470Y-12078470D02*
X42834530Y-12177530D01*
X42834530Y-12078470D02*
X42735470Y-12177530D01*
X44640470Y-3442470D02*
X44739530Y-3541530D01*
X44739530Y-3442470D02*
X44640470Y-3541530D01*
X44640470Y-4458470D02*
X44739530Y-4557530D01*
X44739530Y-4458470D02*
X44640470Y-4557530D01*
X44640470Y-5347470D02*
X44739530Y-5446530D01*
X44739530Y-5347470D02*
X44640470Y-5446530D01*
X44640470Y-6363470D02*
X44739530Y-6462530D01*
X44739530Y-6363470D02*
X44640470Y-6462530D01*
X44640470Y-7252470D02*
X44739530Y-7351530D01*
X44739530Y-7252470D02*
X44640470Y-7351530D01*
X44640470Y-8268470D02*
X44739530Y-8367530D01*
X44739530Y-8268470D02*
X44640470Y-8367530D01*
X44640470Y-9157470D02*
X44739530Y-9256530D01*
X44739530Y-9157470D02*
X44640470Y-9256530D01*
X44640470Y-10173470D02*
X44739530Y-10272530D01*
X44739530Y-10173470D02*
X44640470Y-10272530D01*
X34441447Y-9361053D02*
G75*
G03*
X34441447Y-9361053I-50000J0D01*
G01*
X34618223Y-9184277D02*
G75*
G03*
X34618223Y-9184277I-50000J0D01*
G01*
X34795000Y-9007500D02*
G75*
G03*
X34795000Y-9007500I-50000J0D01*
G01*
X35466751Y-10386358D02*
G75*
G03*
X35466751Y-10386358I-50000J0D01*
G01*
X35820305Y-10032805D02*
G75*
G03*
X35820305Y-10032805I-50000J0D01*
G01*
X48905000Y-10920000D02*
G75*
G03*
X48905000Y-10920000I-50000J0D01*
G01*
X48905000Y-12370000D02*
G75*
G03*
X48905000Y-12370000I-50000J0D01*
G01*
X49155000Y-12370000D02*
G75*
G03*
X49155000Y-12370000I-50000J0D01*
G01*
X49405000Y-10920000D02*
G75*
G03*
X49405000Y-10920000I-50000J0D01*
G01*
X49405000Y-12370000D02*
G75*
G03*
X49405000Y-12370000I-50000J0D01*
G01*
X34211000Y-2396000D02*
X34211000Y-2498000D01*
X34160000Y-2447000D02*
X34262000Y-2447000D01*
X34211000Y-2650000D02*
X34211000Y-2752000D01*
X34160000Y-2701000D02*
X34262000Y-2701000D01*
X34211000Y-2904000D02*
X34211000Y-3006000D01*
X34160000Y-2955000D02*
X34262000Y-2955000D01*
X34211000Y-3158000D02*
X34211000Y-3260000D01*
X34160000Y-3209000D02*
X34262000Y-3209000D01*
X34211000Y-3412000D02*
X34211000Y-3514000D01*
X34160000Y-3463000D02*
X34262000Y-3463000D01*
X34211000Y-3666000D02*
X34211000Y-3768000D01*
X34160000Y-3717000D02*
X34262000Y-3717000D01*
X34211000Y-3920000D02*
X34211000Y-4022000D01*
X34160000Y-3971000D02*
X34262000Y-3971000D01*
X34211000Y-4174000D02*
X34211000Y-4276000D01*
X34160000Y-4225000D02*
X34262000Y-4225000D01*
X34211000Y-4428000D02*
X34211000Y-4530000D01*
X34160000Y-4479000D02*
X34262000Y-4479000D01*
X34211000Y-4682000D02*
X34211000Y-4784000D01*
X34160000Y-4733000D02*
X34262000Y-4733000D01*
X34211000Y-4936000D02*
X34211000Y-5038000D01*
X34160000Y-4987000D02*
X34262000Y-4987000D01*
X34211000Y-5190000D02*
X34211000Y-5292000D01*
X34160000Y-5241000D02*
X34262000Y-5241000D01*
X34211000Y-5444000D02*
X34211000Y-5546000D01*
X34160000Y-5495000D02*
X34262000Y-5495000D01*
X34211000Y-5698000D02*
X34211000Y-5800000D01*
X34160000Y-5749000D02*
X34262000Y-5749000D01*
X34211000Y-5952000D02*
X34211000Y-6054000D01*
X34160000Y-6003000D02*
X34262000Y-6003000D01*
X34211000Y-6206000D02*
X34211000Y-6308000D01*
X34160000Y-6257000D02*
X34262000Y-6257000D01*
X34211000Y-6460000D02*
X34211000Y-6562000D01*
X34160000Y-6511000D02*
X34262000Y-6511000D01*
X34211000Y-6714000D02*
X34211000Y-6816000D01*
X34160000Y-6765000D02*
X34262000Y-6765000D01*
X34211000Y-6968000D02*
X34211000Y-7070000D01*
X34160000Y-7019000D02*
X34262000Y-7019000D01*
X34211000Y-7222000D02*
X34211000Y-7324000D01*
X34160000Y-7273000D02*
X34262000Y-7273000D01*
X34846000Y-7199000D02*
X34846000Y-7301000D01*
X34795000Y-7250000D02*
X34897000Y-7250000D01*
X35100000Y-7199000D02*
X35100000Y-7301000D01*
X35049000Y-7250000D02*
X35151000Y-7250000D01*
X35354000Y-7199000D02*
X35354000Y-7301000D01*
X35303000Y-7250000D02*
X35405000Y-7250000D01*
X35989000Y-2396000D02*
X35989000Y-2498000D01*
X35938000Y-2447000D02*
X36040000Y-2447000D01*
X35989000Y-2650000D02*
X35989000Y-2752000D01*
X35938000Y-2701000D02*
X36040000Y-2701000D01*
X35989000Y-2904000D02*
X35989000Y-3006000D01*
X35938000Y-2955000D02*
X36040000Y-2955000D01*
X35989000Y-3158000D02*
X35989000Y-3260000D01*
X35938000Y-3209000D02*
X36040000Y-3209000D01*
X35989000Y-3412000D02*
X35989000Y-3514000D01*
X35938000Y-3463000D02*
X36040000Y-3463000D01*
X35989000Y-3666000D02*
X35989000Y-3768000D01*
X35938000Y-3717000D02*
X36040000Y-3717000D01*
X35989000Y-3920000D02*
X35989000Y-4022000D01*
X35938000Y-3971000D02*
X36040000Y-3971000D01*
X35989000Y-4174000D02*
X35989000Y-4276000D01*
X35938000Y-4225000D02*
X36040000Y-4225000D01*
X35989000Y-4428000D02*
X35989000Y-4530000D01*
X35938000Y-4479000D02*
X36040000Y-4479000D01*
X35989000Y-4682000D02*
X35989000Y-4784000D01*
X35938000Y-4733000D02*
X36040000Y-4733000D01*
X35989000Y-4936000D02*
X35989000Y-5038000D01*
X35938000Y-4987000D02*
X36040000Y-4987000D01*
X35989000Y-5190000D02*
X35989000Y-5292000D01*
X35938000Y-5241000D02*
X36040000Y-5241000D01*
X35989000Y-5444000D02*
X35989000Y-5546000D01*
X35938000Y-5495000D02*
X36040000Y-5495000D01*
X35989000Y-5698000D02*
X35989000Y-5800000D01*
X35938000Y-5749000D02*
X36040000Y-5749000D01*
X35989000Y-5952000D02*
X35989000Y-6054000D01*
X35938000Y-6003000D02*
X36040000Y-6003000D01*
X35989000Y-6206000D02*
X35989000Y-6308000D01*
X35938000Y-6257000D02*
X36040000Y-6257000D01*
X35989000Y-6460000D02*
X35989000Y-6562000D01*
X35938000Y-6511000D02*
X36040000Y-6511000D01*
X35989000Y-6714000D02*
X35989000Y-6816000D01*
X35938000Y-6765000D02*
X36040000Y-6765000D01*
X35989000Y-6968000D02*
X35989000Y-7070000D01*
X35938000Y-7019000D02*
X36040000Y-7019000D01*
X35989000Y-7222000D02*
X35989000Y-7324000D01*
X35938000Y-7273000D02*
X36040000Y-7273000D01*
X48727000Y-2836500D02*
X48727000Y-2938500D01*
X48676000Y-2887500D02*
X48778000Y-2887500D01*
X48981000Y-2836500D02*
X48981000Y-2938500D01*
X48930000Y-2887500D02*
X49032000Y-2887500D01*
X49235000Y-2836500D02*
X49235000Y-2938500D01*
X49184000Y-2887500D02*
X49286000Y-2887500D01*
X49489000Y-2836500D02*
X49489000Y-2938500D01*
X49438000Y-2887500D02*
X49540000Y-2887500D01*
X37671984Y-3798984D02*
X37671984Y-3693016D01*
X37566016Y-3693016D01*
X37566016Y-3798984D01*
X37671984Y-3798984D01*
X37671984Y-5703984D02*
X37671984Y-5598016D01*
X37566016Y-5598016D01*
X37566016Y-5703984D01*
X37671984Y-5703984D01*
X37671984Y-7608984D02*
X37671984Y-7503016D01*
X37566016Y-7503016D01*
X37566016Y-7608984D01*
X37671984Y-7608984D01*
X37671984Y-11418984D02*
X37671984Y-11313016D01*
X37566016Y-11313016D01*
X37566016Y-11418984D01*
X37671984Y-11418984D01*
X38306984Y-3544984D02*
X38306984Y-3439016D01*
X38201016Y-3439016D01*
X38201016Y-3544984D01*
X38306984Y-3544984D01*
X38306984Y-5449984D02*
X38306984Y-5344016D01*
X38201016Y-5344016D01*
X38201016Y-5449984D01*
X38306984Y-5449984D01*
X38306984Y-7354984D02*
X38306984Y-7249016D01*
X38201016Y-7249016D01*
X38201016Y-7354984D01*
X38306984Y-7354984D01*
X38306984Y-11164984D02*
X38306984Y-11059016D01*
X38201016Y-11059016D01*
X38201016Y-11164984D01*
X38306984Y-11164984D01*
X38624484Y-9513984D02*
X38624484Y-9408016D01*
X38518516Y-9408016D01*
X38518516Y-9513984D01*
X38624484Y-9513984D01*
X39259484Y-9259984D02*
X39259484Y-9154016D01*
X39153516Y-9154016D01*
X39153516Y-9259984D01*
X39259484Y-9259984D01*
X39576984Y-3798984D02*
X39576984Y-3693016D01*
X39471016Y-3693016D01*
X39471016Y-3798984D01*
X39576984Y-3798984D01*
X39576984Y-5703984D02*
X39576984Y-5598016D01*
X39471016Y-5598016D01*
X39471016Y-5703984D01*
X39576984Y-5703984D01*
X39576984Y-7608984D02*
X39576984Y-7503016D01*
X39471016Y-7503016D01*
X39471016Y-7608984D01*
X39576984Y-7608984D01*
X39576984Y-11418984D02*
X39576984Y-11313016D01*
X39471016Y-11313016D01*
X39471016Y-11418984D01*
X39576984Y-11418984D01*
X40211984Y-3544984D02*
X40211984Y-3439016D01*
X40106016Y-3439016D01*
X40106016Y-3544984D01*
X40211984Y-3544984D01*
X40211984Y-5449984D02*
X40211984Y-5344016D01*
X40106016Y-5344016D01*
X40106016Y-5449984D01*
X40211984Y-5449984D01*
X40211984Y-7354984D02*
X40211984Y-7249016D01*
X40106016Y-7249016D01*
X40106016Y-7354984D01*
X40211984Y-7354984D01*
X40211984Y-11164984D02*
X40211984Y-11059016D01*
X40106016Y-11059016D01*
X40106016Y-11164984D01*
X40211984Y-11164984D01*
X41481984Y-3798984D02*
X41481984Y-3693016D01*
X41376016Y-3693016D01*
X41376016Y-3798984D01*
X41481984Y-3798984D01*
X41481984Y-5703984D02*
X41481984Y-5598016D01*
X41376016Y-5598016D01*
X41376016Y-5703984D01*
X41481984Y-5703984D01*
X41481984Y-7608984D02*
X41481984Y-7503016D01*
X41376016Y-7503016D01*
X41376016Y-7608984D01*
X41481984Y-7608984D01*
X41481984Y-9513984D02*
X41481984Y-9408016D01*
X41376016Y-9408016D01*
X41376016Y-9513984D01*
X41481984Y-9513984D01*
X41481984Y-11418984D02*
X41481984Y-11313016D01*
X41376016Y-11313016D01*
X41376016Y-11418984D01*
X41481984Y-11418984D01*
X42116984Y-3544984D02*
X42116984Y-3439016D01*
X42011016Y-3439016D01*
X42011016Y-3544984D01*
X42116984Y-3544984D01*
X42116984Y-5449984D02*
X42116984Y-5344016D01*
X42011016Y-5344016D01*
X42011016Y-5449984D01*
X42116984Y-5449984D01*
X42116984Y-7354984D02*
X42116984Y-7249016D01*
X42011016Y-7249016D01*
X42011016Y-7354984D01*
X42116984Y-7354984D01*
X42116984Y-9259984D02*
X42116984Y-9154016D01*
X42011016Y-9154016D01*
X42011016Y-9259984D01*
X42116984Y-9259984D01*
X42116984Y-11164984D02*
X42116984Y-11059016D01*
X42011016Y-11059016D01*
X42011016Y-11164984D01*
X42116984Y-11164984D01*
X43386984Y-3798984D02*
X43386984Y-3693016D01*
X43281016Y-3693016D01*
X43281016Y-3798984D01*
X43386984Y-3798984D01*
X43386984Y-5703984D02*
X43386984Y-5598016D01*
X43281016Y-5598016D01*
X43281016Y-5703984D01*
X43386984Y-5703984D01*
X43386984Y-7608984D02*
X43386984Y-7503016D01*
X43281016Y-7503016D01*
X43281016Y-7608984D01*
X43386984Y-7608984D01*
X43386984Y-9513984D02*
X43386984Y-9408016D01*
X43281016Y-9408016D01*
X43281016Y-9513984D01*
X43386984Y-9513984D01*
X44021984Y-3544984D02*
X44021984Y-3439016D01*
X43916016Y-3439016D01*
X43916016Y-3544984D01*
X44021984Y-3544984D01*
X44021984Y-5449984D02*
X44021984Y-5344016D01*
X43916016Y-5344016D01*
X43916016Y-5449984D01*
X44021984Y-5449984D01*
X44021984Y-7354984D02*
X44021984Y-7249016D01*
X43916016Y-7249016D01*
X43916016Y-7354984D01*
X44021984Y-7354984D01*
X44021984Y-9259984D02*
X44021984Y-9154016D01*
X43916016Y-9154016D01*
X43916016Y-9259984D01*
X44021984Y-9259984D01*
X44339484Y-11418984D02*
X44339484Y-11313016D01*
X44233516Y-11313016D01*
X44233516Y-11418984D01*
X44339484Y-11418984D01*
X44974484Y-11164984D02*
X44974484Y-11059016D01*
X44868516Y-11059016D01*
X44868516Y-11164984D01*
X44974484Y-11164984D01*
X45291984Y-3798984D02*
X45291984Y-3693016D01*
X45186016Y-3693016D01*
X45186016Y-3798984D01*
X45291984Y-3798984D01*
X45291984Y-5703984D02*
X45291984Y-5598016D01*
X45186016Y-5598016D01*
X45186016Y-5703984D01*
X45291984Y-5703984D01*
X45291984Y-7608984D02*
X45291984Y-7503016D01*
X45186016Y-7503016D01*
X45186016Y-7608984D01*
X45291984Y-7608984D01*
X45291984Y-9513984D02*
X45291984Y-9408016D01*
X45186016Y-9408016D01*
X45186016Y-9513984D01*
X45291984Y-9513984D01*
X45926984Y-3544984D02*
X45926984Y-3439016D01*
X45821016Y-3439016D01*
X45821016Y-3544984D01*
X45926984Y-3544984D01*
X45926984Y-5449984D02*
X45926984Y-5344016D01*
X45821016Y-5344016D01*
X45821016Y-5449984D01*
X45926984Y-5449984D01*
X45926984Y-7354984D02*
X45926984Y-7249016D01*
X45821016Y-7249016D01*
X45821016Y-7354984D01*
X45926984Y-7354984D01*
X45926984Y-9259984D02*
X45926984Y-9154016D01*
X45821016Y-9154016D01*
X45821016Y-9259984D01*
X45926984Y-9259984D01*
X49337589Y-8401799D02*
X49337589Y-8295831D01*
X49231621Y-8295831D01*
X49231621Y-8401799D01*
X49337589Y-8401799D01*
X49606997Y-7773181D02*
X49606997Y-7667213D01*
X49501029Y-7667213D01*
X49501029Y-7773181D01*
X49606997Y-7773181D01*
X34702574Y-10210587D02*
X34802574Y-10110587D01*
X34702574Y-10010587D01*
X34602574Y-10110587D01*
X34702574Y-10210587D01*
X34621256Y-10156549D02*
X34656612Y-10191904D01*
X34748536Y-10029269D02*
X34783891Y-10064625D01*
X34656612Y-10191904D02*
G75*
G03*
X34783891Y-10064625I63640J63640D01*
G01*
X34748536Y-10029269D02*
G75*
G03*
X34621256Y-10156549I-63640J-63640D01*
G01*
X35494533Y-9418627D02*
X35594533Y-9318627D01*
X35494533Y-9218627D01*
X35394533Y-9318627D01*
X35494533Y-9418627D01*
X35413216Y-9364589D02*
X35448571Y-9399944D01*
X35540495Y-9237310D02*
X35575851Y-9272665D01*
X35448571Y-9399944D02*
G75*
G03*
X35575851Y-9272665I63640J63640D01*
G01*
X35540495Y-9237310D02*
G75*
G03*
X35413216Y-9364589I-63640J-63640D01*
G01*
X48545000Y-11720000D02*
X48645000Y-11620000D01*
X48545000Y-11520000D01*
X48445000Y-11620000D01*
X48545000Y-11720000D01*
X48635000Y-11645000D02*
X48635000Y-11595000D01*
X48455000Y-11645000D02*
X48455000Y-11595000D01*
X48635000Y-11595000D02*
G75*
G03*
X48455000Y-11595000I-90000J0D01*
G01*
X48455000Y-11645000D02*
G75*
G03*
X48635000Y-11645000I90000J0D01*
G01*
X49665000Y-11720000D02*
X49765000Y-11620000D01*
X49665000Y-11520000D01*
X49565000Y-11620000D01*
X49665000Y-11720000D01*
X49755000Y-11645000D02*
X49755000Y-11595000D01*
X49575000Y-11645000D02*
X49575000Y-11595000D01*
X49755000Y-11595000D02*
G75*
G03*
X49575000Y-11595000I-90000J0D01*
G01*
X49575000Y-11645000D02*
G75*
G03*
X49755000Y-11645000I90000J0D01*
G01*
D12*
X32816428Y-13675714D02*
X32816428Y-13375714D01*
X32887857Y-13375714D01*
X32930714Y-13390000D01*
X32959285Y-13418572D01*
X32973571Y-13447143D01*
X32987857Y-13504286D01*
X32987857Y-13547143D01*
X32973571Y-13604286D01*
X32959285Y-13632857D01*
X32930714Y-13661429D01*
X32887857Y-13675714D01*
X32816428Y-13675714D01*
X33116428Y-13675714D02*
X33116428Y-13475714D01*
X33116428Y-13532857D02*
X33130714Y-13504286D01*
X33145000Y-13490000D01*
X33173571Y-13475714D01*
X33202143Y-13475714D01*
X33302143Y-13675714D02*
X33302143Y-13475714D01*
X33302143Y-13375714D02*
X33287857Y-13390000D01*
X33302143Y-13404286D01*
X33316428Y-13390000D01*
X33302143Y-13375714D01*
X33302143Y-13404286D01*
X33487857Y-13675714D02*
X33459285Y-13661429D01*
X33445000Y-13632857D01*
X33445000Y-13375714D01*
X33645000Y-13675714D02*
X33616428Y-13661429D01*
X33602143Y-13632857D01*
X33602143Y-13375714D01*
X33987857Y-13675714D02*
X33987857Y-13375714D01*
X34087857Y-13590000D01*
X34187857Y-13375714D01*
X34187857Y-13675714D01*
X34459286Y-13675714D02*
X34459286Y-13518572D01*
X34445000Y-13490000D01*
X34416428Y-13475714D01*
X34359286Y-13475714D01*
X34330714Y-13490000D01*
X34459286Y-13661429D02*
X34430714Y-13675714D01*
X34359286Y-13675714D01*
X34330714Y-13661429D01*
X34316428Y-13632857D01*
X34316428Y-13604286D01*
X34330714Y-13575714D01*
X34359286Y-13561429D01*
X34430714Y-13561429D01*
X34459286Y-13547143D01*
X34602143Y-13475714D02*
X34602143Y-13775714D01*
X34602143Y-13490000D02*
X34630714Y-13475714D01*
X34687857Y-13475714D01*
X34716428Y-13490000D01*
X34730714Y-13504286D01*
X34745000Y-13532857D01*
X34745000Y-13618572D01*
X34730714Y-13647143D01*
X34716428Y-13661429D01*
X34687857Y-13675714D01*
X34630714Y-13675714D01*
X34602143Y-13661429D01*
X34873571Y-13647143D02*
X34887857Y-13661429D01*
X34873571Y-13675714D01*
X34859286Y-13661429D01*
X34873571Y-13647143D01*
X34873571Y-13675714D01*
X34873571Y-13490000D02*
X34887857Y-13504286D01*
X34873571Y-13518572D01*
X34859286Y-13504286D01*
X34873571Y-13490000D01*
X34873571Y-13518572D01*
X32430940Y-14120470D02*
X32530000Y-14219530D01*
X32530000Y-14120470D02*
X32430940Y-14219530D01*
X32873571Y-14005714D02*
X32902143Y-14005714D01*
X32930714Y-14020000D01*
X32945000Y-14034286D01*
X32959285Y-14062857D01*
X32973571Y-14120000D01*
X32973571Y-14191429D01*
X32959285Y-14248572D01*
X32945000Y-14277143D01*
X32930714Y-14291429D01*
X32902143Y-14305714D01*
X32873571Y-14305714D01*
X32845000Y-14291429D01*
X32830714Y-14277143D01*
X32816428Y-14248572D01*
X32802143Y-14191429D01*
X32802143Y-14120000D01*
X32816428Y-14062857D01*
X32830714Y-14034286D01*
X32845000Y-14020000D01*
X32873571Y-14005714D01*
X33102143Y-14277143D02*
X33116428Y-14291429D01*
X33102143Y-14305714D01*
X33087857Y-14291429D01*
X33102143Y-14277143D01*
X33102143Y-14305714D01*
X33259285Y-14305714D02*
X33316428Y-14305714D01*
X33345000Y-14291429D01*
X33359285Y-14277143D01*
X33387857Y-14234286D01*
X33402143Y-14177143D01*
X33402143Y-14062857D01*
X33387857Y-14034286D01*
X33373571Y-14020000D01*
X33345000Y-14005714D01*
X33287857Y-14005714D01*
X33259285Y-14020000D01*
X33245000Y-14034286D01*
X33230714Y-14062857D01*
X33230714Y-14134286D01*
X33245000Y-14162857D01*
X33259285Y-14177143D01*
X33287857Y-14191429D01*
X33345000Y-14191429D01*
X33373571Y-14177143D01*
X33387857Y-14162857D01*
X33402143Y-14134286D01*
X33545000Y-14305714D02*
X33602143Y-14305714D01*
X33630714Y-14291429D01*
X33645000Y-14277143D01*
X33673571Y-14234286D01*
X33687857Y-14177143D01*
X33687857Y-14062857D01*
X33673571Y-14034286D01*
X33659286Y-14020000D01*
X33630714Y-14005714D01*
X33573571Y-14005714D01*
X33545000Y-14020000D01*
X33530714Y-14034286D01*
X33516428Y-14062857D01*
X33516428Y-14134286D01*
X33530714Y-14162857D01*
X33545000Y-14177143D01*
X33573571Y-14191429D01*
X33630714Y-14191429D01*
X33659286Y-14177143D01*
X33673571Y-14162857D01*
X33687857Y-14134286D01*
X33973571Y-14305714D02*
X33802143Y-14305714D01*
X33887857Y-14305714D02*
X33887857Y-14005714D01*
X33859286Y-14048572D01*
X33830714Y-14077143D01*
X33802143Y-14091429D01*
X34102143Y-14305714D02*
X34102143Y-14105714D01*
X34102143Y-14134286D02*
X34116428Y-14120000D01*
X34145000Y-14105714D01*
X34187857Y-14105714D01*
X34216428Y-14120000D01*
X34230714Y-14148572D01*
X34230714Y-14305714D01*
X34230714Y-14148572D02*
X34245000Y-14120000D01*
X34273571Y-14105714D01*
X34316428Y-14105714D01*
X34345000Y-14120000D01*
X34359286Y-14148572D01*
X34359286Y-14305714D01*
X34502143Y-14305714D02*
X34502143Y-14105714D01*
X34502143Y-14134286D02*
X34516428Y-14120000D01*
X34545000Y-14105714D01*
X34587857Y-14105714D01*
X34616428Y-14120000D01*
X34630714Y-14148572D01*
X34630714Y-14305714D01*
X34630714Y-14148572D02*
X34645000Y-14120000D01*
X34673571Y-14105714D01*
X34716428Y-14105714D01*
X34745000Y-14120000D01*
X34759286Y-14148572D01*
X34759286Y-14305714D01*
X35345000Y-13991429D02*
X35087857Y-14377143D01*
X35730714Y-14005714D02*
X35759286Y-14005714D01*
X35787857Y-14020000D01*
X35802143Y-14034286D01*
X35816428Y-14062857D01*
X35830714Y-14120000D01*
X35830714Y-14191429D01*
X35816428Y-14248572D01*
X35802143Y-14277143D01*
X35787857Y-14291429D01*
X35759286Y-14305714D01*
X35730714Y-14305714D01*
X35702143Y-14291429D01*
X35687857Y-14277143D01*
X35673571Y-14248572D01*
X35659286Y-14191429D01*
X35659286Y-14120000D01*
X35673571Y-14062857D01*
X35687857Y-14034286D01*
X35702143Y-14020000D01*
X35730714Y-14005714D01*
X35959286Y-14277143D02*
X35973571Y-14291429D01*
X35959286Y-14305714D01*
X35945000Y-14291429D01*
X35959286Y-14277143D01*
X35959286Y-14305714D01*
X36159286Y-14005714D02*
X36187857Y-14005714D01*
X36216428Y-14020000D01*
X36230714Y-14034286D01*
X36245000Y-14062857D01*
X36259286Y-14120000D01*
X36259286Y-14191429D01*
X36245000Y-14248572D01*
X36230714Y-14277143D01*
X36216428Y-14291429D01*
X36187857Y-14305714D01*
X36159286Y-14305714D01*
X36130714Y-14291429D01*
X36116428Y-14277143D01*
X36102143Y-14248572D01*
X36087857Y-14191429D01*
X36087857Y-14120000D01*
X36102143Y-14062857D01*
X36116428Y-14034286D01*
X36130714Y-14020000D01*
X36159286Y-14005714D01*
X36359286Y-14005714D02*
X36545000Y-14005714D01*
X36445000Y-14120000D01*
X36487857Y-14120000D01*
X36516428Y-14134286D01*
X36530714Y-14148572D01*
X36545000Y-14177143D01*
X36545000Y-14248572D01*
X36530714Y-14277143D01*
X36516428Y-14291429D01*
X36487857Y-14305714D01*
X36402143Y-14305714D01*
X36373571Y-14291429D01*
X36359286Y-14277143D01*
X36687857Y-14305714D02*
X36745000Y-14305714D01*
X36773571Y-14291429D01*
X36787857Y-14277143D01*
X36816428Y-14234286D01*
X36830714Y-14177143D01*
X36830714Y-14062857D01*
X36816428Y-14034286D01*
X36802143Y-14020000D01*
X36773571Y-14005714D01*
X36716428Y-14005714D01*
X36687857Y-14020000D01*
X36673571Y-14034286D01*
X36659286Y-14062857D01*
X36659286Y-14134286D01*
X36673571Y-14162857D01*
X36687857Y-14177143D01*
X36716428Y-14191429D01*
X36773571Y-14191429D01*
X36802143Y-14177143D01*
X36816428Y-14162857D01*
X36830714Y-14134286D01*
X37016428Y-14005714D02*
X37045000Y-14005714D01*
X37073571Y-14020000D01*
X37087857Y-14034286D01*
X37102143Y-14062857D01*
X37116428Y-14120000D01*
X37116428Y-14191429D01*
X37102143Y-14248572D01*
X37087857Y-14277143D01*
X37073571Y-14291429D01*
X37045000Y-14305714D01*
X37016428Y-14305714D01*
X36987857Y-14291429D01*
X36973571Y-14277143D01*
X36959286Y-14248572D01*
X36945000Y-14191429D01*
X36945000Y-14120000D01*
X36959286Y-14062857D01*
X36973571Y-14034286D01*
X36987857Y-14020000D01*
X37016428Y-14005714D01*
X37230714Y-14005714D02*
X37230714Y-14062857D01*
X37345000Y-14005714D02*
X37345000Y-14062857D01*
X37787857Y-14420000D02*
X37773571Y-14405714D01*
X37745000Y-14362857D01*
X37730714Y-14334286D01*
X37716428Y-14291429D01*
X37702143Y-14220000D01*
X37702143Y-14162857D01*
X37716428Y-14091429D01*
X37730714Y-14048572D01*
X37745000Y-14020000D01*
X37773571Y-13977143D01*
X37787857Y-13962857D01*
X38030714Y-14105714D02*
X38030714Y-14305714D01*
X37959286Y-13991429D02*
X37887857Y-14205714D01*
X38073571Y-14205714D01*
X38316428Y-14005714D02*
X38259286Y-14005714D01*
X38230714Y-14020000D01*
X38216428Y-14034286D01*
X38187857Y-14077143D01*
X38173571Y-14134286D01*
X38173571Y-14248572D01*
X38187857Y-14277143D01*
X38202143Y-14291429D01*
X38230714Y-14305714D01*
X38287857Y-14305714D01*
X38316428Y-14291429D01*
X38330714Y-14277143D01*
X38345000Y-14248572D01*
X38345000Y-14177143D01*
X38330714Y-14148572D01*
X38316428Y-14134286D01*
X38287857Y-14120000D01*
X38230714Y-14120000D01*
X38202143Y-14134286D01*
X38187857Y-14148572D01*
X38173571Y-14177143D01*
X38702143Y-14305714D02*
X38702143Y-14005714D01*
X38830714Y-14305714D02*
X38830714Y-14148572D01*
X38816428Y-14120000D01*
X38787857Y-14105714D01*
X38745000Y-14105714D01*
X38716428Y-14120000D01*
X38702143Y-14134286D01*
X39016428Y-14305714D02*
X38987857Y-14291429D01*
X38973571Y-14277143D01*
X38959286Y-14248572D01*
X38959286Y-14162857D01*
X38973571Y-14134286D01*
X38987857Y-14120000D01*
X39016428Y-14105714D01*
X39059286Y-14105714D01*
X39087857Y-14120000D01*
X39102143Y-14134286D01*
X39116428Y-14162857D01*
X39116428Y-14248572D01*
X39102143Y-14277143D01*
X39087857Y-14291429D01*
X39059286Y-14305714D01*
X39016428Y-14305714D01*
X39287857Y-14305714D02*
X39259286Y-14291429D01*
X39245000Y-14262857D01*
X39245000Y-14005714D01*
X39516428Y-14291429D02*
X39487857Y-14305714D01*
X39430714Y-14305714D01*
X39402143Y-14291429D01*
X39387857Y-14262857D01*
X39387857Y-14148572D01*
X39402143Y-14120000D01*
X39430714Y-14105714D01*
X39487857Y-14105714D01*
X39516428Y-14120000D01*
X39530714Y-14148572D01*
X39530714Y-14177143D01*
X39387857Y-14205714D01*
X39645000Y-14291429D02*
X39673571Y-14305714D01*
X39730714Y-14305714D01*
X39759286Y-14291429D01*
X39773571Y-14262857D01*
X39773571Y-14248572D01*
X39759286Y-14220000D01*
X39730714Y-14205714D01*
X39687857Y-14205714D01*
X39659286Y-14191429D01*
X39645000Y-14162857D01*
X39645000Y-14148572D01*
X39659286Y-14120000D01*
X39687857Y-14105714D01*
X39730714Y-14105714D01*
X39759286Y-14120000D01*
X39873571Y-14420000D02*
X39887857Y-14405714D01*
X39916428Y-14362857D01*
X39930714Y-14334286D01*
X39945000Y-14291429D01*
X39959286Y-14220000D01*
X39959286Y-14162857D01*
X39945000Y-14091429D01*
X39930714Y-14048572D01*
X39916428Y-14020000D01*
X39887857Y-13977143D01*
X39873571Y-13962857D01*
X32530000Y-14566000D02*
G75*
G03*
X32530000Y-14566000I-50000J0D01*
G01*
X32973571Y-14701714D02*
X32802143Y-14701714D01*
X32887857Y-14701714D02*
X32887857Y-14401714D01*
X32859285Y-14444572D01*
X32830714Y-14473143D01*
X32802143Y-14487429D01*
X33102143Y-14673143D02*
X33116428Y-14687429D01*
X33102143Y-14701714D01*
X33087857Y-14687429D01*
X33102143Y-14673143D01*
X33102143Y-14701714D01*
X33302143Y-14401714D02*
X33330714Y-14401714D01*
X33359285Y-14416000D01*
X33373571Y-14430286D01*
X33387857Y-14458857D01*
X33402143Y-14516000D01*
X33402143Y-14587429D01*
X33387857Y-14644572D01*
X33373571Y-14673143D01*
X33359285Y-14687429D01*
X33330714Y-14701714D01*
X33302143Y-14701714D01*
X33273571Y-14687429D01*
X33259285Y-14673143D01*
X33245000Y-14644572D01*
X33230714Y-14587429D01*
X33230714Y-14516000D01*
X33245000Y-14458857D01*
X33259285Y-14430286D01*
X33273571Y-14416000D01*
X33302143Y-14401714D01*
X33587857Y-14401714D02*
X33616428Y-14401714D01*
X33645000Y-14416000D01*
X33659286Y-14430286D01*
X33673571Y-14458857D01*
X33687857Y-14516000D01*
X33687857Y-14587429D01*
X33673571Y-14644572D01*
X33659286Y-14673143D01*
X33645000Y-14687429D01*
X33616428Y-14701714D01*
X33587857Y-14701714D01*
X33559286Y-14687429D01*
X33545000Y-14673143D01*
X33530714Y-14644572D01*
X33516428Y-14587429D01*
X33516428Y-14516000D01*
X33530714Y-14458857D01*
X33545000Y-14430286D01*
X33559286Y-14416000D01*
X33587857Y-14401714D01*
X33873571Y-14401714D02*
X33902143Y-14401714D01*
X33930714Y-14416000D01*
X33945000Y-14430286D01*
X33959286Y-14458857D01*
X33973571Y-14516000D01*
X33973571Y-14587429D01*
X33959286Y-14644572D01*
X33945000Y-14673143D01*
X33930714Y-14687429D01*
X33902143Y-14701714D01*
X33873571Y-14701714D01*
X33845000Y-14687429D01*
X33830714Y-14673143D01*
X33816428Y-14644572D01*
X33802143Y-14587429D01*
X33802143Y-14516000D01*
X33816428Y-14458857D01*
X33830714Y-14430286D01*
X33845000Y-14416000D01*
X33873571Y-14401714D01*
X34102143Y-14701714D02*
X34102143Y-14501714D01*
X34102143Y-14530286D02*
X34116428Y-14516000D01*
X34145000Y-14501714D01*
X34187857Y-14501714D01*
X34216428Y-14516000D01*
X34230714Y-14544572D01*
X34230714Y-14701714D01*
X34230714Y-14544572D02*
X34245000Y-14516000D01*
X34273571Y-14501714D01*
X34316428Y-14501714D01*
X34345000Y-14516000D01*
X34359286Y-14544572D01*
X34359286Y-14701714D01*
X34502143Y-14701714D02*
X34502143Y-14501714D01*
X34502143Y-14530286D02*
X34516428Y-14516000D01*
X34545000Y-14501714D01*
X34587857Y-14501714D01*
X34616428Y-14516000D01*
X34630714Y-14544572D01*
X34630714Y-14701714D01*
X34630714Y-14544572D02*
X34645000Y-14516000D01*
X34673571Y-14501714D01*
X34716428Y-14501714D01*
X34745000Y-14516000D01*
X34759286Y-14544572D01*
X34759286Y-14701714D01*
X35345000Y-14387429D02*
X35087857Y-14773143D01*
X35730714Y-14401714D02*
X35759286Y-14401714D01*
X35787857Y-14416000D01*
X35802143Y-14430286D01*
X35816428Y-14458857D01*
X35830714Y-14516000D01*
X35830714Y-14587429D01*
X35816428Y-14644572D01*
X35802143Y-14673143D01*
X35787857Y-14687429D01*
X35759286Y-14701714D01*
X35730714Y-14701714D01*
X35702143Y-14687429D01*
X35687857Y-14673143D01*
X35673571Y-14644572D01*
X35659286Y-14587429D01*
X35659286Y-14516000D01*
X35673571Y-14458857D01*
X35687857Y-14430286D01*
X35702143Y-14416000D01*
X35730714Y-14401714D01*
X35959286Y-14673143D02*
X35973571Y-14687429D01*
X35959286Y-14701714D01*
X35945000Y-14687429D01*
X35959286Y-14673143D01*
X35959286Y-14701714D01*
X36159286Y-14401714D02*
X36187857Y-14401714D01*
X36216428Y-14416000D01*
X36230714Y-14430286D01*
X36245000Y-14458857D01*
X36259286Y-14516000D01*
X36259286Y-14587429D01*
X36245000Y-14644572D01*
X36230714Y-14673143D01*
X36216428Y-14687429D01*
X36187857Y-14701714D01*
X36159286Y-14701714D01*
X36130714Y-14687429D01*
X36116428Y-14673143D01*
X36102143Y-14644572D01*
X36087857Y-14587429D01*
X36087857Y-14516000D01*
X36102143Y-14458857D01*
X36116428Y-14430286D01*
X36130714Y-14416000D01*
X36159286Y-14401714D01*
X36359286Y-14401714D02*
X36545000Y-14401714D01*
X36445000Y-14516000D01*
X36487857Y-14516000D01*
X36516428Y-14530286D01*
X36530714Y-14544572D01*
X36545000Y-14573143D01*
X36545000Y-14644572D01*
X36530714Y-14673143D01*
X36516428Y-14687429D01*
X36487857Y-14701714D01*
X36402143Y-14701714D01*
X36373571Y-14687429D01*
X36359286Y-14673143D01*
X36687857Y-14701714D02*
X36745000Y-14701714D01*
X36773571Y-14687429D01*
X36787857Y-14673143D01*
X36816428Y-14630286D01*
X36830714Y-14573143D01*
X36830714Y-14458857D01*
X36816428Y-14430286D01*
X36802143Y-14416000D01*
X36773571Y-14401714D01*
X36716428Y-14401714D01*
X36687857Y-14416000D01*
X36673571Y-14430286D01*
X36659286Y-14458857D01*
X36659286Y-14530286D01*
X36673571Y-14558857D01*
X36687857Y-14573143D01*
X36716428Y-14587429D01*
X36773571Y-14587429D01*
X36802143Y-14573143D01*
X36816428Y-14558857D01*
X36830714Y-14530286D01*
X37087857Y-14501714D02*
X37087857Y-14701714D01*
X37016428Y-14387429D02*
X36945000Y-14601714D01*
X37130714Y-14601714D01*
X37230714Y-14401714D02*
X37230714Y-14458857D01*
X37345000Y-14401714D02*
X37345000Y-14458857D01*
X37787857Y-14816000D02*
X37773571Y-14801714D01*
X37745000Y-14758857D01*
X37730714Y-14730286D01*
X37716428Y-14687429D01*
X37702143Y-14616000D01*
X37702143Y-14558857D01*
X37716428Y-14487429D01*
X37730714Y-14444572D01*
X37745000Y-14416000D01*
X37773571Y-14373143D01*
X37787857Y-14358857D01*
X38059286Y-14701714D02*
X37887857Y-14701714D01*
X37973571Y-14701714D02*
X37973571Y-14401714D01*
X37945000Y-14444572D01*
X37916428Y-14473143D01*
X37887857Y-14487429D01*
X38245000Y-14401714D02*
X38273571Y-14401714D01*
X38302143Y-14416000D01*
X38316428Y-14430286D01*
X38330714Y-14458857D01*
X38345000Y-14516000D01*
X38345000Y-14587429D01*
X38330714Y-14644572D01*
X38316428Y-14673143D01*
X38302143Y-14687429D01*
X38273571Y-14701714D01*
X38245000Y-14701714D01*
X38216428Y-14687429D01*
X38202143Y-14673143D01*
X38187857Y-14644572D01*
X38173571Y-14587429D01*
X38173571Y-14516000D01*
X38187857Y-14458857D01*
X38202143Y-14430286D01*
X38216428Y-14416000D01*
X38245000Y-14401714D01*
X38702143Y-14701714D02*
X38702143Y-14401714D01*
X38830714Y-14701714D02*
X38830714Y-14544572D01*
X38816428Y-14516000D01*
X38787857Y-14501714D01*
X38745000Y-14501714D01*
X38716428Y-14516000D01*
X38702143Y-14530286D01*
X39016428Y-14701714D02*
X38987857Y-14687429D01*
X38973571Y-14673143D01*
X38959286Y-14644572D01*
X38959286Y-14558857D01*
X38973571Y-14530286D01*
X38987857Y-14516000D01*
X39016428Y-14501714D01*
X39059286Y-14501714D01*
X39087857Y-14516000D01*
X39102143Y-14530286D01*
X39116428Y-14558857D01*
X39116428Y-14644572D01*
X39102143Y-14673143D01*
X39087857Y-14687429D01*
X39059286Y-14701714D01*
X39016428Y-14701714D01*
X39287857Y-14701714D02*
X39259286Y-14687429D01*
X39245000Y-14658857D01*
X39245000Y-14401714D01*
X39516428Y-14687429D02*
X39487857Y-14701714D01*
X39430714Y-14701714D01*
X39402143Y-14687429D01*
X39387857Y-14658857D01*
X39387857Y-14544572D01*
X39402143Y-14516000D01*
X39430714Y-14501714D01*
X39487857Y-14501714D01*
X39516428Y-14516000D01*
X39530714Y-14544572D01*
X39530714Y-14573143D01*
X39387857Y-14601714D01*
X39645000Y-14687429D02*
X39673571Y-14701714D01*
X39730714Y-14701714D01*
X39759286Y-14687429D01*
X39773571Y-14658857D01*
X39773571Y-14644572D01*
X39759286Y-14616000D01*
X39730714Y-14601714D01*
X39687857Y-14601714D01*
X39659286Y-14587429D01*
X39645000Y-14558857D01*
X39645000Y-14544572D01*
X39659286Y-14516000D01*
X39687857Y-14501714D01*
X39730714Y-14501714D01*
X39759286Y-14516000D01*
X39873571Y-14816000D02*
X39887857Y-14801714D01*
X39916428Y-14758857D01*
X39930714Y-14730286D01*
X39945000Y-14687429D01*
X39959286Y-14616000D01*
X39959286Y-14558857D01*
X39945000Y-14487429D01*
X39930714Y-14444572D01*
X39916428Y-14416000D01*
X39887857Y-14373143D01*
X39873571Y-14358857D01*
X32479000Y-14911000D02*
X32479000Y-15013000D01*
X32428000Y-14962000D02*
X32530000Y-14962000D01*
X32973571Y-15097714D02*
X32802143Y-15097714D01*
X32887857Y-15097714D02*
X32887857Y-14797714D01*
X32859285Y-14840572D01*
X32830714Y-14869143D01*
X32802143Y-14883429D01*
X33102143Y-15069143D02*
X33116428Y-15083429D01*
X33102143Y-15097714D01*
X33087857Y-15083429D01*
X33102143Y-15069143D01*
X33102143Y-15097714D01*
X33302143Y-14797714D02*
X33330714Y-14797714D01*
X33359285Y-14812000D01*
X33373571Y-14826286D01*
X33387857Y-14854857D01*
X33402143Y-14912000D01*
X33402143Y-14983429D01*
X33387857Y-15040572D01*
X33373571Y-15069143D01*
X33359285Y-15083429D01*
X33330714Y-15097714D01*
X33302143Y-15097714D01*
X33273571Y-15083429D01*
X33259285Y-15069143D01*
X33245000Y-15040572D01*
X33230714Y-14983429D01*
X33230714Y-14912000D01*
X33245000Y-14854857D01*
X33259285Y-14826286D01*
X33273571Y-14812000D01*
X33302143Y-14797714D01*
X33516428Y-14826286D02*
X33530714Y-14812000D01*
X33559286Y-14797714D01*
X33630714Y-14797714D01*
X33659286Y-14812000D01*
X33673571Y-14826286D01*
X33687857Y-14854857D01*
X33687857Y-14883429D01*
X33673571Y-14926286D01*
X33502143Y-15097714D01*
X33687857Y-15097714D01*
X33873571Y-14797714D02*
X33902143Y-14797714D01*
X33930714Y-14812000D01*
X33945000Y-14826286D01*
X33959286Y-14854857D01*
X33973571Y-14912000D01*
X33973571Y-14983429D01*
X33959286Y-15040572D01*
X33945000Y-15069143D01*
X33930714Y-15083429D01*
X33902143Y-15097714D01*
X33873571Y-15097714D01*
X33845000Y-15083429D01*
X33830714Y-15069143D01*
X33816428Y-15040572D01*
X33802143Y-14983429D01*
X33802143Y-14912000D01*
X33816428Y-14854857D01*
X33830714Y-14826286D01*
X33845000Y-14812000D01*
X33873571Y-14797714D01*
X34102143Y-15097714D02*
X34102143Y-14897714D01*
X34102143Y-14926286D02*
X34116428Y-14912000D01*
X34145000Y-14897714D01*
X34187857Y-14897714D01*
X34216428Y-14912000D01*
X34230714Y-14940572D01*
X34230714Y-15097714D01*
X34230714Y-14940572D02*
X34245000Y-14912000D01*
X34273571Y-14897714D01*
X34316428Y-14897714D01*
X34345000Y-14912000D01*
X34359286Y-14940572D01*
X34359286Y-15097714D01*
X34502143Y-15097714D02*
X34502143Y-14897714D01*
X34502143Y-14926286D02*
X34516428Y-14912000D01*
X34545000Y-14897714D01*
X34587857Y-14897714D01*
X34616428Y-14912000D01*
X34630714Y-14940572D01*
X34630714Y-15097714D01*
X34630714Y-14940572D02*
X34645000Y-14912000D01*
X34673571Y-14897714D01*
X34716428Y-14897714D01*
X34745000Y-14912000D01*
X34759286Y-14940572D01*
X34759286Y-15097714D01*
X35345000Y-14783429D02*
X35087857Y-15169143D01*
X35730714Y-14797714D02*
X35759286Y-14797714D01*
X35787857Y-14812000D01*
X35802143Y-14826286D01*
X35816428Y-14854857D01*
X35830714Y-14912000D01*
X35830714Y-14983429D01*
X35816428Y-15040572D01*
X35802143Y-15069143D01*
X35787857Y-15083429D01*
X35759286Y-15097714D01*
X35730714Y-15097714D01*
X35702143Y-15083429D01*
X35687857Y-15069143D01*
X35673571Y-15040572D01*
X35659286Y-14983429D01*
X35659286Y-14912000D01*
X35673571Y-14854857D01*
X35687857Y-14826286D01*
X35702143Y-14812000D01*
X35730714Y-14797714D01*
X35959286Y-15069143D02*
X35973571Y-15083429D01*
X35959286Y-15097714D01*
X35945000Y-15083429D01*
X35959286Y-15069143D01*
X35959286Y-15097714D01*
X36159286Y-14797714D02*
X36187857Y-14797714D01*
X36216428Y-14812000D01*
X36230714Y-14826286D01*
X36245000Y-14854857D01*
X36259286Y-14912000D01*
X36259286Y-14983429D01*
X36245000Y-15040572D01*
X36230714Y-15069143D01*
X36216428Y-15083429D01*
X36187857Y-15097714D01*
X36159286Y-15097714D01*
X36130714Y-15083429D01*
X36116428Y-15069143D01*
X36102143Y-15040572D01*
X36087857Y-14983429D01*
X36087857Y-14912000D01*
X36102143Y-14854857D01*
X36116428Y-14826286D01*
X36130714Y-14812000D01*
X36159286Y-14797714D01*
X36516428Y-14897714D02*
X36516428Y-15097714D01*
X36445000Y-14783429D02*
X36373571Y-14997714D01*
X36559286Y-14997714D01*
X36730714Y-14797714D02*
X36759286Y-14797714D01*
X36787857Y-14812000D01*
X36802143Y-14826286D01*
X36816428Y-14854857D01*
X36830714Y-14912000D01*
X36830714Y-14983429D01*
X36816428Y-15040572D01*
X36802143Y-15069143D01*
X36787857Y-15083429D01*
X36759286Y-15097714D01*
X36730714Y-15097714D01*
X36702143Y-15083429D01*
X36687857Y-15069143D01*
X36673571Y-15040572D01*
X36659286Y-14983429D01*
X36659286Y-14912000D01*
X36673571Y-14854857D01*
X36687857Y-14826286D01*
X36702143Y-14812000D01*
X36730714Y-14797714D01*
X36945000Y-14826286D02*
X36959286Y-14812000D01*
X36987857Y-14797714D01*
X37059286Y-14797714D01*
X37087857Y-14812000D01*
X37102143Y-14826286D01*
X37116428Y-14854857D01*
X37116428Y-14883429D01*
X37102143Y-14926286D01*
X36930714Y-15097714D01*
X37116428Y-15097714D01*
X37230714Y-14797714D02*
X37230714Y-14854857D01*
X37345000Y-14797714D02*
X37345000Y-14854857D01*
X37787857Y-15212000D02*
X37773571Y-15197714D01*
X37745000Y-15154857D01*
X37730714Y-15126286D01*
X37716428Y-15083429D01*
X37702143Y-15012000D01*
X37702143Y-14954857D01*
X37716428Y-14883429D01*
X37730714Y-14840572D01*
X37745000Y-14812000D01*
X37773571Y-14769143D01*
X37787857Y-14754857D01*
X38030714Y-14897714D02*
X38030714Y-15097714D01*
X37959286Y-14783429D02*
X37887857Y-14997714D01*
X38073571Y-14997714D01*
X38159286Y-14797714D02*
X38359286Y-14797714D01*
X38230714Y-15097714D01*
X38702143Y-15097714D02*
X38702143Y-14797714D01*
X38830714Y-15097714D02*
X38830714Y-14940572D01*
X38816428Y-14912000D01*
X38787857Y-14897714D01*
X38745000Y-14897714D01*
X38716428Y-14912000D01*
X38702143Y-14926286D01*
X39016428Y-15097714D02*
X38987857Y-15083429D01*
X38973571Y-15069143D01*
X38959286Y-15040572D01*
X38959286Y-14954857D01*
X38973571Y-14926286D01*
X38987857Y-14912000D01*
X39016428Y-14897714D01*
X39059286Y-14897714D01*
X39087857Y-14912000D01*
X39102143Y-14926286D01*
X39116428Y-14954857D01*
X39116428Y-15040572D01*
X39102143Y-15069143D01*
X39087857Y-15083429D01*
X39059286Y-15097714D01*
X39016428Y-15097714D01*
X39287857Y-15097714D02*
X39259286Y-15083429D01*
X39245000Y-15054857D01*
X39245000Y-14797714D01*
X39516428Y-15083429D02*
X39487857Y-15097714D01*
X39430714Y-15097714D01*
X39402143Y-15083429D01*
X39387857Y-15054857D01*
X39387857Y-14940572D01*
X39402143Y-14912000D01*
X39430714Y-14897714D01*
X39487857Y-14897714D01*
X39516428Y-14912000D01*
X39530714Y-14940572D01*
X39530714Y-14969143D01*
X39387857Y-14997714D01*
X39645000Y-15083429D02*
X39673571Y-15097714D01*
X39730714Y-15097714D01*
X39759286Y-15083429D01*
X39773571Y-15054857D01*
X39773571Y-15040572D01*
X39759286Y-15012000D01*
X39730714Y-14997714D01*
X39687857Y-14997714D01*
X39659286Y-14983429D01*
X39645000Y-14954857D01*
X39645000Y-14940572D01*
X39659286Y-14912000D01*
X39687857Y-14897714D01*
X39730714Y-14897714D01*
X39759286Y-14912000D01*
X39873571Y-15212000D02*
X39887857Y-15197714D01*
X39916428Y-15154857D01*
X39930714Y-15126286D01*
X39945000Y-15083429D01*
X39959286Y-15012000D01*
X39959286Y-14954857D01*
X39945000Y-14883429D01*
X39930714Y-14840572D01*
X39916428Y-14812000D01*
X39887857Y-14769143D01*
X39873571Y-14754857D01*
X32508054Y-15410984D02*
X32508054Y-15305016D01*
X32402086Y-15305016D01*
X32402086Y-15410984D01*
X32508054Y-15410984D01*
X32973571Y-15493714D02*
X32802143Y-15493714D01*
X32887857Y-15493714D02*
X32887857Y-15193714D01*
X32859285Y-15236572D01*
X32830714Y-15265143D01*
X32802143Y-15279429D01*
X33102143Y-15465143D02*
X33116428Y-15479429D01*
X33102143Y-15493714D01*
X33087857Y-15479429D01*
X33102143Y-15465143D01*
X33102143Y-15493714D01*
X33373571Y-15293714D02*
X33373571Y-15493714D01*
X33302143Y-15179429D02*
X33230714Y-15393714D01*
X33416428Y-15393714D01*
X33545000Y-15493714D02*
X33602143Y-15493714D01*
X33630714Y-15479429D01*
X33645000Y-15465143D01*
X33673571Y-15422286D01*
X33687857Y-15365143D01*
X33687857Y-15250857D01*
X33673571Y-15222286D01*
X33659286Y-15208000D01*
X33630714Y-15193714D01*
X33573571Y-15193714D01*
X33545000Y-15208000D01*
X33530714Y-15222286D01*
X33516428Y-15250857D01*
X33516428Y-15322286D01*
X33530714Y-15350857D01*
X33545000Y-15365143D01*
X33573571Y-15379429D01*
X33630714Y-15379429D01*
X33659286Y-15365143D01*
X33673571Y-15350857D01*
X33687857Y-15322286D01*
X33830714Y-15493714D02*
X33887857Y-15493714D01*
X33916428Y-15479429D01*
X33930714Y-15465143D01*
X33959286Y-15422286D01*
X33973571Y-15365143D01*
X33973571Y-15250857D01*
X33959286Y-15222286D01*
X33945000Y-15208000D01*
X33916428Y-15193714D01*
X33859286Y-15193714D01*
X33830714Y-15208000D01*
X33816428Y-15222286D01*
X33802143Y-15250857D01*
X33802143Y-15322286D01*
X33816428Y-15350857D01*
X33830714Y-15365143D01*
X33859286Y-15379429D01*
X33916428Y-15379429D01*
X33945000Y-15365143D01*
X33959286Y-15350857D01*
X33973571Y-15322286D01*
X34102143Y-15493714D02*
X34102143Y-15293714D01*
X34102143Y-15322286D02*
X34116428Y-15308000D01*
X34145000Y-15293714D01*
X34187857Y-15293714D01*
X34216428Y-15308000D01*
X34230714Y-15336572D01*
X34230714Y-15493714D01*
X34230714Y-15336572D02*
X34245000Y-15308000D01*
X34273571Y-15293714D01*
X34316428Y-15293714D01*
X34345000Y-15308000D01*
X34359286Y-15336572D01*
X34359286Y-15493714D01*
X34502143Y-15493714D02*
X34502143Y-15293714D01*
X34502143Y-15322286D02*
X34516428Y-15308000D01*
X34545000Y-15293714D01*
X34587857Y-15293714D01*
X34616428Y-15308000D01*
X34630714Y-15336572D01*
X34630714Y-15493714D01*
X34630714Y-15336572D02*
X34645000Y-15308000D01*
X34673571Y-15293714D01*
X34716428Y-15293714D01*
X34745000Y-15308000D01*
X34759286Y-15336572D01*
X34759286Y-15493714D01*
X35345000Y-15179429D02*
X35087857Y-15565143D01*
X35730714Y-15193714D02*
X35759286Y-15193714D01*
X35787857Y-15208000D01*
X35802143Y-15222286D01*
X35816428Y-15250857D01*
X35830714Y-15308000D01*
X35830714Y-15379429D01*
X35816428Y-15436572D01*
X35802143Y-15465143D01*
X35787857Y-15479429D01*
X35759286Y-15493714D01*
X35730714Y-15493714D01*
X35702143Y-15479429D01*
X35687857Y-15465143D01*
X35673571Y-15436572D01*
X35659286Y-15379429D01*
X35659286Y-15308000D01*
X35673571Y-15250857D01*
X35687857Y-15222286D01*
X35702143Y-15208000D01*
X35730714Y-15193714D01*
X35959286Y-15465143D02*
X35973571Y-15479429D01*
X35959286Y-15493714D01*
X35945000Y-15479429D01*
X35959286Y-15465143D01*
X35959286Y-15493714D01*
X36159286Y-15193714D02*
X36187857Y-15193714D01*
X36216428Y-15208000D01*
X36230714Y-15222286D01*
X36245000Y-15250857D01*
X36259286Y-15308000D01*
X36259286Y-15379429D01*
X36245000Y-15436572D01*
X36230714Y-15465143D01*
X36216428Y-15479429D01*
X36187857Y-15493714D01*
X36159286Y-15493714D01*
X36130714Y-15479429D01*
X36116428Y-15465143D01*
X36102143Y-15436572D01*
X36087857Y-15379429D01*
X36087857Y-15308000D01*
X36102143Y-15250857D01*
X36116428Y-15222286D01*
X36130714Y-15208000D01*
X36159286Y-15193714D01*
X36530714Y-15193714D02*
X36387857Y-15193714D01*
X36373571Y-15336572D01*
X36387857Y-15322286D01*
X36416428Y-15308000D01*
X36487857Y-15308000D01*
X36516428Y-15322286D01*
X36530714Y-15336572D01*
X36545000Y-15365143D01*
X36545000Y-15436572D01*
X36530714Y-15465143D01*
X36516428Y-15479429D01*
X36487857Y-15493714D01*
X36416428Y-15493714D01*
X36387857Y-15479429D01*
X36373571Y-15465143D01*
X36687857Y-15493714D02*
X36745000Y-15493714D01*
X36773571Y-15479429D01*
X36787857Y-15465143D01*
X36816428Y-15422286D01*
X36830714Y-15365143D01*
X36830714Y-15250857D01*
X36816428Y-15222286D01*
X36802143Y-15208000D01*
X36773571Y-15193714D01*
X36716428Y-15193714D01*
X36687857Y-15208000D01*
X36673571Y-15222286D01*
X36659286Y-15250857D01*
X36659286Y-15322286D01*
X36673571Y-15350857D01*
X36687857Y-15365143D01*
X36716428Y-15379429D01*
X36773571Y-15379429D01*
X36802143Y-15365143D01*
X36816428Y-15350857D01*
X36830714Y-15322286D01*
X37016428Y-15193714D02*
X37045000Y-15193714D01*
X37073571Y-15208000D01*
X37087857Y-15222286D01*
X37102143Y-15250857D01*
X37116428Y-15308000D01*
X37116428Y-15379429D01*
X37102143Y-15436572D01*
X37087857Y-15465143D01*
X37073571Y-15479429D01*
X37045000Y-15493714D01*
X37016428Y-15493714D01*
X36987857Y-15479429D01*
X36973571Y-15465143D01*
X36959286Y-15436572D01*
X36945000Y-15379429D01*
X36945000Y-15308000D01*
X36959286Y-15250857D01*
X36973571Y-15222286D01*
X36987857Y-15208000D01*
X37016428Y-15193714D01*
X37230714Y-15193714D02*
X37230714Y-15250857D01*
X37345000Y-15193714D02*
X37345000Y-15250857D01*
X37787857Y-15608000D02*
X37773571Y-15593714D01*
X37745000Y-15550857D01*
X37730714Y-15522286D01*
X37716428Y-15479429D01*
X37702143Y-15408000D01*
X37702143Y-15350857D01*
X37716428Y-15279429D01*
X37730714Y-15236572D01*
X37745000Y-15208000D01*
X37773571Y-15165143D01*
X37787857Y-15150857D01*
X38030714Y-15293714D02*
X38030714Y-15493714D01*
X37959286Y-15179429D02*
X37887857Y-15393714D01*
X38073571Y-15393714D01*
X38230714Y-15322286D02*
X38202143Y-15308000D01*
X38187857Y-15293714D01*
X38173571Y-15265143D01*
X38173571Y-15250857D01*
X38187857Y-15222286D01*
X38202143Y-15208000D01*
X38230714Y-15193714D01*
X38287857Y-15193714D01*
X38316428Y-15208000D01*
X38330714Y-15222286D01*
X38345000Y-15250857D01*
X38345000Y-15265143D01*
X38330714Y-15293714D01*
X38316428Y-15308000D01*
X38287857Y-15322286D01*
X38230714Y-15322286D01*
X38202143Y-15336572D01*
X38187857Y-15350857D01*
X38173571Y-15379429D01*
X38173571Y-15436572D01*
X38187857Y-15465143D01*
X38202143Y-15479429D01*
X38230714Y-15493714D01*
X38287857Y-15493714D01*
X38316428Y-15479429D01*
X38330714Y-15465143D01*
X38345000Y-15436572D01*
X38345000Y-15379429D01*
X38330714Y-15350857D01*
X38316428Y-15336572D01*
X38287857Y-15322286D01*
X38702143Y-15493714D02*
X38702143Y-15193714D01*
X38830714Y-15493714D02*
X38830714Y-15336572D01*
X38816428Y-15308000D01*
X38787857Y-15293714D01*
X38745000Y-15293714D01*
X38716428Y-15308000D01*
X38702143Y-15322286D01*
X39016428Y-15493714D02*
X38987857Y-15479429D01*
X38973571Y-15465143D01*
X38959286Y-15436572D01*
X38959286Y-15350857D01*
X38973571Y-15322286D01*
X38987857Y-15308000D01*
X39016428Y-15293714D01*
X39059286Y-15293714D01*
X39087857Y-15308000D01*
X39102143Y-15322286D01*
X39116428Y-15350857D01*
X39116428Y-15436572D01*
X39102143Y-15465143D01*
X39087857Y-15479429D01*
X39059286Y-15493714D01*
X39016428Y-15493714D01*
X39287857Y-15493714D02*
X39259286Y-15479429D01*
X39245000Y-15450857D01*
X39245000Y-15193714D01*
X39516428Y-15479429D02*
X39487857Y-15493714D01*
X39430714Y-15493714D01*
X39402143Y-15479429D01*
X39387857Y-15450857D01*
X39387857Y-15336572D01*
X39402143Y-15308000D01*
X39430714Y-15293714D01*
X39487857Y-15293714D01*
X39516428Y-15308000D01*
X39530714Y-15336572D01*
X39530714Y-15365143D01*
X39387857Y-15393714D01*
X39645000Y-15479429D02*
X39673571Y-15493714D01*
X39730714Y-15493714D01*
X39759286Y-15479429D01*
X39773571Y-15450857D01*
X39773571Y-15436572D01*
X39759286Y-15408000D01*
X39730714Y-15393714D01*
X39687857Y-15393714D01*
X39659286Y-15379429D01*
X39645000Y-15350857D01*
X39645000Y-15336572D01*
X39659286Y-15308000D01*
X39687857Y-15293714D01*
X39730714Y-15293714D01*
X39759286Y-15308000D01*
X39873571Y-15608000D02*
X39887857Y-15593714D01*
X39916428Y-15550857D01*
X39930714Y-15522286D01*
X39945000Y-15479429D01*
X39959286Y-15408000D01*
X39959286Y-15350857D01*
X39945000Y-15279429D01*
X39930714Y-15236572D01*
X39916428Y-15208000D01*
X39887857Y-15165143D01*
X39873571Y-15150857D01*
X32430000Y-15854000D02*
X32530000Y-15754000D01*
X32430000Y-15654000D01*
X32330000Y-15754000D01*
X32430000Y-15854000D01*
X32802143Y-15618286D02*
X32816428Y-15604000D01*
X32845000Y-15589714D01*
X32916428Y-15589714D01*
X32945000Y-15604000D01*
X32959285Y-15618286D01*
X32973571Y-15646857D01*
X32973571Y-15675429D01*
X32959285Y-15718286D01*
X32787857Y-15889714D01*
X32973571Y-15889714D01*
X33102143Y-15861143D02*
X33116428Y-15875429D01*
X33102143Y-15889714D01*
X33087857Y-15875429D01*
X33102143Y-15861143D01*
X33102143Y-15889714D01*
X33302143Y-15589714D02*
X33330714Y-15589714D01*
X33359285Y-15604000D01*
X33373571Y-15618286D01*
X33387857Y-15646857D01*
X33402143Y-15704000D01*
X33402143Y-15775429D01*
X33387857Y-15832572D01*
X33373571Y-15861143D01*
X33359285Y-15875429D01*
X33330714Y-15889714D01*
X33302143Y-15889714D01*
X33273571Y-15875429D01*
X33259285Y-15861143D01*
X33245000Y-15832572D01*
X33230714Y-15775429D01*
X33230714Y-15704000D01*
X33245000Y-15646857D01*
X33259285Y-15618286D01*
X33273571Y-15604000D01*
X33302143Y-15589714D01*
X33587857Y-15589714D02*
X33616428Y-15589714D01*
X33645000Y-15604000D01*
X33659286Y-15618286D01*
X33673571Y-15646857D01*
X33687857Y-15704000D01*
X33687857Y-15775429D01*
X33673571Y-15832572D01*
X33659286Y-15861143D01*
X33645000Y-15875429D01*
X33616428Y-15889714D01*
X33587857Y-15889714D01*
X33559286Y-15875429D01*
X33545000Y-15861143D01*
X33530714Y-15832572D01*
X33516428Y-15775429D01*
X33516428Y-15704000D01*
X33530714Y-15646857D01*
X33545000Y-15618286D01*
X33559286Y-15604000D01*
X33587857Y-15589714D01*
X33873571Y-15589714D02*
X33902143Y-15589714D01*
X33930714Y-15604000D01*
X33945000Y-15618286D01*
X33959286Y-15646857D01*
X33973571Y-15704000D01*
X33973571Y-15775429D01*
X33959286Y-15832572D01*
X33945000Y-15861143D01*
X33930714Y-15875429D01*
X33902143Y-15889714D01*
X33873571Y-15889714D01*
X33845000Y-15875429D01*
X33830714Y-15861143D01*
X33816428Y-15832572D01*
X33802143Y-15775429D01*
X33802143Y-15704000D01*
X33816428Y-15646857D01*
X33830714Y-15618286D01*
X33845000Y-15604000D01*
X33873571Y-15589714D01*
X34102143Y-15889714D02*
X34102143Y-15689714D01*
X34102143Y-15718286D02*
X34116428Y-15704000D01*
X34145000Y-15689714D01*
X34187857Y-15689714D01*
X34216428Y-15704000D01*
X34230714Y-15732572D01*
X34230714Y-15889714D01*
X34230714Y-15732572D02*
X34245000Y-15704000D01*
X34273571Y-15689714D01*
X34316428Y-15689714D01*
X34345000Y-15704000D01*
X34359286Y-15732572D01*
X34359286Y-15889714D01*
X34502143Y-15889714D02*
X34502143Y-15689714D01*
X34502143Y-15718286D02*
X34516428Y-15704000D01*
X34545000Y-15689714D01*
X34587857Y-15689714D01*
X34616428Y-15704000D01*
X34630714Y-15732572D01*
X34630714Y-15889714D01*
X34630714Y-15732572D02*
X34645000Y-15704000D01*
X34673571Y-15689714D01*
X34716428Y-15689714D01*
X34745000Y-15704000D01*
X34759286Y-15732572D01*
X34759286Y-15889714D01*
X35345000Y-15575429D02*
X35087857Y-15961143D01*
X35730714Y-15589714D02*
X35759286Y-15589714D01*
X35787857Y-15604000D01*
X35802143Y-15618286D01*
X35816428Y-15646857D01*
X35830714Y-15704000D01*
X35830714Y-15775429D01*
X35816428Y-15832572D01*
X35802143Y-15861143D01*
X35787857Y-15875429D01*
X35759286Y-15889714D01*
X35730714Y-15889714D01*
X35702143Y-15875429D01*
X35687857Y-15861143D01*
X35673571Y-15832572D01*
X35659286Y-15775429D01*
X35659286Y-15704000D01*
X35673571Y-15646857D01*
X35687857Y-15618286D01*
X35702143Y-15604000D01*
X35730714Y-15589714D01*
X35959286Y-15861143D02*
X35973571Y-15875429D01*
X35959286Y-15889714D01*
X35945000Y-15875429D01*
X35959286Y-15861143D01*
X35959286Y-15889714D01*
X36159286Y-15589714D02*
X36187857Y-15589714D01*
X36216428Y-15604000D01*
X36230714Y-15618286D01*
X36245000Y-15646857D01*
X36259286Y-15704000D01*
X36259286Y-15775429D01*
X36245000Y-15832572D01*
X36230714Y-15861143D01*
X36216428Y-15875429D01*
X36187857Y-15889714D01*
X36159286Y-15889714D01*
X36130714Y-15875429D01*
X36116428Y-15861143D01*
X36102143Y-15832572D01*
X36087857Y-15775429D01*
X36087857Y-15704000D01*
X36102143Y-15646857D01*
X36116428Y-15618286D01*
X36130714Y-15604000D01*
X36159286Y-15589714D01*
X36359286Y-15589714D02*
X36559286Y-15589714D01*
X36430714Y-15889714D01*
X36716428Y-15718286D02*
X36687857Y-15704000D01*
X36673571Y-15689714D01*
X36659286Y-15661143D01*
X36659286Y-15646857D01*
X36673571Y-15618286D01*
X36687857Y-15604000D01*
X36716428Y-15589714D01*
X36773571Y-15589714D01*
X36802143Y-15604000D01*
X36816428Y-15618286D01*
X36830714Y-15646857D01*
X36830714Y-15661143D01*
X36816428Y-15689714D01*
X36802143Y-15704000D01*
X36773571Y-15718286D01*
X36716428Y-15718286D01*
X36687857Y-15732572D01*
X36673571Y-15746857D01*
X36659286Y-15775429D01*
X36659286Y-15832572D01*
X36673571Y-15861143D01*
X36687857Y-15875429D01*
X36716428Y-15889714D01*
X36773571Y-15889714D01*
X36802143Y-15875429D01*
X36816428Y-15861143D01*
X36830714Y-15832572D01*
X36830714Y-15775429D01*
X36816428Y-15746857D01*
X36802143Y-15732572D01*
X36773571Y-15718286D01*
X36930714Y-15589714D02*
X37130714Y-15589714D01*
X37002143Y-15889714D01*
X37230714Y-15589714D02*
X37230714Y-15646857D01*
X37345000Y-15589714D02*
X37345000Y-15646857D01*
X37787857Y-16004000D02*
X37773571Y-15989714D01*
X37745000Y-15946857D01*
X37730714Y-15918286D01*
X37716428Y-15875429D01*
X37702143Y-15804000D01*
X37702143Y-15746857D01*
X37716428Y-15675429D01*
X37730714Y-15632572D01*
X37745000Y-15604000D01*
X37773571Y-15561143D01*
X37787857Y-15546857D01*
X37959286Y-15589714D02*
X37987857Y-15589714D01*
X38016428Y-15604000D01*
X38030714Y-15618286D01*
X38045000Y-15646857D01*
X38059286Y-15704000D01*
X38059286Y-15775429D01*
X38045000Y-15832572D01*
X38030714Y-15861143D01*
X38016428Y-15875429D01*
X37987857Y-15889714D01*
X37959286Y-15889714D01*
X37930714Y-15875429D01*
X37916428Y-15861143D01*
X37902143Y-15832572D01*
X37887857Y-15775429D01*
X37887857Y-15704000D01*
X37902143Y-15646857D01*
X37916428Y-15618286D01*
X37930714Y-15604000D01*
X37959286Y-15589714D01*
X38416428Y-15889714D02*
X38416428Y-15589714D01*
X38545000Y-15889714D02*
X38545000Y-15732572D01*
X38530714Y-15704000D01*
X38502143Y-15689714D01*
X38459286Y-15689714D01*
X38430714Y-15704000D01*
X38416428Y-15718286D01*
X38730714Y-15889714D02*
X38702143Y-15875429D01*
X38687857Y-15861143D01*
X38673571Y-15832572D01*
X38673571Y-15746857D01*
X38687857Y-15718286D01*
X38702143Y-15704000D01*
X38730714Y-15689714D01*
X38773571Y-15689714D01*
X38802143Y-15704000D01*
X38816428Y-15718286D01*
X38830714Y-15746857D01*
X38830714Y-15832572D01*
X38816428Y-15861143D01*
X38802143Y-15875429D01*
X38773571Y-15889714D01*
X38730714Y-15889714D01*
X39002143Y-15889714D02*
X38973571Y-15875429D01*
X38959286Y-15846857D01*
X38959286Y-15589714D01*
X39230714Y-15875429D02*
X39202143Y-15889714D01*
X39145000Y-15889714D01*
X39116428Y-15875429D01*
X39102143Y-15846857D01*
X39102143Y-15732572D01*
X39116428Y-15704000D01*
X39145000Y-15689714D01*
X39202143Y-15689714D01*
X39230714Y-15704000D01*
X39245000Y-15732572D01*
X39245000Y-15761143D01*
X39102143Y-15789714D01*
X39359286Y-15875429D02*
X39387857Y-15889714D01*
X39445000Y-15889714D01*
X39473571Y-15875429D01*
X39487857Y-15846857D01*
X39487857Y-15832572D01*
X39473571Y-15804000D01*
X39445000Y-15789714D01*
X39402143Y-15789714D01*
X39373571Y-15775429D01*
X39359286Y-15746857D01*
X39359286Y-15732572D01*
X39373571Y-15704000D01*
X39402143Y-15689714D01*
X39445000Y-15689714D01*
X39473571Y-15704000D01*
X39845000Y-15775429D02*
X40073571Y-15775429D01*
X39959286Y-15889714D02*
X39959286Y-15661143D01*
X40573571Y-15689714D02*
X40573571Y-15889714D01*
X40502143Y-15575429D02*
X40430714Y-15789714D01*
X40616428Y-15789714D01*
X40945000Y-15875429D02*
X40973571Y-15889714D01*
X41030714Y-15889714D01*
X41059286Y-15875429D01*
X41073571Y-15846857D01*
X41073571Y-15832572D01*
X41059286Y-15804000D01*
X41030714Y-15789714D01*
X40987857Y-15789714D01*
X40959286Y-15775429D01*
X40945000Y-15746857D01*
X40945000Y-15732572D01*
X40959286Y-15704000D01*
X40987857Y-15689714D01*
X41030714Y-15689714D01*
X41059286Y-15704000D01*
X41245000Y-15889714D02*
X41216428Y-15875429D01*
X41202143Y-15846857D01*
X41202143Y-15589714D01*
X41402143Y-15889714D02*
X41373571Y-15875429D01*
X41359286Y-15861143D01*
X41345000Y-15832572D01*
X41345000Y-15746857D01*
X41359286Y-15718286D01*
X41373571Y-15704000D01*
X41402143Y-15689714D01*
X41445000Y-15689714D01*
X41473571Y-15704000D01*
X41487857Y-15718286D01*
X41502143Y-15746857D01*
X41502143Y-15832572D01*
X41487857Y-15861143D01*
X41473571Y-15875429D01*
X41445000Y-15889714D01*
X41402143Y-15889714D01*
X41587857Y-15689714D02*
X41702143Y-15689714D01*
X41630714Y-15589714D02*
X41630714Y-15846857D01*
X41645000Y-15875429D01*
X41673571Y-15889714D01*
X41702143Y-15889714D01*
X41787857Y-15875429D02*
X41816428Y-15889714D01*
X41873571Y-15889714D01*
X41902143Y-15875429D01*
X41916428Y-15846857D01*
X41916428Y-15832572D01*
X41902143Y-15804000D01*
X41873571Y-15789714D01*
X41830714Y-15789714D01*
X41802143Y-15775429D01*
X41787857Y-15746857D01*
X41787857Y-15732572D01*
X41802143Y-15704000D01*
X41830714Y-15689714D01*
X41873571Y-15689714D01*
X41902143Y-15704000D01*
X42016428Y-16004000D02*
X42030714Y-15989714D01*
X42059286Y-15946857D01*
X42073571Y-15918286D01*
X42087857Y-15875429D01*
X42102143Y-15804000D01*
X42102143Y-15746857D01*
X42087857Y-15675429D01*
X42073571Y-15632572D01*
X42059286Y-15604000D01*
X42030714Y-15561143D01*
X42016428Y-15546857D01*
M02*
