%TF.GenerationSoftware,KiCad,Pcbnew,(5.1.10-1-10_14)*%
%TF.CreationDate,2021-11-02T16:22:22+01:00*%
%TF.ProjectId,blastpad,626c6173-7470-4616-942e-6b696361645f,rev?*%
%TF.SameCoordinates,Original*%
%TF.FileFunction,Copper,L2,Bot*%
%TF.FilePolarity,Positive*%
%FSLAX46Y46*%
G04 Gerber Fmt 4.6, Leading zero omitted, Abs format (unit mm)*
G04 Created by KiCad (PCBNEW (5.1.10-1-10_14)) date 2021-11-02 16:22:22*
%MOMM*%
%LPD*%
G01*
G04 APERTURE LIST*
%TA.AperFunction,ComponentPad*%
%ADD10C,1.651000*%
%TD*%
%TA.AperFunction,ComponentPad*%
%ADD11R,1.651000X1.651000*%
%TD*%
%TA.AperFunction,ComponentPad*%
%ADD12R,1.700000X1.700000*%
%TD*%
%TA.AperFunction,ComponentPad*%
%ADD13C,1.700000*%
%TD*%
%TA.AperFunction,WasherPad*%
%ADD14C,4.620000*%
%TD*%
%TA.AperFunction,ComponentPad*%
%ADD15O,1.700000X1.700000*%
%TD*%
%TA.AperFunction,ComponentPad*%
%ADD16C,2.286000*%
%TD*%
%TA.AperFunction,ComponentPad*%
%ADD17R,2.000000X2.000000*%
%TD*%
%TA.AperFunction,ComponentPad*%
%ADD18C,2.000000*%
%TD*%
%TA.AperFunction,ComponentPad*%
%ADD19R,2.500000X3.000000*%
%TD*%
%TA.AperFunction,ComponentPad*%
%ADD20C,0.150000*%
%TD*%
%TA.AperFunction,Conductor*%
%ADD21C,0.381000*%
%TD*%
G04 APERTURE END LIST*
D10*
%TO.P,D4:4,1*%
%TO.N,Net-(D4:4-Pad1)*%
X446900000Y-45080000D03*
D11*
%TO.P,D4:4,2*%
%TO.N,/COL4*%
X446900000Y-34920000D03*
%TD*%
D10*
%TO.P,D4:3,1*%
%TO.N,Net-(D4:3-Pad1)*%
X427850000Y-45080000D03*
D11*
%TO.P,D4:3,2*%
%TO.N,/COL3*%
X427850000Y-34920000D03*
%TD*%
D10*
%TO.P,D4:2,1*%
%TO.N,Net-(D4:2-Pad1)*%
X408800000Y-45080000D03*
D11*
%TO.P,D4:2,2*%
%TO.N,/COL2*%
X408800000Y-34920000D03*
%TD*%
D10*
%TO.P,D4:1,1*%
%TO.N,Net-(D4:1-Pad1)*%
X389750000Y-45080000D03*
D11*
%TO.P,D4:1,2*%
%TO.N,/COL1*%
X389750000Y-34920000D03*
%TD*%
D10*
%TO.P,D4:0,1*%
%TO.N,Net-(D4:0-Pad1)*%
X370700000Y-45080000D03*
D11*
%TO.P,D4:0,2*%
%TO.N,/COL0*%
X370700000Y-34920000D03*
%TD*%
D10*
%TO.P,D3:4,1*%
%TO.N,Net-(D3:4-Pad1)*%
X446900000Y-64130000D03*
D11*
%TO.P,D3:4,2*%
%TO.N,/COL4*%
X446900000Y-53970000D03*
%TD*%
D10*
%TO.P,D3:3,1*%
%TO.N,Net-(D3:3-Pad1)*%
X427850000Y-64130000D03*
D11*
%TO.P,D3:3,2*%
%TO.N,/COL3*%
X427850000Y-53970000D03*
%TD*%
D10*
%TO.P,D3:2,1*%
%TO.N,Net-(D3:2-Pad1)*%
X408800000Y-64130000D03*
D11*
%TO.P,D3:2,2*%
%TO.N,/COL2*%
X408800000Y-53970000D03*
%TD*%
D10*
%TO.P,D3:1,1*%
%TO.N,Net-(D3:1-Pad1)*%
X389750000Y-64130000D03*
D11*
%TO.P,D3:1,2*%
%TO.N,/COL1*%
X389750000Y-53970000D03*
%TD*%
D10*
%TO.P,D3:0,1*%
%TO.N,Net-(D3:0-Pad1)*%
X370700000Y-64130000D03*
D11*
%TO.P,D3:0,2*%
%TO.N,/COL0*%
X370700000Y-53970000D03*
%TD*%
D10*
%TO.P,D2:4,1*%
%TO.N,Net-(D2:4-Pad1)*%
X446900000Y-83180000D03*
D11*
%TO.P,D2:4,2*%
%TO.N,/COL4*%
X446900000Y-73020000D03*
%TD*%
D10*
%TO.P,D2:3,1*%
%TO.N,Net-(D2:3-Pad1)*%
X427850000Y-83180000D03*
D11*
%TO.P,D2:3,2*%
%TO.N,/COL3*%
X427850000Y-73020000D03*
%TD*%
D10*
%TO.P,D2:2,1*%
%TO.N,Net-(D2:2-Pad1)*%
X408800000Y-83180000D03*
D11*
%TO.P,D2:2,2*%
%TO.N,/COL2*%
X408800000Y-73020000D03*
%TD*%
D10*
%TO.P,D2:1,1*%
%TO.N,Net-(D2:1-Pad1)*%
X389750000Y-83180000D03*
D11*
%TO.P,D2:1,2*%
%TO.N,/COL1*%
X389750000Y-73020000D03*
%TD*%
D10*
%TO.P,D2:0,1*%
%TO.N,Net-(D2:0-Pad1)*%
X370700000Y-83180000D03*
D11*
%TO.P,D2:0,2*%
%TO.N,/COL0*%
X370700000Y-73020000D03*
%TD*%
D10*
%TO.P,D1:4,1*%
%TO.N,Net-(D1:4-Pad1)*%
X446900000Y-102230000D03*
D11*
%TO.P,D1:4,2*%
%TO.N,/COL4*%
X446900000Y-92070000D03*
%TD*%
D10*
%TO.P,D1:3,1*%
%TO.N,Net-(D1:3-Pad1)*%
X427850000Y-102230000D03*
D11*
%TO.P,D1:3,2*%
%TO.N,/COL3*%
X427850000Y-92070000D03*
%TD*%
D10*
%TO.P,D1:2,1*%
%TO.N,Net-(D1:2-Pad1)*%
X408800000Y-102230000D03*
D11*
%TO.P,D1:2,2*%
%TO.N,/COL2*%
X408800000Y-92070000D03*
%TD*%
D10*
%TO.P,D1:1,1*%
%TO.N,Net-(D1:1-Pad1)*%
X370700000Y-102230000D03*
D11*
%TO.P,D1:1,2*%
%TO.N,/COL1*%
X370700000Y-92070000D03*
%TD*%
D10*
%TO.P,D0:4,1*%
%TO.N,Net-(D0:4-Pad1)*%
X427850000Y-121280000D03*
D11*
%TO.P,D0:4,2*%
%TO.N,/COL4*%
X427850000Y-111120000D03*
%TD*%
D10*
%TO.P,D0:2,1*%
%TO.N,Net-(D0:2-Pad1)*%
X408800000Y-121280000D03*
D11*
%TO.P,D0:2,2*%
%TO.N,/COL2*%
X408800000Y-111120000D03*
%TD*%
D10*
%TO.P,D0:1,1*%
%TO.N,Net-(D0:1-Pad1)*%
X389750000Y-121280000D03*
D11*
%TO.P,D0:1,2*%
%TO.N,/COL1*%
X389750000Y-111120000D03*
%TD*%
D10*
%TO.P,D0:0,1*%
%TO.N,Net-(D0:0-Pad1)*%
X370700000Y-121280000D03*
D11*
%TO.P,D0:0,2*%
%TO.N,/COL0*%
X370700000Y-111120000D03*
%TD*%
D12*
%TO.P,DISPLAY1,2*%
%TO.N,GND*%
X489810000Y-28875000D03*
D13*
%TO.P,DISPLAY1,3*%
%TO.N,/SCL*%
X492350000Y-28875000D03*
%TO.P,DISPLAY1,4*%
%TO.N,/SDA*%
X494890000Y-28875000D03*
%TO.P,DISPLAY1,1*%
%TO.N,VCC*%
X487270000Y-28875000D03*
D14*
%TO.P,DISPLAY1,*%
%TO.N,*%
X475677400Y-30333000D03*
X506482600Y-30333000D03*
X506482600Y-58907000D03*
X475677400Y-58907000D03*
%TD*%
D15*
%TO.P,MCU1,43*%
%TO.N,Net-(MCU1-Pad43)*%
X353540000Y-72500000D03*
D12*
%TO.P,MCU1,42*%
%TO.N,Net-(MCU1-Pad42)*%
X351000000Y-72500000D03*
D15*
%TO.P,MCU1,41*%
%TO.N,Net-(MCU1-Pad41)*%
X348460000Y-72500000D03*
%TO.P,MCU1,40*%
%TO.N,Net-(MCU1-Pad40)*%
X359890000Y-24470000D03*
%TO.P,MCU1,39*%
%TO.N,Net-(MCU1-Pad39)*%
X359890000Y-27010000D03*
D12*
%TO.P,MCU1,38*%
%TO.N,GND*%
X359890000Y-29550000D03*
D15*
%TO.P,MCU1,37*%
%TO.N,Net-(MCU1-Pad37)*%
X359890000Y-32090000D03*
%TO.P,MCU1,36*%
%TO.N,VCC*%
X359890000Y-34630000D03*
%TO.P,MCU1,35*%
%TO.N,Net-(MCU1-Pad35)*%
X359890000Y-37170000D03*
%TO.P,MCU1,34*%
%TO.N,/COL4*%
X359890000Y-39710000D03*
D12*
%TO.P,MCU1,33*%
%TO.N,GND*%
X359890000Y-42250000D03*
D15*
%TO.P,MCU1,32*%
%TO.N,/COL3*%
X359890000Y-44790000D03*
%TO.P,MCU1,31*%
%TO.N,/COL2*%
X359890000Y-47330000D03*
%TO.P,MCU1,30*%
%TO.N,Net-(MCU1-Pad30)*%
X359890000Y-49870000D03*
%TO.P,MCU1,29*%
%TO.N,/COL1*%
X359890000Y-52410000D03*
D12*
%TO.P,MCU1,28*%
%TO.N,GND*%
X359890000Y-54950000D03*
D15*
%TO.P,MCU1,27*%
%TO.N,/COL0*%
X359890000Y-57490000D03*
%TO.P,MCU1,26*%
%TO.N,/ROW4*%
X359890000Y-60030000D03*
%TO.P,MCU1,25*%
%TO.N,/ROW3*%
X359890000Y-62570000D03*
%TO.P,MCU1,24*%
%TO.N,/ROW2*%
X359890000Y-65110000D03*
D12*
%TO.P,MCU1,23*%
%TO.N,GND*%
X359890000Y-67650000D03*
D15*
%TO.P,MCU1,22*%
%TO.N,/ROW1*%
X359890000Y-70190000D03*
%TO.P,MCU1,21*%
%TO.N,/ROW0*%
X359890000Y-72730000D03*
%TO.P,MCU1,20*%
%TO.N,/EN2_SW*%
X342110000Y-72730000D03*
%TO.P,MCU1,19*%
%TO.N,Net-(MCU1-Pad19)*%
X342110000Y-70190000D03*
D12*
%TO.P,MCU1,18*%
%TO.N,GND*%
X342110000Y-67650000D03*
D15*
%TO.P,MCU1,17*%
%TO.N,Net-(MCU1-Pad17)*%
X342110000Y-65110000D03*
%TO.P,MCU1,16*%
%TO.N,Net-(MCU1-Pad16)*%
X342110000Y-62570000D03*
%TO.P,MCU1,15*%
%TO.N,Net-(MCU1-Pad15)*%
X342110000Y-60030000D03*
%TO.P,MCU1,14*%
%TO.N,Net-(MCU1-Pad14)*%
X342110000Y-57490000D03*
D12*
%TO.P,MCU1,13*%
%TO.N,GND*%
X342110000Y-54950000D03*
D15*
%TO.P,MCU1,12*%
%TO.N,/SCL*%
X342110000Y-52410000D03*
%TO.P,MCU1,11*%
%TO.N,/SDA*%
X342110000Y-49870000D03*
%TO.P,MCU1,10*%
%TO.N,Net-(MCU1-Pad10)*%
X342110000Y-47330000D03*
%TO.P,MCU1,9*%
%TO.N,Net-(MCU1-Pad9)*%
X342110000Y-44790000D03*
D12*
%TO.P,MCU1,8*%
%TO.N,GND*%
X342110000Y-42250000D03*
D15*
%TO.P,MCU1,7*%
%TO.N,/EN1_A*%
X342110000Y-39710000D03*
%TO.P,MCU1,6*%
%TO.N,/EN1_B*%
X342110000Y-37170000D03*
%TO.P,MCU1,5*%
%TO.N,/EN2_A*%
X342110000Y-34630000D03*
%TO.P,MCU1,4*%
%TO.N,/EN2_B*%
X342110000Y-32090000D03*
D12*
%TO.P,MCU1,3*%
%TO.N,GND*%
X342110000Y-29550000D03*
D15*
%TO.P,MCU1,2*%
%TO.N,/EN1_SW*%
X342110000Y-27010000D03*
%TO.P,MCU1,1*%
%TO.N,/SW_WHEEL*%
X342110000Y-24470000D03*
%TD*%
D16*
%TO.P,SW0:0,2*%
%TO.N,Net-(D0:0-Pad1)*%
X376190000Y-113660000D03*
%TO.P,SW0:0,1*%
%TO.N,/ROW0*%
X382540000Y-111120000D03*
%TD*%
%TO.P,SW0:1,2*%
%TO.N,Net-(D0:1-Pad1)*%
X395240000Y-113660000D03*
%TO.P,SW0:1,1*%
%TO.N,/ROW0*%
X401590000Y-111120000D03*
%TD*%
%TO.P,SW0:2,2*%
%TO.N,Net-(D0:2-Pad1)*%
X414290000Y-113660000D03*
%TO.P,SW0:2,1*%
%TO.N,/ROW0*%
X420640000Y-111120000D03*
%TD*%
%TO.P,SW0:4,2*%
%TO.N,Net-(D0:4-Pad1)*%
X442865000Y-113660000D03*
%TO.P,SW0:4,1*%
%TO.N,/ROW0*%
X449215000Y-111120000D03*
%TD*%
%TO.P,SW1:1,2*%
%TO.N,Net-(D1:1-Pad1)*%
X385715000Y-94610000D03*
%TO.P,SW1:1,1*%
%TO.N,/ROW1*%
X392065000Y-92070000D03*
%TD*%
%TO.P,SW1:2,2*%
%TO.N,Net-(D1:2-Pad1)*%
X414290000Y-94610000D03*
%TO.P,SW1:2,1*%
%TO.N,/ROW1*%
X420640000Y-92070000D03*
%TD*%
%TO.P,SW1:3,2*%
%TO.N,Net-(D1:3-Pad1)*%
X433340000Y-94610000D03*
%TO.P,SW1:3,1*%
%TO.N,/ROW1*%
X439690000Y-92070000D03*
%TD*%
%TO.P,SW1:4,2*%
%TO.N,Net-(D1:4-Pad1)*%
X452390000Y-94610000D03*
%TO.P,SW1:4,1*%
%TO.N,/ROW1*%
X458740000Y-92070000D03*
%TD*%
%TO.P,SW2:0,2*%
%TO.N,Net-(D2:0-Pad1)*%
X376190000Y-75560000D03*
%TO.P,SW2:0,1*%
%TO.N,/ROW2*%
X382540000Y-73020000D03*
%TD*%
%TO.P,SW2:1,2*%
%TO.N,Net-(D2:1-Pad1)*%
X395240000Y-75560000D03*
%TO.P,SW2:1,1*%
%TO.N,/ROW2*%
X401590000Y-73020000D03*
%TD*%
%TO.P,SW2:2,2*%
%TO.N,Net-(D2:2-Pad1)*%
X414290000Y-75560000D03*
%TO.P,SW2:2,1*%
%TO.N,/ROW2*%
X420640000Y-73020000D03*
%TD*%
%TO.P,SW2:3,2*%
%TO.N,Net-(D2:3-Pad1)*%
X433340000Y-75560000D03*
%TO.P,SW2:3,1*%
%TO.N,/ROW2*%
X439690000Y-73020000D03*
%TD*%
%TO.P,SW2:4,2*%
%TO.N,Net-(D2:4-Pad1)*%
X452390000Y-75560000D03*
%TO.P,SW2:4,1*%
%TO.N,/ROW2*%
X458740000Y-73020000D03*
%TD*%
%TO.P,SW3:0,2*%
%TO.N,Net-(D3:0-Pad1)*%
X376190000Y-56510000D03*
%TO.P,SW3:0,1*%
%TO.N,/ROW3*%
X382540000Y-53970000D03*
%TD*%
%TO.P,SW3:1,2*%
%TO.N,Net-(D3:1-Pad1)*%
X395240000Y-56510000D03*
%TO.P,SW3:1,1*%
%TO.N,/ROW3*%
X401590000Y-53970000D03*
%TD*%
%TO.P,SW3:2,2*%
%TO.N,Net-(D3:2-Pad1)*%
X414290000Y-56510000D03*
%TO.P,SW3:2,1*%
%TO.N,/ROW3*%
X420640000Y-53970000D03*
%TD*%
%TO.P,SW3:3,2*%
%TO.N,Net-(D3:3-Pad1)*%
X433340000Y-56510000D03*
%TO.P,SW3:3,1*%
%TO.N,/ROW3*%
X439690000Y-53970000D03*
%TD*%
%TO.P,SW3:4,2*%
%TO.N,Net-(D3:4-Pad1)*%
X452390000Y-56510000D03*
%TO.P,SW3:4,1*%
%TO.N,/ROW3*%
X458740000Y-53970000D03*
%TD*%
%TO.P,SW4:0,2*%
%TO.N,Net-(D4:0-Pad1)*%
X376190000Y-37460000D03*
%TO.P,SW4:0,1*%
%TO.N,/ROW4*%
X382540000Y-34920000D03*
%TD*%
%TO.P,SW4:1,2*%
%TO.N,Net-(D4:1-Pad1)*%
X395240000Y-37460000D03*
%TO.P,SW4:1,1*%
%TO.N,/ROW4*%
X401590000Y-34920000D03*
%TD*%
%TO.P,SW4:2,2*%
%TO.N,Net-(D4:2-Pad1)*%
X414290000Y-37460000D03*
%TO.P,SW4:2,1*%
%TO.N,/ROW4*%
X420640000Y-34920000D03*
%TD*%
%TO.P,SW4:3,2*%
%TO.N,Net-(D4:3-Pad1)*%
X433340000Y-37460000D03*
%TO.P,SW4:3,1*%
%TO.N,/ROW4*%
X439690000Y-34920000D03*
%TD*%
%TO.P,SW4:4,2*%
%TO.N,Net-(D4:4-Pad1)*%
X452390000Y-37460000D03*
%TO.P,SW4:4,1*%
%TO.N,/ROW4*%
X458740000Y-34920000D03*
%TD*%
%TO.P,SW:WHEEL1,2*%
%TO.N,/SW_WHEEL*%
X495540128Y-77201974D03*
%TO.P,SW:WHEEL1,1*%
%TO.N,GND*%
X492846051Y-83488154D03*
%TD*%
D17*
%TO.P,EN1,A*%
%TO.N,/EN1_A*%
X488550000Y-123700000D03*
D18*
%TO.P,EN1,C*%
%TO.N,GND*%
X491050000Y-123700000D03*
%TO.P,EN1,B*%
%TO.N,/EN1_B*%
X493550000Y-123700000D03*
D19*
%TO.P,EN1,MP*%
%TO.N,N/C*%
X485450000Y-116200000D03*
X496650000Y-116200000D03*
D18*
%TO.P,EN1,S1*%
%TO.N,/EN1_SW*%
X488550000Y-109200000D03*
%TO.P,EN1,S2*%
%TO.N,GND*%
X493550000Y-109200000D03*
%TD*%
%TA.AperFunction,ComponentPad*%
D20*
%TO.P,EN2,A*%
%TO.N,/EN2_A*%
G36*
X346035786Y-90075000D02*
G01*
X347450000Y-88660786D01*
X348864214Y-90075000D01*
X347450000Y-91489214D01*
X346035786Y-90075000D01*
G37*
%TD.AperFunction*%
D18*
%TO.P,EN2,C*%
%TO.N,GND*%
X345682233Y-91842767D03*
%TO.P,EN2,B*%
%TO.N,/EN2_B*%
X343914466Y-93610534D03*
%TA.AperFunction,ComponentPad*%
D20*
%TO.P,EN2,MP*%
%TO.N,N/C*%
G36*
X353000788Y-93009493D02*
G01*
X354768555Y-91241726D01*
X356889876Y-93363047D01*
X355122109Y-95130814D01*
X353000788Y-93009493D01*
G37*
%TD.AperFunction*%
%TA.AperFunction,ComponentPad*%
G36*
X345081192Y-100929089D02*
G01*
X346848959Y-99161322D01*
X348970280Y-101282643D01*
X347202513Y-103050410D01*
X345081192Y-100929089D01*
G37*
%TD.AperFunction*%
D18*
%TO.P,EN2,S1*%
%TO.N,/EN2_SW*%
X357703048Y-100328048D03*
%TO.P,EN2,S2*%
%TO.N,GND*%
X354167514Y-103863582D03*
%TD*%
D21*
%TO.N,/COL0*%
X369201399Y-52471399D02*
X370700000Y-53970000D01*
X370700000Y-34920000D02*
X369201399Y-36418601D01*
X369201399Y-55468601D02*
X369201399Y-71521399D01*
X369201399Y-71521399D02*
X370700000Y-73020000D01*
X370700000Y-53970000D02*
X369201399Y-55468601D01*
X369201399Y-109621399D02*
X370700000Y-111120000D01*
X369201399Y-74518601D02*
X369201399Y-109621399D01*
X370700000Y-73020000D02*
X369201399Y-74518601D01*
X369201399Y-36418601D02*
X369201399Y-50031399D01*
X369201399Y-50031399D02*
X369201399Y-52471399D01*
X363170000Y-57490000D02*
X359890000Y-57490000D01*
X369201399Y-51458601D02*
X363170000Y-57490000D01*
X369201399Y-50031399D02*
X369201399Y-51458601D01*
%TO.N,/COL1*%
X388251399Y-52471399D02*
X389750000Y-53970000D01*
X389750000Y-34920000D02*
X388251399Y-36418601D01*
X388251399Y-71521399D02*
X389750000Y-73020000D01*
X388251399Y-55468601D02*
X388251399Y-71521399D01*
X389750000Y-53970000D02*
X388251399Y-55468601D01*
X374802101Y-87967899D02*
X370700000Y-92070000D01*
X377467623Y-87967899D02*
X374802101Y-87967899D01*
X389750000Y-75685522D02*
X377467623Y-87967899D01*
X389750000Y-73020000D02*
X389750000Y-75685522D01*
X389750000Y-111120000D02*
X370700000Y-92070000D01*
X388251399Y-36418601D02*
X388251399Y-38128601D01*
X388251399Y-38128601D02*
X388251399Y-52471399D01*
X363220000Y-52410000D02*
X359890000Y-52410000D01*
X364200000Y-47072656D02*
X364200000Y-51430000D01*
X368337789Y-42934867D02*
X364200000Y-47072656D01*
X378750829Y-37332999D02*
X374839229Y-33421399D01*
X369336019Y-33421399D02*
X368337789Y-34419629D01*
X364200000Y-51430000D02*
X363220000Y-52410000D01*
X388251399Y-38128601D02*
X387455797Y-37332999D01*
X374839229Y-33421399D02*
X369336019Y-33421399D01*
X368337789Y-34419629D02*
X368337789Y-42934867D01*
X387455797Y-37332999D02*
X378750829Y-37332999D01*
%TO.N,/COL2*%
X407301399Y-52471399D02*
X408800000Y-53970000D01*
X408800000Y-34920000D02*
X407301399Y-36418601D01*
X407301399Y-90571399D02*
X408800000Y-92070000D01*
X407301399Y-74518601D02*
X407301399Y-90571399D01*
X408800000Y-73020000D02*
X407301399Y-74518601D01*
X407301399Y-109621399D02*
X408800000Y-111120000D01*
X407301399Y-93568601D02*
X407301399Y-109621399D01*
X408800000Y-92070000D02*
X407301399Y-93568601D01*
X407301399Y-71521399D02*
X408800000Y-73020000D01*
X407301399Y-55468601D02*
X407301399Y-71521399D01*
X408800000Y-53970000D02*
X407301399Y-55468601D01*
X407301399Y-36418601D02*
X407301399Y-37528601D01*
X407301399Y-37528601D02*
X407301399Y-52471399D01*
X367474179Y-42577149D02*
X362721328Y-47330000D01*
X407301399Y-37528601D02*
X401510771Y-37528601D01*
X367474179Y-34061911D02*
X367474179Y-42577149D01*
X368978301Y-32557789D02*
X367474179Y-34061911D01*
X396539959Y-32557789D02*
X368978301Y-32557789D01*
X362721328Y-47330000D02*
X359890000Y-47330000D01*
X401510771Y-37528601D02*
X396539959Y-32557789D01*
%TO.N,/COL3*%
X426351399Y-74518601D02*
X427850000Y-73020000D01*
X426351399Y-90571399D02*
X426351399Y-74518601D01*
X427850000Y-92070000D02*
X426351399Y-90571399D01*
X426351399Y-55468601D02*
X427850000Y-53970000D01*
X426351399Y-71521399D02*
X426351399Y-55468601D01*
X427850000Y-73020000D02*
X426351399Y-71521399D01*
X426351399Y-36418601D02*
X427850000Y-34920000D01*
X427850000Y-53970000D02*
X426351399Y-52471399D01*
X426351399Y-37078601D02*
X426351399Y-36418601D01*
X426351399Y-52471399D02*
X426351399Y-37078601D01*
X363340000Y-44790000D02*
X359890000Y-44790000D01*
X366500000Y-41630000D02*
X363340000Y-44790000D01*
X366500000Y-33814762D02*
X366500000Y-41630000D01*
X420102009Y-31694179D02*
X368620583Y-31694179D01*
X425486431Y-37078601D02*
X420102009Y-31694179D01*
X368620583Y-31694179D02*
X366500000Y-33814762D01*
X426351399Y-37078601D02*
X425486431Y-37078601D01*
%TO.N,/COL4*%
X445401399Y-93568601D02*
X446900000Y-92070000D01*
X445401399Y-101802311D02*
X445401399Y-93568601D01*
X435791609Y-111412101D02*
X445401399Y-101802311D01*
X428142101Y-111412101D02*
X435791609Y-111412101D01*
X427850000Y-111120000D02*
X428142101Y-111412101D01*
X445401399Y-74518601D02*
X446900000Y-73020000D01*
X445401399Y-90571399D02*
X445401399Y-74518601D01*
X446900000Y-92070000D02*
X445401399Y-90571399D01*
X445401399Y-72727899D02*
X445401399Y-55468601D01*
X445693500Y-73020000D02*
X445401399Y-72727899D01*
X445401399Y-55468601D02*
X446900000Y-53970000D01*
X446900000Y-73020000D02*
X445693500Y-73020000D01*
X445401399Y-36418601D02*
X446900000Y-34920000D01*
X446900000Y-53970000D02*
X445401399Y-52471399D01*
X445401399Y-37428601D02*
X438803367Y-30830569D01*
X445401399Y-52471399D02*
X445401399Y-37428601D01*
X445401399Y-37428601D02*
X445401399Y-36418601D01*
X364813610Y-34279824D02*
X364813610Y-34287718D01*
X368262865Y-30830569D02*
X364813610Y-34279824D01*
X438803367Y-30830569D02*
X368262865Y-30830569D01*
X364813610Y-34287718D02*
X364460664Y-34640664D01*
X364460664Y-34640664D02*
X364460664Y-38369336D01*
X363120000Y-39710000D02*
X359890000Y-39710000D01*
X364460664Y-38369336D02*
X363120000Y-39710000D01*
%TO.N,GND*%
X490223101Y-122873101D02*
X491050000Y-123700000D01*
X490223101Y-112526899D02*
X490223101Y-122873101D01*
X493550000Y-109200000D02*
X490223101Y-112526899D01*
X344350000Y-67730000D02*
X344350000Y-90510534D01*
X344300000Y-67680000D02*
X344350000Y-67730000D01*
X342140000Y-67680000D02*
X344300000Y-67680000D01*
X344350000Y-90510534D02*
X345682233Y-91842767D01*
X342110000Y-67650000D02*
X342140000Y-67680000D01*
X489810000Y-27290000D02*
X489810000Y-28875000D01*
X365130000Y-29550000D02*
X368193711Y-26486289D01*
X359890000Y-29550000D02*
X365130000Y-29550000D01*
X489810000Y-27290000D02*
X479060000Y-27290000D01*
X478256289Y-26486289D02*
X368193711Y-26486289D01*
X479060000Y-27290000D02*
X478256289Y-26486289D01*
%TO.N,VCC*%
X369831530Y-28630000D02*
X472965410Y-28630000D01*
X472965410Y-28630000D02*
X474245511Y-27349899D01*
X363950000Y-31951328D02*
X368551429Y-27349899D01*
X368551429Y-27349899D02*
X369831530Y-28630000D01*
X363250000Y-34630000D02*
X363950000Y-33930000D01*
X363950000Y-33930000D02*
X363950000Y-31951328D01*
X359890000Y-34630000D02*
X363250000Y-34630000D01*
X477109289Y-27349899D02*
X478629390Y-28870000D01*
X474245511Y-27349899D02*
X477109289Y-27349899D01*
X487265000Y-28870000D02*
X487270000Y-28875000D01*
X478629390Y-28870000D02*
X487265000Y-28870000D01*
%TO.N,Net-(D0:0-Pad1)*%
X375204478Y-113660000D02*
X376190000Y-113660000D01*
X370700000Y-118164478D02*
X375204478Y-113660000D01*
X370700000Y-121280000D02*
X370700000Y-118164478D01*
%TO.N,Net-(D0:1-Pad1)*%
X394254478Y-113660000D02*
X395240000Y-113660000D01*
X389750000Y-118164478D02*
X394254478Y-113660000D01*
X389750000Y-121280000D02*
X389750000Y-118164478D01*
%TO.N,Net-(D0:2-Pad1)*%
X408800000Y-117533554D02*
X412673554Y-113660000D01*
X412673554Y-113660000D02*
X414290000Y-113660000D01*
X408800000Y-121280000D02*
X408800000Y-117533554D01*
%TO.N,Net-(D1:2-Pad1)*%
X412673554Y-94610000D02*
X414290000Y-94610000D01*
X408800000Y-98483554D02*
X412673554Y-94610000D01*
X408800000Y-102230000D02*
X408800000Y-98483554D01*
%TO.N,Net-(D1:3-Pad1)*%
X432354478Y-94610000D02*
X433340000Y-94610000D01*
X427850000Y-99114478D02*
X432354478Y-94610000D01*
X427850000Y-102230000D02*
X427850000Y-99114478D01*
%TO.N,Net-(D1:4-Pad1)*%
X446900000Y-99114478D02*
X451404478Y-94610000D01*
X451404478Y-94610000D02*
X452390000Y-94610000D01*
X446900000Y-102230000D02*
X446900000Y-99114478D01*
%TO.N,Net-(D2:0-Pad1)*%
X370700000Y-80064478D02*
X370700000Y-83180000D01*
X374188479Y-76575999D02*
X370700000Y-80064478D01*
X375254001Y-76575999D02*
X374188479Y-76575999D01*
X376190000Y-75640000D02*
X375254001Y-76575999D01*
X376190000Y-75560000D02*
X376190000Y-75640000D01*
%TO.N,Net-(D2:1-Pad1)*%
X393623554Y-75560000D02*
X395240000Y-75560000D01*
X389750000Y-79433554D02*
X393623554Y-75560000D01*
X389750000Y-83180000D02*
X389750000Y-79433554D01*
%TO.N,Net-(D2:2-Pad1)*%
X412673554Y-75560000D02*
X414290000Y-75560000D01*
X408800000Y-79433554D02*
X412673554Y-75560000D01*
X408800000Y-83180000D02*
X408800000Y-79433554D01*
%TO.N,Net-(D2:3-Pad1)*%
X431723554Y-75560000D02*
X433340000Y-75560000D01*
X427850000Y-79433554D02*
X431723554Y-75560000D01*
X427850000Y-83180000D02*
X427850000Y-79433554D01*
%TO.N,Net-(D2:4-Pad1)*%
X446900000Y-79433554D02*
X450773554Y-75560000D01*
X450773554Y-75560000D02*
X452390000Y-75560000D01*
X446900000Y-83180000D02*
X446900000Y-79433554D01*
%TO.N,Net-(D3:0-Pad1)*%
X374573554Y-56510000D02*
X376190000Y-56510000D01*
X370700000Y-60383554D02*
X374573554Y-56510000D01*
X370700000Y-64130000D02*
X370700000Y-60383554D01*
%TO.N,Net-(D3:1-Pad1)*%
X394254478Y-56510000D02*
X395240000Y-56510000D01*
X389750000Y-61014478D02*
X394254478Y-56510000D01*
X389750000Y-64130000D02*
X389750000Y-61014478D01*
%TO.N,Net-(D3:2-Pad1)*%
X412673554Y-56510000D02*
X414290000Y-56510000D01*
X408800000Y-60383554D02*
X412673554Y-56510000D01*
X408800000Y-64130000D02*
X408800000Y-60383554D01*
%TO.N,Net-(D3:3-Pad1)*%
X431723554Y-56510000D02*
X433340000Y-56510000D01*
X427850000Y-60383554D02*
X431723554Y-56510000D01*
X427850000Y-64130000D02*
X427850000Y-60383554D01*
%TO.N,Net-(D3:4-Pad1)*%
X450773554Y-56510000D02*
X452390000Y-56510000D01*
X446900000Y-60383554D02*
X450773554Y-56510000D01*
X446900000Y-64130000D02*
X446900000Y-60383554D01*
%TO.N,Net-(D4:0-Pad1)*%
X375204478Y-37460000D02*
X376190000Y-37460000D01*
X370700000Y-41964478D02*
X375204478Y-37460000D01*
X370700000Y-45080000D02*
X370700000Y-41964478D01*
%TO.N,Net-(D4:1-Pad1)*%
X394254478Y-37460000D02*
X395240000Y-37460000D01*
X389750000Y-41964478D02*
X394254478Y-37460000D01*
X389750000Y-45080000D02*
X389750000Y-41964478D01*
%TO.N,Net-(D4:2-Pad1)*%
X412673554Y-37460000D02*
X414290000Y-37460000D01*
X408800000Y-41333554D02*
X412673554Y-37460000D01*
X408800000Y-45080000D02*
X408800000Y-41333554D01*
%TO.N,Net-(D4:3-Pad1)*%
X432354478Y-37460000D02*
X433340000Y-37460000D01*
X427850000Y-41964478D02*
X432354478Y-37460000D01*
X427850000Y-45080000D02*
X427850000Y-41964478D01*
%TO.N,Net-(D4:4-Pad1)*%
X451404478Y-37460000D02*
X452390000Y-37460000D01*
X446900000Y-41964478D02*
X451404478Y-37460000D01*
X446900000Y-45080000D02*
X446900000Y-41964478D01*
%TO.N,Net-(D0:4-Pad1)*%
X435470000Y-113660000D02*
X427850000Y-121280000D01*
X442865000Y-113660000D02*
X435470000Y-113660000D01*
%TO.N,/SW_WHEEL*%
X337180000Y-24620000D02*
X341960000Y-24620000D01*
X341960000Y-24620000D02*
X342110000Y-24470000D01*
X495540128Y-77201974D02*
X499436711Y-81098557D01*
X499436711Y-129953289D02*
X498800000Y-130590000D01*
X499436711Y-81098557D02*
X499436711Y-129953289D01*
X333710000Y-94173804D02*
X333710000Y-31980000D01*
X333710000Y-31980000D02*
X335230000Y-30460000D01*
X335230000Y-26570000D02*
X337180000Y-24620000D01*
X335230000Y-30460000D02*
X335230000Y-26570000D01*
X333710000Y-94173804D02*
X361336196Y-121800000D01*
X373888672Y-130590000D02*
X374010000Y-130590000D01*
X361336196Y-121800000D02*
X365098672Y-121800000D01*
X365098672Y-121800000D02*
X373888672Y-130590000D01*
X498800000Y-130590000D02*
X374010000Y-130590000D01*
%TO.N,/SCL*%
X346923700Y-103723520D02*
X337400000Y-94199820D01*
X347481326Y-103723520D02*
X346923700Y-103723520D01*
X349014365Y-102190481D02*
X347481326Y-103723520D01*
X354970603Y-102190481D02*
X349014365Y-102190481D01*
X365398723Y-112618601D02*
X354970603Y-102190481D01*
X372063981Y-112618601D02*
X365398723Y-112618601D01*
X372838683Y-111843899D02*
X372063981Y-112618601D01*
X486043203Y-76826865D02*
X459141467Y-103728601D01*
X377061729Y-111843899D02*
X372838683Y-111843899D01*
X393276069Y-112936101D02*
X378153931Y-112936101D01*
X394368271Y-111843899D02*
X393276069Y-112936101D01*
X396111729Y-111843899D02*
X394368271Y-111843899D01*
X415161729Y-111843899D02*
X410730413Y-111843899D01*
X378153931Y-112936101D02*
X377061729Y-111843899D01*
X397203931Y-112936101D02*
X396111729Y-111843899D01*
X409638211Y-112936101D02*
X397203931Y-112936101D01*
X410730413Y-111843899D02*
X409638211Y-112936101D01*
X416253931Y-112936101D02*
X415161729Y-111843899D01*
X488375973Y-76826865D02*
X486043203Y-76826865D01*
X429348601Y-112275711D02*
X428688211Y-112936101D01*
X428688211Y-112936101D02*
X416253931Y-112936101D01*
X459141467Y-103728601D02*
X444696437Y-103728601D01*
X492350000Y-72852838D02*
X488375973Y-76826865D01*
X436149327Y-112275711D02*
X429348601Y-112275711D01*
X444696437Y-103728601D02*
X436149327Y-112275711D01*
X492350000Y-30272000D02*
X492350000Y-72852838D01*
X337400000Y-94199820D02*
X337400000Y-53130000D01*
X337400000Y-53130000D02*
X338300000Y-52230000D01*
X338480000Y-52410000D02*
X342110000Y-52410000D01*
X338300000Y-52230000D02*
X338480000Y-52410000D01*
X492350000Y-30272000D02*
X492350000Y-28875000D01*
%TO.N,/SDA*%
X494890000Y-30272000D02*
X494890000Y-28875000D01*
X337880000Y-49830000D02*
X337920000Y-49870000D01*
X337920000Y-49870000D02*
X342110000Y-49870000D01*
X336536390Y-51173610D02*
X337880000Y-49830000D01*
X494890000Y-71534166D02*
X492330161Y-74094005D01*
X336536390Y-94557538D02*
X336536390Y-51173610D01*
X492330161Y-75432999D02*
X493717001Y-76819839D01*
X493717001Y-79380161D02*
X452094435Y-121002727D01*
X492330161Y-74094005D02*
X492330161Y-75432999D01*
X452094435Y-121002727D02*
X430345203Y-121002727D01*
X493717001Y-76819839D02*
X493717001Y-79380161D01*
X494890000Y-30272000D02*
X494890000Y-71534166D01*
X430345203Y-121002727D02*
X428569329Y-122778601D01*
X346565982Y-104587130D02*
X350807130Y-104587130D01*
X336536390Y-94557538D02*
X346565982Y-104587130D01*
X368998601Y-122778601D02*
X369498601Y-122778601D01*
X350807130Y-104587130D02*
X368998601Y-122778601D01*
X428569329Y-122778601D02*
X369498601Y-122778601D01*
%TO.N,/EN1_SW*%
X337920000Y-27520000D02*
X338430000Y-27010000D01*
X337920000Y-29010000D02*
X337920000Y-27520000D01*
X335400000Y-31530000D02*
X337920000Y-29010000D01*
X338430000Y-27010000D02*
X342110000Y-27010000D01*
X335400000Y-94642476D02*
X335400000Y-31530000D01*
X488550000Y-109200000D02*
X490223101Y-107526899D01*
X490223101Y-107526899D02*
X494353089Y-107526899D01*
X498573101Y-111746911D02*
X498573101Y-129116899D01*
X494353089Y-107526899D02*
X498573101Y-111746911D01*
X373703101Y-129116899D02*
X373636899Y-129116899D01*
X498573101Y-129116899D02*
X373703101Y-129116899D01*
X346757524Y-106000000D02*
X335400000Y-94642476D01*
X350520000Y-106000000D02*
X346757524Y-106000000D01*
X373636899Y-129116899D02*
X350520000Y-106000000D01*
%TD*%
M02*
