M48
; DRILL file {KiCad (5.1.10-1-10_14)} date Tuesday, November 02, 2021 at 04:23:15 PM
; FORMAT={-:-/ absolute / metric / decimal}
; #@! TF.CreationDate,2021-11-02T16:23:15+01:00
; #@! TF.GenerationSoftware,Kicad,Pcbnew,(5.1.10-1-10_14)
; #@! TF.FileFunction,Plated,1,2,PTH
FMAT,2
METRIC
T1C0.991
T2C1.000
T3C1.020
T4C1.499
T5C2.000
%
G90
G05
T1
X370.7Y-34.92
X370.7Y-45.08
X370.7Y-53.97
X370.7Y-64.13
X370.7Y-73.02
X370.7Y-83.18
X370.7Y-92.07
X370.7Y-102.23
X370.7Y-111.12
X370.7Y-121.28
X389.75Y-34.92
X389.75Y-45.08
X389.75Y-53.97
X389.75Y-64.13
X389.75Y-73.02
X389.75Y-83.18
X389.75Y-111.12
X389.75Y-121.28
X408.8Y-34.92
X408.8Y-45.08
X408.8Y-53.97
X408.8Y-64.13
X408.8Y-73.02
X408.8Y-83.18
X408.8Y-92.07
X408.8Y-102.23
X408.8Y-111.12
X408.8Y-121.28
X427.85Y-34.92
X427.85Y-45.08
X427.85Y-53.97
X427.85Y-64.13
X427.85Y-73.02
X427.85Y-83.18
X427.85Y-92.07
X427.85Y-102.23
X427.85Y-111.12
X427.85Y-121.28
X446.9Y-34.92
X446.9Y-45.08
X446.9Y-53.97
X446.9Y-64.13
X446.9Y-73.02
X446.9Y-83.18
X446.9Y-92.07
X446.9Y-102.23
T2
X343.914Y-93.611
X345.682Y-91.843
X347.45Y-90.075
X354.168Y-103.864
X357.703Y-100.328
X488.55Y-109.2
X488.55Y-123.7
X491.05Y-123.7
X493.55Y-109.2
X493.55Y-123.7
T3
X342.11Y-24.47
X342.11Y-27.01
X342.11Y-29.55
X342.11Y-32.09
X342.11Y-34.63
X342.11Y-37.17
X342.11Y-39.71
X342.11Y-42.25
X342.11Y-44.79
X342.11Y-47.33
X342.11Y-49.87
X342.11Y-52.41
X342.11Y-54.95
X342.11Y-57.49
X342.11Y-60.03
X342.11Y-62.57
X342.11Y-65.11
X342.11Y-67.65
X342.11Y-70.19
X342.11Y-72.73
X348.46Y-72.5
X351.0Y-72.5
X353.54Y-72.5
X359.89Y-24.47
X359.89Y-27.01
X359.89Y-29.55
X359.89Y-32.09
X359.89Y-34.63
X359.89Y-37.17
X359.89Y-39.71
X359.89Y-42.25
X359.89Y-44.79
X359.89Y-47.33
X359.89Y-49.87
X359.89Y-52.41
X359.89Y-54.95
X359.89Y-57.49
X359.89Y-60.03
X359.89Y-62.57
X359.89Y-65.11
X359.89Y-67.65
X359.89Y-70.19
X359.89Y-72.73
X487.27Y-28.875
X489.81Y-28.875
X492.35Y-28.875
X494.89Y-28.875
T4
X376.19Y-37.46
X376.19Y-56.51
X376.19Y-75.56
X376.19Y-113.66
X382.54Y-34.92
X382.54Y-53.97
X382.54Y-73.02
X382.54Y-111.12
X385.715Y-94.61
X392.065Y-92.07
X395.24Y-37.46
X395.24Y-56.51
X395.24Y-75.56
X395.24Y-113.66
X401.59Y-34.92
X401.59Y-53.97
X401.59Y-73.02
X401.59Y-111.12
X414.29Y-37.46
X414.29Y-56.51
X414.29Y-75.56
X414.29Y-94.61
X414.29Y-113.66
X420.64Y-34.92
X420.64Y-53.97
X420.64Y-73.02
X420.64Y-92.07
X420.64Y-111.12
X433.34Y-37.46
X433.34Y-56.51
X433.34Y-75.56
X433.34Y-94.61
X439.69Y-34.92
X439.69Y-53.97
X439.69Y-73.02
X439.69Y-92.07
X442.865Y-113.66
X449.215Y-111.12
X452.39Y-37.46
X452.39Y-56.51
X452.39Y-75.56
X452.39Y-94.61
X458.74Y-34.92
X458.74Y-53.97
X458.74Y-73.02
X458.74Y-92.07
X492.846Y-83.488
X495.54Y-77.202
T5
X346.849Y-100.929G85X347.203Y-101.283
G05
X354.769Y-93.009G85X355.122Y-93.363
G05
X485.45Y-116.45G85X485.45Y-115.95
G05
X496.65Y-116.45G85X496.65Y-115.95
G05
T0
M30
