M48
; DRILL file {KiCad (5.1.10-1-10_14)} date Tuesday, November 02, 2021 at 04:23:15 PM
; FORMAT={-:-/ absolute / metric / decimal}
; #@! TF.CreationDate,2021-11-02T16:23:15+01:00
; #@! TF.GenerationSoftware,Kicad,Pcbnew,(5.1.10-1-10_14)
; #@! TF.FileFunction,NonPlated,1,2,NPTH
FMAT,2
METRIC
T1C1.500
T2C1.702
T3C1.800
T4C3.048
T5C3.100
T6C3.200
T7C3.988
%
G90
G05
T1
X348.575Y-27.63
X353.425Y-27.63
T2
X374.92Y-40.0
X374.92Y-59.05
X374.92Y-78.1
X374.92Y-116.2
X384.445Y-97.15
X385.08Y-40.0
X385.08Y-59.05
X385.08Y-78.1
X385.08Y-116.2
X393.97Y-40.0
X393.97Y-59.05
X393.97Y-78.1
X393.97Y-116.2
X394.605Y-97.15
X404.13Y-40.0
X404.13Y-59.05
X404.13Y-78.1
X404.13Y-116.2
X413.02Y-40.0
X413.02Y-59.05
X413.02Y-78.1
X413.02Y-97.15
X413.02Y-116.2
X423.18Y-40.0
X423.18Y-59.05
X423.18Y-78.1
X423.18Y-97.15
X423.18Y-116.2
X432.07Y-40.0
X432.07Y-59.05
X432.07Y-78.1
X432.07Y-97.15
X441.595Y-116.2
X442.23Y-40.0
X442.23Y-59.05
X442.23Y-78.1
X442.23Y-97.15
X451.12Y-40.0
X451.12Y-59.05
X451.12Y-78.1
X451.12Y-97.15
X451.755Y-116.2
X461.28Y-40.0
X461.28Y-59.05
X461.28Y-78.1
X461.28Y-97.15
X487.458Y-81.692
X494.642Y-74.508
T3
X348.275Y-24.6
X353.725Y-24.6
T4
X377.587Y-90.165
X401.463Y-90.165
X434.737Y-109.215
X458.613Y-109.215
T5
X475.677Y-30.333
X475.677Y-58.907
X506.483Y-30.333
X506.483Y-58.907
T6
X330.4Y-28.5
X330.4Y-95.34
X363.542Y-127.01
X472.0Y-78.1
X512.05Y-28.5
X512.12Y-127.01
T7
X377.587Y-105.405
X380.0Y-40.0
X380.0Y-59.05
X380.0Y-78.1
X380.0Y-116.2
X389.525Y-97.15
X399.05Y-40.0
X399.05Y-59.05
X399.05Y-78.1
X399.05Y-116.2
X401.463Y-105.405
X418.1Y-40.0
X418.1Y-59.05
X418.1Y-78.1
X418.1Y-97.15
X418.1Y-116.2
X434.737Y-124.455
X437.15Y-40.0
X437.15Y-59.05
X437.15Y-78.1
X437.15Y-97.15
X446.675Y-116.2
X456.2Y-40.0
X456.2Y-59.05
X456.2Y-78.1
X456.2Y-97.15
X458.613Y-124.455
X491.05Y-78.1
T0
M30
