%TF.GenerationSoftware,KiCad,Pcbnew,(5.1.10-1-10_14)*%
%TF.CreationDate,2021-11-02T16:22:22+01:00*%
%TF.ProjectId,blastpad,626c6173-7470-4616-942e-6b696361645f,rev?*%
%TF.SameCoordinates,Original*%
%TF.FileFunction,Soldermask,Top*%
%TF.FilePolarity,Negative*%
%FSLAX46Y46*%
G04 Gerber Fmt 4.6, Leading zero omitted, Abs format (unit mm)*
G04 Created by KiCad (PCBNEW (5.1.10-1-10_14)) date 2021-11-02 16:22:22*
%MOMM*%
%LPD*%
G01*
G04 APERTURE LIST*
%ADD10C,3.708000*%
%ADD11C,2.159000*%
%ADD12C,2.208000*%
%ADD13C,5.128000*%
%ADD14O,2.208000X2.208000*%
%ADD15O,2.008000X2.008000*%
%ADD16O,2.308000X2.308000*%
%ADD17C,2.794000*%
%ADD18C,2.508000*%
G04 APERTURE END LIST*
D10*
%TO.C,M3*%
X512120000Y-127010000D03*
%TD*%
%TO.C,M3*%
X363542135Y-127010000D03*
%TD*%
D11*
%TO.C,D4:4*%
X446900000Y-45080000D03*
G36*
G01*
X447725500Y-35999500D02*
X446074500Y-35999500D01*
G75*
G02*
X445820500Y-35745500I0J254000D01*
G01*
X445820500Y-34094500D01*
G75*
G02*
X446074500Y-33840500I254000J0D01*
G01*
X447725500Y-33840500D01*
G75*
G02*
X447979500Y-34094500I0J-254000D01*
G01*
X447979500Y-35745500D01*
G75*
G02*
X447725500Y-35999500I-254000J0D01*
G01*
G37*
%TD*%
%TO.C,D4:3*%
X427850000Y-45080000D03*
G36*
G01*
X428675500Y-35999500D02*
X427024500Y-35999500D01*
G75*
G02*
X426770500Y-35745500I0J254000D01*
G01*
X426770500Y-34094500D01*
G75*
G02*
X427024500Y-33840500I254000J0D01*
G01*
X428675500Y-33840500D01*
G75*
G02*
X428929500Y-34094500I0J-254000D01*
G01*
X428929500Y-35745500D01*
G75*
G02*
X428675500Y-35999500I-254000J0D01*
G01*
G37*
%TD*%
%TO.C,D4:2*%
X408800000Y-45080000D03*
G36*
G01*
X409625500Y-35999500D02*
X407974500Y-35999500D01*
G75*
G02*
X407720500Y-35745500I0J254000D01*
G01*
X407720500Y-34094500D01*
G75*
G02*
X407974500Y-33840500I254000J0D01*
G01*
X409625500Y-33840500D01*
G75*
G02*
X409879500Y-34094500I0J-254000D01*
G01*
X409879500Y-35745500D01*
G75*
G02*
X409625500Y-35999500I-254000J0D01*
G01*
G37*
%TD*%
%TO.C,D4:1*%
X389750000Y-45080000D03*
G36*
G01*
X390575500Y-35999500D02*
X388924500Y-35999500D01*
G75*
G02*
X388670500Y-35745500I0J254000D01*
G01*
X388670500Y-34094500D01*
G75*
G02*
X388924500Y-33840500I254000J0D01*
G01*
X390575500Y-33840500D01*
G75*
G02*
X390829500Y-34094500I0J-254000D01*
G01*
X390829500Y-35745500D01*
G75*
G02*
X390575500Y-35999500I-254000J0D01*
G01*
G37*
%TD*%
%TO.C,D4:0*%
X370700000Y-45080000D03*
G36*
G01*
X371525500Y-35999500D02*
X369874500Y-35999500D01*
G75*
G02*
X369620500Y-35745500I0J254000D01*
G01*
X369620500Y-34094500D01*
G75*
G02*
X369874500Y-33840500I254000J0D01*
G01*
X371525500Y-33840500D01*
G75*
G02*
X371779500Y-34094500I0J-254000D01*
G01*
X371779500Y-35745500D01*
G75*
G02*
X371525500Y-35999500I-254000J0D01*
G01*
G37*
%TD*%
%TO.C,D3:4*%
X446900000Y-64130000D03*
G36*
G01*
X447725500Y-55049500D02*
X446074500Y-55049500D01*
G75*
G02*
X445820500Y-54795500I0J254000D01*
G01*
X445820500Y-53144500D01*
G75*
G02*
X446074500Y-52890500I254000J0D01*
G01*
X447725500Y-52890500D01*
G75*
G02*
X447979500Y-53144500I0J-254000D01*
G01*
X447979500Y-54795500D01*
G75*
G02*
X447725500Y-55049500I-254000J0D01*
G01*
G37*
%TD*%
%TO.C,D3:3*%
X427850000Y-64130000D03*
G36*
G01*
X428675500Y-55049500D02*
X427024500Y-55049500D01*
G75*
G02*
X426770500Y-54795500I0J254000D01*
G01*
X426770500Y-53144500D01*
G75*
G02*
X427024500Y-52890500I254000J0D01*
G01*
X428675500Y-52890500D01*
G75*
G02*
X428929500Y-53144500I0J-254000D01*
G01*
X428929500Y-54795500D01*
G75*
G02*
X428675500Y-55049500I-254000J0D01*
G01*
G37*
%TD*%
%TO.C,D3:2*%
X408800000Y-64130000D03*
G36*
G01*
X409625500Y-55049500D02*
X407974500Y-55049500D01*
G75*
G02*
X407720500Y-54795500I0J254000D01*
G01*
X407720500Y-53144500D01*
G75*
G02*
X407974500Y-52890500I254000J0D01*
G01*
X409625500Y-52890500D01*
G75*
G02*
X409879500Y-53144500I0J-254000D01*
G01*
X409879500Y-54795500D01*
G75*
G02*
X409625500Y-55049500I-254000J0D01*
G01*
G37*
%TD*%
%TO.C,D3:1*%
X389750000Y-64130000D03*
G36*
G01*
X390575500Y-55049500D02*
X388924500Y-55049500D01*
G75*
G02*
X388670500Y-54795500I0J254000D01*
G01*
X388670500Y-53144500D01*
G75*
G02*
X388924500Y-52890500I254000J0D01*
G01*
X390575500Y-52890500D01*
G75*
G02*
X390829500Y-53144500I0J-254000D01*
G01*
X390829500Y-54795500D01*
G75*
G02*
X390575500Y-55049500I-254000J0D01*
G01*
G37*
%TD*%
%TO.C,D3:0*%
X370700000Y-64130000D03*
G36*
G01*
X371525500Y-55049500D02*
X369874500Y-55049500D01*
G75*
G02*
X369620500Y-54795500I0J254000D01*
G01*
X369620500Y-53144500D01*
G75*
G02*
X369874500Y-52890500I254000J0D01*
G01*
X371525500Y-52890500D01*
G75*
G02*
X371779500Y-53144500I0J-254000D01*
G01*
X371779500Y-54795500D01*
G75*
G02*
X371525500Y-55049500I-254000J0D01*
G01*
G37*
%TD*%
%TO.C,D2:4*%
X446900000Y-83180000D03*
G36*
G01*
X447725500Y-74099500D02*
X446074500Y-74099500D01*
G75*
G02*
X445820500Y-73845500I0J254000D01*
G01*
X445820500Y-72194500D01*
G75*
G02*
X446074500Y-71940500I254000J0D01*
G01*
X447725500Y-71940500D01*
G75*
G02*
X447979500Y-72194500I0J-254000D01*
G01*
X447979500Y-73845500D01*
G75*
G02*
X447725500Y-74099500I-254000J0D01*
G01*
G37*
%TD*%
%TO.C,D2:3*%
X427850000Y-83180000D03*
G36*
G01*
X428675500Y-74099500D02*
X427024500Y-74099500D01*
G75*
G02*
X426770500Y-73845500I0J254000D01*
G01*
X426770500Y-72194500D01*
G75*
G02*
X427024500Y-71940500I254000J0D01*
G01*
X428675500Y-71940500D01*
G75*
G02*
X428929500Y-72194500I0J-254000D01*
G01*
X428929500Y-73845500D01*
G75*
G02*
X428675500Y-74099500I-254000J0D01*
G01*
G37*
%TD*%
%TO.C,D2:2*%
X408800000Y-83180000D03*
G36*
G01*
X409625500Y-74099500D02*
X407974500Y-74099500D01*
G75*
G02*
X407720500Y-73845500I0J254000D01*
G01*
X407720500Y-72194500D01*
G75*
G02*
X407974500Y-71940500I254000J0D01*
G01*
X409625500Y-71940500D01*
G75*
G02*
X409879500Y-72194500I0J-254000D01*
G01*
X409879500Y-73845500D01*
G75*
G02*
X409625500Y-74099500I-254000J0D01*
G01*
G37*
%TD*%
%TO.C,D2:1*%
X389750000Y-83180000D03*
G36*
G01*
X390575500Y-74099500D02*
X388924500Y-74099500D01*
G75*
G02*
X388670500Y-73845500I0J254000D01*
G01*
X388670500Y-72194500D01*
G75*
G02*
X388924500Y-71940500I254000J0D01*
G01*
X390575500Y-71940500D01*
G75*
G02*
X390829500Y-72194500I0J-254000D01*
G01*
X390829500Y-73845500D01*
G75*
G02*
X390575500Y-74099500I-254000J0D01*
G01*
G37*
%TD*%
%TO.C,D2:0*%
X370700000Y-83180000D03*
G36*
G01*
X371525500Y-74099500D02*
X369874500Y-74099500D01*
G75*
G02*
X369620500Y-73845500I0J254000D01*
G01*
X369620500Y-72194500D01*
G75*
G02*
X369874500Y-71940500I254000J0D01*
G01*
X371525500Y-71940500D01*
G75*
G02*
X371779500Y-72194500I0J-254000D01*
G01*
X371779500Y-73845500D01*
G75*
G02*
X371525500Y-74099500I-254000J0D01*
G01*
G37*
%TD*%
%TO.C,D1:4*%
X446900000Y-102230000D03*
G36*
G01*
X447725500Y-93149500D02*
X446074500Y-93149500D01*
G75*
G02*
X445820500Y-92895500I0J254000D01*
G01*
X445820500Y-91244500D01*
G75*
G02*
X446074500Y-90990500I254000J0D01*
G01*
X447725500Y-90990500D01*
G75*
G02*
X447979500Y-91244500I0J-254000D01*
G01*
X447979500Y-92895500D01*
G75*
G02*
X447725500Y-93149500I-254000J0D01*
G01*
G37*
%TD*%
%TO.C,D1:3*%
X427850000Y-102230000D03*
G36*
G01*
X428675500Y-93149500D02*
X427024500Y-93149500D01*
G75*
G02*
X426770500Y-92895500I0J254000D01*
G01*
X426770500Y-91244500D01*
G75*
G02*
X427024500Y-90990500I254000J0D01*
G01*
X428675500Y-90990500D01*
G75*
G02*
X428929500Y-91244500I0J-254000D01*
G01*
X428929500Y-92895500D01*
G75*
G02*
X428675500Y-93149500I-254000J0D01*
G01*
G37*
%TD*%
%TO.C,D1:2*%
X408800000Y-102230000D03*
G36*
G01*
X409625500Y-93149500D02*
X407974500Y-93149500D01*
G75*
G02*
X407720500Y-92895500I0J254000D01*
G01*
X407720500Y-91244500D01*
G75*
G02*
X407974500Y-90990500I254000J0D01*
G01*
X409625500Y-90990500D01*
G75*
G02*
X409879500Y-91244500I0J-254000D01*
G01*
X409879500Y-92895500D01*
G75*
G02*
X409625500Y-93149500I-254000J0D01*
G01*
G37*
%TD*%
%TO.C,D1:1*%
X370700000Y-102230000D03*
G36*
G01*
X371525500Y-93149500D02*
X369874500Y-93149500D01*
G75*
G02*
X369620500Y-92895500I0J254000D01*
G01*
X369620500Y-91244500D01*
G75*
G02*
X369874500Y-90990500I254000J0D01*
G01*
X371525500Y-90990500D01*
G75*
G02*
X371779500Y-91244500I0J-254000D01*
G01*
X371779500Y-92895500D01*
G75*
G02*
X371525500Y-93149500I-254000J0D01*
G01*
G37*
%TD*%
%TO.C,D0:4*%
X427850000Y-121280000D03*
G36*
G01*
X428675500Y-112199500D02*
X427024500Y-112199500D01*
G75*
G02*
X426770500Y-111945500I0J254000D01*
G01*
X426770500Y-110294500D01*
G75*
G02*
X427024500Y-110040500I254000J0D01*
G01*
X428675500Y-110040500D01*
G75*
G02*
X428929500Y-110294500I0J-254000D01*
G01*
X428929500Y-111945500D01*
G75*
G02*
X428675500Y-112199500I-254000J0D01*
G01*
G37*
%TD*%
%TO.C,D0:2*%
X408800000Y-121280000D03*
G36*
G01*
X409625500Y-112199500D02*
X407974500Y-112199500D01*
G75*
G02*
X407720500Y-111945500I0J254000D01*
G01*
X407720500Y-110294500D01*
G75*
G02*
X407974500Y-110040500I254000J0D01*
G01*
X409625500Y-110040500D01*
G75*
G02*
X409879500Y-110294500I0J-254000D01*
G01*
X409879500Y-111945500D01*
G75*
G02*
X409625500Y-112199500I-254000J0D01*
G01*
G37*
%TD*%
%TO.C,D0:1*%
X389750000Y-121280000D03*
G36*
G01*
X390575500Y-112199500D02*
X388924500Y-112199500D01*
G75*
G02*
X388670500Y-111945500I0J254000D01*
G01*
X388670500Y-110294500D01*
G75*
G02*
X388924500Y-110040500I254000J0D01*
G01*
X390575500Y-110040500D01*
G75*
G02*
X390829500Y-110294500I0J-254000D01*
G01*
X390829500Y-111945500D01*
G75*
G02*
X390575500Y-112199500I-254000J0D01*
G01*
G37*
%TD*%
%TO.C,D0:0*%
X370700000Y-121280000D03*
G36*
G01*
X371525500Y-112199500D02*
X369874500Y-112199500D01*
G75*
G02*
X369620500Y-111945500I0J254000D01*
G01*
X369620500Y-110294500D01*
G75*
G02*
X369874500Y-110040500I254000J0D01*
G01*
X371525500Y-110040500D01*
G75*
G02*
X371779500Y-110294500I0J-254000D01*
G01*
X371779500Y-111945500D01*
G75*
G02*
X371525500Y-112199500I-254000J0D01*
G01*
G37*
%TD*%
D10*
%TO.C,M3*%
X472000000Y-78100000D03*
%TD*%
%TO.C,M3*%
X512050000Y-28500000D03*
%TD*%
%TO.C,M3*%
X330400000Y-28500000D03*
%TD*%
%TO.C,M3*%
X330400000Y-95340000D03*
%TD*%
%TO.C,DISPLAY1*%
G36*
G01*
X488706000Y-29725000D02*
X488706000Y-28025000D01*
G75*
G02*
X488960000Y-27771000I254000J0D01*
G01*
X490660000Y-27771000D01*
G75*
G02*
X490914000Y-28025000I0J-254000D01*
G01*
X490914000Y-29725000D01*
G75*
G02*
X490660000Y-29979000I-254000J0D01*
G01*
X488960000Y-29979000D01*
G75*
G02*
X488706000Y-29725000I0J254000D01*
G01*
G37*
D12*
X492350000Y-28875000D03*
X494890000Y-28875000D03*
X487270000Y-28875000D03*
D13*
X475677400Y-30333000D03*
X506482600Y-30333000D03*
X506482600Y-58907000D03*
X475677400Y-58907000D03*
%TD*%
D14*
%TO.C,MCU1*%
X353540000Y-72500000D03*
G36*
G01*
X354390000Y-75404000D02*
X352690000Y-75404000D01*
G75*
G02*
X352436000Y-75150000I0J254000D01*
G01*
X352436000Y-71650000D01*
G75*
G02*
X352690000Y-71396000I254000J0D01*
G01*
X354390000Y-71396000D01*
G75*
G02*
X354644000Y-71650000I0J-254000D01*
G01*
X354644000Y-75150000D01*
G75*
G02*
X354390000Y-75404000I-254000J0D01*
G01*
G37*
G36*
G01*
X349896000Y-73350000D02*
X349896000Y-71650000D01*
G75*
G02*
X350150000Y-71396000I254000J0D01*
G01*
X351850000Y-71396000D01*
G75*
G02*
X352104000Y-71650000I0J-254000D01*
G01*
X352104000Y-73350000D01*
G75*
G02*
X351850000Y-73604000I-254000J0D01*
G01*
X350150000Y-73604000D01*
G75*
G02*
X349896000Y-73350000I0J254000D01*
G01*
G37*
G36*
G01*
X351850000Y-75404000D02*
X350150000Y-75404000D01*
G75*
G02*
X349896000Y-75150000I0J254000D01*
G01*
X349896000Y-71650000D01*
G75*
G02*
X350150000Y-71396000I254000J0D01*
G01*
X351850000Y-71396000D01*
G75*
G02*
X352104000Y-71650000I0J-254000D01*
G01*
X352104000Y-75150000D01*
G75*
G02*
X351850000Y-75404000I-254000J0D01*
G01*
G37*
X348460000Y-72500000D03*
G36*
G01*
X349310000Y-75404000D02*
X347610000Y-75404000D01*
G75*
G02*
X347356000Y-75150000I0J254000D01*
G01*
X347356000Y-71650000D01*
G75*
G02*
X347610000Y-71396000I254000J0D01*
G01*
X349310000Y-71396000D01*
G75*
G02*
X349564000Y-71650000I0J-254000D01*
G01*
X349564000Y-75150000D01*
G75*
G02*
X349310000Y-75404000I-254000J0D01*
G01*
G37*
D15*
X353425000Y-27630000D03*
X348575000Y-27630000D03*
D16*
X353725000Y-24600000D03*
X348275000Y-24600000D03*
G36*
G01*
X358786000Y-73580000D02*
X358786000Y-71880000D01*
G75*
G02*
X359040000Y-71626000I254000J0D01*
G01*
X362540000Y-71626000D01*
G75*
G02*
X362794000Y-71880000I0J-254000D01*
G01*
X362794000Y-73580000D01*
G75*
G02*
X362540000Y-73834000I-254000J0D01*
G01*
X359040000Y-73834000D01*
G75*
G02*
X358786000Y-73580000I0J254000D01*
G01*
G37*
G36*
G01*
X358786000Y-71040000D02*
X358786000Y-69340000D01*
G75*
G02*
X359040000Y-69086000I254000J0D01*
G01*
X362540000Y-69086000D01*
G75*
G02*
X362794000Y-69340000I0J-254000D01*
G01*
X362794000Y-71040000D01*
G75*
G02*
X362540000Y-71294000I-254000J0D01*
G01*
X359040000Y-71294000D01*
G75*
G02*
X358786000Y-71040000I0J254000D01*
G01*
G37*
G36*
G01*
X358786000Y-68500000D02*
X358786000Y-66800000D01*
G75*
G02*
X359040000Y-66546000I254000J0D01*
G01*
X362540000Y-66546000D01*
G75*
G02*
X362794000Y-66800000I0J-254000D01*
G01*
X362794000Y-68500000D01*
G75*
G02*
X362540000Y-68754000I-254000J0D01*
G01*
X359040000Y-68754000D01*
G75*
G02*
X358786000Y-68500000I0J254000D01*
G01*
G37*
G36*
G01*
X358786000Y-65960000D02*
X358786000Y-64260000D01*
G75*
G02*
X359040000Y-64006000I254000J0D01*
G01*
X362540000Y-64006000D01*
G75*
G02*
X362794000Y-64260000I0J-254000D01*
G01*
X362794000Y-65960000D01*
G75*
G02*
X362540000Y-66214000I-254000J0D01*
G01*
X359040000Y-66214000D01*
G75*
G02*
X358786000Y-65960000I0J254000D01*
G01*
G37*
G36*
G01*
X358786000Y-63420000D02*
X358786000Y-61720000D01*
G75*
G02*
X359040000Y-61466000I254000J0D01*
G01*
X362540000Y-61466000D01*
G75*
G02*
X362794000Y-61720000I0J-254000D01*
G01*
X362794000Y-63420000D01*
G75*
G02*
X362540000Y-63674000I-254000J0D01*
G01*
X359040000Y-63674000D01*
G75*
G02*
X358786000Y-63420000I0J254000D01*
G01*
G37*
G36*
G01*
X358786000Y-60880000D02*
X358786000Y-59180000D01*
G75*
G02*
X359040000Y-58926000I254000J0D01*
G01*
X362540000Y-58926000D01*
G75*
G02*
X362794000Y-59180000I0J-254000D01*
G01*
X362794000Y-60880000D01*
G75*
G02*
X362540000Y-61134000I-254000J0D01*
G01*
X359040000Y-61134000D01*
G75*
G02*
X358786000Y-60880000I0J254000D01*
G01*
G37*
G36*
G01*
X358786000Y-58340000D02*
X358786000Y-56640000D01*
G75*
G02*
X359040000Y-56386000I254000J0D01*
G01*
X362540000Y-56386000D01*
G75*
G02*
X362794000Y-56640000I0J-254000D01*
G01*
X362794000Y-58340000D01*
G75*
G02*
X362540000Y-58594000I-254000J0D01*
G01*
X359040000Y-58594000D01*
G75*
G02*
X358786000Y-58340000I0J254000D01*
G01*
G37*
G36*
G01*
X358786000Y-55800000D02*
X358786000Y-54100000D01*
G75*
G02*
X359040000Y-53846000I254000J0D01*
G01*
X362540000Y-53846000D01*
G75*
G02*
X362794000Y-54100000I0J-254000D01*
G01*
X362794000Y-55800000D01*
G75*
G02*
X362540000Y-56054000I-254000J0D01*
G01*
X359040000Y-56054000D01*
G75*
G02*
X358786000Y-55800000I0J254000D01*
G01*
G37*
G36*
G01*
X358786000Y-53260000D02*
X358786000Y-51560000D01*
G75*
G02*
X359040000Y-51306000I254000J0D01*
G01*
X362540000Y-51306000D01*
G75*
G02*
X362794000Y-51560000I0J-254000D01*
G01*
X362794000Y-53260000D01*
G75*
G02*
X362540000Y-53514000I-254000J0D01*
G01*
X359040000Y-53514000D01*
G75*
G02*
X358786000Y-53260000I0J254000D01*
G01*
G37*
G36*
G01*
X358786000Y-50720000D02*
X358786000Y-49020000D01*
G75*
G02*
X359040000Y-48766000I254000J0D01*
G01*
X362540000Y-48766000D01*
G75*
G02*
X362794000Y-49020000I0J-254000D01*
G01*
X362794000Y-50720000D01*
G75*
G02*
X362540000Y-50974000I-254000J0D01*
G01*
X359040000Y-50974000D01*
G75*
G02*
X358786000Y-50720000I0J254000D01*
G01*
G37*
G36*
G01*
X358786000Y-48180000D02*
X358786000Y-46480000D01*
G75*
G02*
X359040000Y-46226000I254000J0D01*
G01*
X362540000Y-46226000D01*
G75*
G02*
X362794000Y-46480000I0J-254000D01*
G01*
X362794000Y-48180000D01*
G75*
G02*
X362540000Y-48434000I-254000J0D01*
G01*
X359040000Y-48434000D01*
G75*
G02*
X358786000Y-48180000I0J254000D01*
G01*
G37*
G36*
G01*
X358786000Y-45640000D02*
X358786000Y-43940000D01*
G75*
G02*
X359040000Y-43686000I254000J0D01*
G01*
X362540000Y-43686000D01*
G75*
G02*
X362794000Y-43940000I0J-254000D01*
G01*
X362794000Y-45640000D01*
G75*
G02*
X362540000Y-45894000I-254000J0D01*
G01*
X359040000Y-45894000D01*
G75*
G02*
X358786000Y-45640000I0J254000D01*
G01*
G37*
G36*
G01*
X358786000Y-43100000D02*
X358786000Y-41400000D01*
G75*
G02*
X359040000Y-41146000I254000J0D01*
G01*
X362540000Y-41146000D01*
G75*
G02*
X362794000Y-41400000I0J-254000D01*
G01*
X362794000Y-43100000D01*
G75*
G02*
X362540000Y-43354000I-254000J0D01*
G01*
X359040000Y-43354000D01*
G75*
G02*
X358786000Y-43100000I0J254000D01*
G01*
G37*
G36*
G01*
X358786000Y-40560000D02*
X358786000Y-38860000D01*
G75*
G02*
X359040000Y-38606000I254000J0D01*
G01*
X362540000Y-38606000D01*
G75*
G02*
X362794000Y-38860000I0J-254000D01*
G01*
X362794000Y-40560000D01*
G75*
G02*
X362540000Y-40814000I-254000J0D01*
G01*
X359040000Y-40814000D01*
G75*
G02*
X358786000Y-40560000I0J254000D01*
G01*
G37*
G36*
G01*
X358786000Y-38020000D02*
X358786000Y-36320000D01*
G75*
G02*
X359040000Y-36066000I254000J0D01*
G01*
X362540000Y-36066000D01*
G75*
G02*
X362794000Y-36320000I0J-254000D01*
G01*
X362794000Y-38020000D01*
G75*
G02*
X362540000Y-38274000I-254000J0D01*
G01*
X359040000Y-38274000D01*
G75*
G02*
X358786000Y-38020000I0J254000D01*
G01*
G37*
G36*
G01*
X358786000Y-35480000D02*
X358786000Y-33780000D01*
G75*
G02*
X359040000Y-33526000I254000J0D01*
G01*
X362540000Y-33526000D01*
G75*
G02*
X362794000Y-33780000I0J-254000D01*
G01*
X362794000Y-35480000D01*
G75*
G02*
X362540000Y-35734000I-254000J0D01*
G01*
X359040000Y-35734000D01*
G75*
G02*
X358786000Y-35480000I0J254000D01*
G01*
G37*
G36*
G01*
X358786000Y-32940000D02*
X358786000Y-31240000D01*
G75*
G02*
X359040000Y-30986000I254000J0D01*
G01*
X362540000Y-30986000D01*
G75*
G02*
X362794000Y-31240000I0J-254000D01*
G01*
X362794000Y-32940000D01*
G75*
G02*
X362540000Y-33194000I-254000J0D01*
G01*
X359040000Y-33194000D01*
G75*
G02*
X358786000Y-32940000I0J254000D01*
G01*
G37*
G36*
G01*
X358786000Y-30400000D02*
X358786000Y-28700000D01*
G75*
G02*
X359040000Y-28446000I254000J0D01*
G01*
X362540000Y-28446000D01*
G75*
G02*
X362794000Y-28700000I0J-254000D01*
G01*
X362794000Y-30400000D01*
G75*
G02*
X362540000Y-30654000I-254000J0D01*
G01*
X359040000Y-30654000D01*
G75*
G02*
X358786000Y-30400000I0J254000D01*
G01*
G37*
G36*
G01*
X358786000Y-27860000D02*
X358786000Y-26160000D01*
G75*
G02*
X359040000Y-25906000I254000J0D01*
G01*
X362540000Y-25906000D01*
G75*
G02*
X362794000Y-26160000I0J-254000D01*
G01*
X362794000Y-27860000D01*
G75*
G02*
X362540000Y-28114000I-254000J0D01*
G01*
X359040000Y-28114000D01*
G75*
G02*
X358786000Y-27860000I0J254000D01*
G01*
G37*
G36*
G01*
X358786000Y-25320000D02*
X358786000Y-23620000D01*
G75*
G02*
X359040000Y-23366000I254000J0D01*
G01*
X362540000Y-23366000D01*
G75*
G02*
X362794000Y-23620000I0J-254000D01*
G01*
X362794000Y-25320000D01*
G75*
G02*
X362540000Y-25574000I-254000J0D01*
G01*
X359040000Y-25574000D01*
G75*
G02*
X358786000Y-25320000I0J254000D01*
G01*
G37*
G36*
G01*
X339206000Y-73580000D02*
X339206000Y-71880000D01*
G75*
G02*
X339460000Y-71626000I254000J0D01*
G01*
X342960000Y-71626000D01*
G75*
G02*
X343214000Y-71880000I0J-254000D01*
G01*
X343214000Y-73580000D01*
G75*
G02*
X342960000Y-73834000I-254000J0D01*
G01*
X339460000Y-73834000D01*
G75*
G02*
X339206000Y-73580000I0J254000D01*
G01*
G37*
G36*
G01*
X339206000Y-71040000D02*
X339206000Y-69340000D01*
G75*
G02*
X339460000Y-69086000I254000J0D01*
G01*
X342960000Y-69086000D01*
G75*
G02*
X343214000Y-69340000I0J-254000D01*
G01*
X343214000Y-71040000D01*
G75*
G02*
X342960000Y-71294000I-254000J0D01*
G01*
X339460000Y-71294000D01*
G75*
G02*
X339206000Y-71040000I0J254000D01*
G01*
G37*
G36*
G01*
X339206000Y-68500000D02*
X339206000Y-66800000D01*
G75*
G02*
X339460000Y-66546000I254000J0D01*
G01*
X342960000Y-66546000D01*
G75*
G02*
X343214000Y-66800000I0J-254000D01*
G01*
X343214000Y-68500000D01*
G75*
G02*
X342960000Y-68754000I-254000J0D01*
G01*
X339460000Y-68754000D01*
G75*
G02*
X339206000Y-68500000I0J254000D01*
G01*
G37*
G36*
G01*
X339206000Y-65960000D02*
X339206000Y-64260000D01*
G75*
G02*
X339460000Y-64006000I254000J0D01*
G01*
X342960000Y-64006000D01*
G75*
G02*
X343214000Y-64260000I0J-254000D01*
G01*
X343214000Y-65960000D01*
G75*
G02*
X342960000Y-66214000I-254000J0D01*
G01*
X339460000Y-66214000D01*
G75*
G02*
X339206000Y-65960000I0J254000D01*
G01*
G37*
G36*
G01*
X339206000Y-63420000D02*
X339206000Y-61720000D01*
G75*
G02*
X339460000Y-61466000I254000J0D01*
G01*
X342960000Y-61466000D01*
G75*
G02*
X343214000Y-61720000I0J-254000D01*
G01*
X343214000Y-63420000D01*
G75*
G02*
X342960000Y-63674000I-254000J0D01*
G01*
X339460000Y-63674000D01*
G75*
G02*
X339206000Y-63420000I0J254000D01*
G01*
G37*
G36*
G01*
X339206000Y-60880000D02*
X339206000Y-59180000D01*
G75*
G02*
X339460000Y-58926000I254000J0D01*
G01*
X342960000Y-58926000D01*
G75*
G02*
X343214000Y-59180000I0J-254000D01*
G01*
X343214000Y-60880000D01*
G75*
G02*
X342960000Y-61134000I-254000J0D01*
G01*
X339460000Y-61134000D01*
G75*
G02*
X339206000Y-60880000I0J254000D01*
G01*
G37*
G36*
G01*
X339206000Y-58340000D02*
X339206000Y-56640000D01*
G75*
G02*
X339460000Y-56386000I254000J0D01*
G01*
X342960000Y-56386000D01*
G75*
G02*
X343214000Y-56640000I0J-254000D01*
G01*
X343214000Y-58340000D01*
G75*
G02*
X342960000Y-58594000I-254000J0D01*
G01*
X339460000Y-58594000D01*
G75*
G02*
X339206000Y-58340000I0J254000D01*
G01*
G37*
G36*
G01*
X339206000Y-55800000D02*
X339206000Y-54100000D01*
G75*
G02*
X339460000Y-53846000I254000J0D01*
G01*
X342960000Y-53846000D01*
G75*
G02*
X343214000Y-54100000I0J-254000D01*
G01*
X343214000Y-55800000D01*
G75*
G02*
X342960000Y-56054000I-254000J0D01*
G01*
X339460000Y-56054000D01*
G75*
G02*
X339206000Y-55800000I0J254000D01*
G01*
G37*
G36*
G01*
X339206000Y-53260000D02*
X339206000Y-51560000D01*
G75*
G02*
X339460000Y-51306000I254000J0D01*
G01*
X342960000Y-51306000D01*
G75*
G02*
X343214000Y-51560000I0J-254000D01*
G01*
X343214000Y-53260000D01*
G75*
G02*
X342960000Y-53514000I-254000J0D01*
G01*
X339460000Y-53514000D01*
G75*
G02*
X339206000Y-53260000I0J254000D01*
G01*
G37*
G36*
G01*
X339206000Y-50720000D02*
X339206000Y-49020000D01*
G75*
G02*
X339460000Y-48766000I254000J0D01*
G01*
X342960000Y-48766000D01*
G75*
G02*
X343214000Y-49020000I0J-254000D01*
G01*
X343214000Y-50720000D01*
G75*
G02*
X342960000Y-50974000I-254000J0D01*
G01*
X339460000Y-50974000D01*
G75*
G02*
X339206000Y-50720000I0J254000D01*
G01*
G37*
G36*
G01*
X339206000Y-48180000D02*
X339206000Y-46480000D01*
G75*
G02*
X339460000Y-46226000I254000J0D01*
G01*
X342960000Y-46226000D01*
G75*
G02*
X343214000Y-46480000I0J-254000D01*
G01*
X343214000Y-48180000D01*
G75*
G02*
X342960000Y-48434000I-254000J0D01*
G01*
X339460000Y-48434000D01*
G75*
G02*
X339206000Y-48180000I0J254000D01*
G01*
G37*
G36*
G01*
X339206000Y-45640000D02*
X339206000Y-43940000D01*
G75*
G02*
X339460000Y-43686000I254000J0D01*
G01*
X342960000Y-43686000D01*
G75*
G02*
X343214000Y-43940000I0J-254000D01*
G01*
X343214000Y-45640000D01*
G75*
G02*
X342960000Y-45894000I-254000J0D01*
G01*
X339460000Y-45894000D01*
G75*
G02*
X339206000Y-45640000I0J254000D01*
G01*
G37*
G36*
G01*
X339206000Y-43100000D02*
X339206000Y-41400000D01*
G75*
G02*
X339460000Y-41146000I254000J0D01*
G01*
X342960000Y-41146000D01*
G75*
G02*
X343214000Y-41400000I0J-254000D01*
G01*
X343214000Y-43100000D01*
G75*
G02*
X342960000Y-43354000I-254000J0D01*
G01*
X339460000Y-43354000D01*
G75*
G02*
X339206000Y-43100000I0J254000D01*
G01*
G37*
G36*
G01*
X339206000Y-40560000D02*
X339206000Y-38860000D01*
G75*
G02*
X339460000Y-38606000I254000J0D01*
G01*
X342960000Y-38606000D01*
G75*
G02*
X343214000Y-38860000I0J-254000D01*
G01*
X343214000Y-40560000D01*
G75*
G02*
X342960000Y-40814000I-254000J0D01*
G01*
X339460000Y-40814000D01*
G75*
G02*
X339206000Y-40560000I0J254000D01*
G01*
G37*
G36*
G01*
X339206000Y-38020000D02*
X339206000Y-36320000D01*
G75*
G02*
X339460000Y-36066000I254000J0D01*
G01*
X342960000Y-36066000D01*
G75*
G02*
X343214000Y-36320000I0J-254000D01*
G01*
X343214000Y-38020000D01*
G75*
G02*
X342960000Y-38274000I-254000J0D01*
G01*
X339460000Y-38274000D01*
G75*
G02*
X339206000Y-38020000I0J254000D01*
G01*
G37*
G36*
G01*
X339206000Y-35480000D02*
X339206000Y-33780000D01*
G75*
G02*
X339460000Y-33526000I254000J0D01*
G01*
X342960000Y-33526000D01*
G75*
G02*
X343214000Y-33780000I0J-254000D01*
G01*
X343214000Y-35480000D01*
G75*
G02*
X342960000Y-35734000I-254000J0D01*
G01*
X339460000Y-35734000D01*
G75*
G02*
X339206000Y-35480000I0J254000D01*
G01*
G37*
G36*
G01*
X339206000Y-32940000D02*
X339206000Y-31240000D01*
G75*
G02*
X339460000Y-30986000I254000J0D01*
G01*
X342960000Y-30986000D01*
G75*
G02*
X343214000Y-31240000I0J-254000D01*
G01*
X343214000Y-32940000D01*
G75*
G02*
X342960000Y-33194000I-254000J0D01*
G01*
X339460000Y-33194000D01*
G75*
G02*
X339206000Y-32940000I0J254000D01*
G01*
G37*
G36*
G01*
X339206000Y-30400000D02*
X339206000Y-28700000D01*
G75*
G02*
X339460000Y-28446000I254000J0D01*
G01*
X342960000Y-28446000D01*
G75*
G02*
X343214000Y-28700000I0J-254000D01*
G01*
X343214000Y-30400000D01*
G75*
G02*
X342960000Y-30654000I-254000J0D01*
G01*
X339460000Y-30654000D01*
G75*
G02*
X339206000Y-30400000I0J254000D01*
G01*
G37*
G36*
G01*
X339206000Y-27860000D02*
X339206000Y-26160000D01*
G75*
G02*
X339460000Y-25906000I254000J0D01*
G01*
X342960000Y-25906000D01*
G75*
G02*
X343214000Y-26160000I0J-254000D01*
G01*
X343214000Y-27860000D01*
G75*
G02*
X342960000Y-28114000I-254000J0D01*
G01*
X339460000Y-28114000D01*
G75*
G02*
X339206000Y-27860000I0J254000D01*
G01*
G37*
G36*
G01*
X339206000Y-25320000D02*
X339206000Y-23620000D01*
G75*
G02*
X339460000Y-23366000I254000J0D01*
G01*
X342960000Y-23366000D01*
G75*
G02*
X343214000Y-23620000I0J-254000D01*
G01*
X343214000Y-25320000D01*
G75*
G02*
X342960000Y-25574000I-254000J0D01*
G01*
X339460000Y-25574000D01*
G75*
G02*
X339206000Y-25320000I0J254000D01*
G01*
G37*
D14*
X359890000Y-24470000D03*
X359890000Y-27010000D03*
G36*
G01*
X358786000Y-30400000D02*
X358786000Y-28700000D01*
G75*
G02*
X359040000Y-28446000I254000J0D01*
G01*
X360740000Y-28446000D01*
G75*
G02*
X360994000Y-28700000I0J-254000D01*
G01*
X360994000Y-30400000D01*
G75*
G02*
X360740000Y-30654000I-254000J0D01*
G01*
X359040000Y-30654000D01*
G75*
G02*
X358786000Y-30400000I0J254000D01*
G01*
G37*
X359890000Y-32090000D03*
X359890000Y-34630000D03*
X359890000Y-37170000D03*
X359890000Y-39710000D03*
G36*
G01*
X358786000Y-43100000D02*
X358786000Y-41400000D01*
G75*
G02*
X359040000Y-41146000I254000J0D01*
G01*
X360740000Y-41146000D01*
G75*
G02*
X360994000Y-41400000I0J-254000D01*
G01*
X360994000Y-43100000D01*
G75*
G02*
X360740000Y-43354000I-254000J0D01*
G01*
X359040000Y-43354000D01*
G75*
G02*
X358786000Y-43100000I0J254000D01*
G01*
G37*
X359890000Y-44790000D03*
X359890000Y-47330000D03*
X359890000Y-49870000D03*
X359890000Y-52410000D03*
G36*
G01*
X358786000Y-55800000D02*
X358786000Y-54100000D01*
G75*
G02*
X359040000Y-53846000I254000J0D01*
G01*
X360740000Y-53846000D01*
G75*
G02*
X360994000Y-54100000I0J-254000D01*
G01*
X360994000Y-55800000D01*
G75*
G02*
X360740000Y-56054000I-254000J0D01*
G01*
X359040000Y-56054000D01*
G75*
G02*
X358786000Y-55800000I0J254000D01*
G01*
G37*
X359890000Y-57490000D03*
X359890000Y-60030000D03*
X359890000Y-62570000D03*
X359890000Y-65110000D03*
G36*
G01*
X358786000Y-68500000D02*
X358786000Y-66800000D01*
G75*
G02*
X359040000Y-66546000I254000J0D01*
G01*
X360740000Y-66546000D01*
G75*
G02*
X360994000Y-66800000I0J-254000D01*
G01*
X360994000Y-68500000D01*
G75*
G02*
X360740000Y-68754000I-254000J0D01*
G01*
X359040000Y-68754000D01*
G75*
G02*
X358786000Y-68500000I0J254000D01*
G01*
G37*
X359890000Y-70190000D03*
X359890000Y-72730000D03*
X342110000Y-72730000D03*
X342110000Y-70190000D03*
G36*
G01*
X341006000Y-68500000D02*
X341006000Y-66800000D01*
G75*
G02*
X341260000Y-66546000I254000J0D01*
G01*
X342960000Y-66546000D01*
G75*
G02*
X343214000Y-66800000I0J-254000D01*
G01*
X343214000Y-68500000D01*
G75*
G02*
X342960000Y-68754000I-254000J0D01*
G01*
X341260000Y-68754000D01*
G75*
G02*
X341006000Y-68500000I0J254000D01*
G01*
G37*
X342110000Y-65110000D03*
X342110000Y-62570000D03*
X342110000Y-60030000D03*
X342110000Y-57490000D03*
G36*
G01*
X341006000Y-55800000D02*
X341006000Y-54100000D01*
G75*
G02*
X341260000Y-53846000I254000J0D01*
G01*
X342960000Y-53846000D01*
G75*
G02*
X343214000Y-54100000I0J-254000D01*
G01*
X343214000Y-55800000D01*
G75*
G02*
X342960000Y-56054000I-254000J0D01*
G01*
X341260000Y-56054000D01*
G75*
G02*
X341006000Y-55800000I0J254000D01*
G01*
G37*
X342110000Y-52410000D03*
X342110000Y-49870000D03*
X342110000Y-47330000D03*
X342110000Y-44790000D03*
G36*
G01*
X341006000Y-43100000D02*
X341006000Y-41400000D01*
G75*
G02*
X341260000Y-41146000I254000J0D01*
G01*
X342960000Y-41146000D01*
G75*
G02*
X343214000Y-41400000I0J-254000D01*
G01*
X343214000Y-43100000D01*
G75*
G02*
X342960000Y-43354000I-254000J0D01*
G01*
X341260000Y-43354000D01*
G75*
G02*
X341006000Y-43100000I0J254000D01*
G01*
G37*
X342110000Y-39710000D03*
X342110000Y-37170000D03*
X342110000Y-34630000D03*
X342110000Y-32090000D03*
G36*
G01*
X341006000Y-30400000D02*
X341006000Y-28700000D01*
G75*
G02*
X341260000Y-28446000I254000J0D01*
G01*
X342960000Y-28446000D01*
G75*
G02*
X343214000Y-28700000I0J-254000D01*
G01*
X343214000Y-30400000D01*
G75*
G02*
X342960000Y-30654000I-254000J0D01*
G01*
X341260000Y-30654000D01*
G75*
G02*
X341006000Y-30400000I0J254000D01*
G01*
G37*
X342110000Y-27010000D03*
X342110000Y-24470000D03*
%TD*%
D17*
%TO.C,SW0:0*%
X376190000Y-113660000D03*
X382540000Y-111120000D03*
%TD*%
%TO.C,SW0:1*%
X395240000Y-113660000D03*
X401590000Y-111120000D03*
%TD*%
%TO.C,SW0:2*%
X414290000Y-113660000D03*
X420640000Y-111120000D03*
%TD*%
%TO.C,SW0:4*%
X442865000Y-113660000D03*
X449215000Y-111120000D03*
%TD*%
%TO.C,SW1:1*%
X385715000Y-94610000D03*
X392065000Y-92070000D03*
%TD*%
%TO.C,SW1:2*%
X414290000Y-94610000D03*
X420640000Y-92070000D03*
%TD*%
%TO.C,SW1:3*%
X433340000Y-94610000D03*
X439690000Y-92070000D03*
%TD*%
%TO.C,SW1:4*%
X452390000Y-94610000D03*
X458740000Y-92070000D03*
%TD*%
%TO.C,SW2:0*%
X376190000Y-75560000D03*
X382540000Y-73020000D03*
%TD*%
%TO.C,SW2:1*%
X395240000Y-75560000D03*
X401590000Y-73020000D03*
%TD*%
%TO.C,SW2:2*%
X414290000Y-75560000D03*
X420640000Y-73020000D03*
%TD*%
%TO.C,SW2:3*%
X433340000Y-75560000D03*
X439690000Y-73020000D03*
%TD*%
%TO.C,SW2:4*%
X452390000Y-75560000D03*
X458740000Y-73020000D03*
%TD*%
%TO.C,SW3:0*%
X376190000Y-56510000D03*
X382540000Y-53970000D03*
%TD*%
%TO.C,SW3:1*%
X395240000Y-56510000D03*
X401590000Y-53970000D03*
%TD*%
%TO.C,SW3:2*%
X414290000Y-56510000D03*
X420640000Y-53970000D03*
%TD*%
%TO.C,SW3:3*%
X433340000Y-56510000D03*
X439690000Y-53970000D03*
%TD*%
%TO.C,SW3:4*%
X452390000Y-56510000D03*
X458740000Y-53970000D03*
%TD*%
%TO.C,SW4:0*%
X376190000Y-37460000D03*
X382540000Y-34920000D03*
%TD*%
%TO.C,SW4:1*%
X395240000Y-37460000D03*
X401590000Y-34920000D03*
%TD*%
%TO.C,SW4:2*%
X414290000Y-37460000D03*
X420640000Y-34920000D03*
%TD*%
%TO.C,SW4:3*%
X433340000Y-37460000D03*
X439690000Y-34920000D03*
%TD*%
%TO.C,SW4:4*%
X452390000Y-37460000D03*
X458740000Y-34920000D03*
%TD*%
%TO.C,SW:WHEEL1*%
X495540128Y-77201974D03*
X492846051Y-83488154D03*
%TD*%
%TO.C,EN1*%
G36*
G01*
X489550000Y-124954000D02*
X487550000Y-124954000D01*
G75*
G02*
X487296000Y-124700000I0J254000D01*
G01*
X487296000Y-122700000D01*
G75*
G02*
X487550000Y-122446000I254000J0D01*
G01*
X489550000Y-122446000D01*
G75*
G02*
X489804000Y-122700000I0J-254000D01*
G01*
X489804000Y-124700000D01*
G75*
G02*
X489550000Y-124954000I-254000J0D01*
G01*
G37*
D18*
X491050000Y-123700000D03*
X493550000Y-123700000D03*
G36*
G01*
X486700001Y-117954000D02*
X484199999Y-117954000D01*
G75*
G02*
X483946000Y-117700001I0J253999D01*
G01*
X483946000Y-114699999D01*
G75*
G02*
X484199999Y-114446000I253999J0D01*
G01*
X486700001Y-114446000D01*
G75*
G02*
X486954000Y-114699999I0J-253999D01*
G01*
X486954000Y-117700001D01*
G75*
G02*
X486700001Y-117954000I-253999J0D01*
G01*
G37*
G36*
G01*
X497900001Y-117954000D02*
X495399999Y-117954000D01*
G75*
G02*
X495146000Y-117700001I0J253999D01*
G01*
X495146000Y-114699999D01*
G75*
G02*
X495399999Y-114446000I253999J0D01*
G01*
X497900001Y-114446000D01*
G75*
G02*
X498154000Y-114699999I0J-253999D01*
G01*
X498154000Y-117700001D01*
G75*
G02*
X497900001Y-117954000I-253999J0D01*
G01*
G37*
X488550000Y-109200000D03*
X493550000Y-109200000D03*
%TD*%
%TO.C,EN2*%
G36*
G01*
X345856181Y-89895395D02*
X347270395Y-88481181D01*
G75*
G02*
X347629605Y-88481181I179605J-179605D01*
G01*
X349043819Y-89895395D01*
G75*
G02*
X349043819Y-90254605I-179605J-179605D01*
G01*
X347629605Y-91668819D01*
G75*
G02*
X347270395Y-91668819I-179605J179605D01*
G01*
X345856181Y-90254605D01*
G75*
G02*
X345856181Y-89895395I179605J179605D01*
G01*
G37*
X345682233Y-91842767D03*
X343914466Y-93610534D03*
G36*
G01*
X352821183Y-92829889D02*
X354588951Y-91062121D01*
G75*
G02*
X354948159Y-91062121I179604J-179604D01*
G01*
X357069481Y-93183443D01*
G75*
G02*
X357069481Y-93542651I-179604J-179604D01*
G01*
X355301713Y-95310419D01*
G75*
G02*
X354942505Y-95310419I-179604J179604D01*
G01*
X352821183Y-93189097D01*
G75*
G02*
X352821183Y-92829889I179604J179604D01*
G01*
G37*
G36*
G01*
X344901587Y-100749485D02*
X346669355Y-98981717D01*
G75*
G02*
X347028563Y-98981717I179604J-179604D01*
G01*
X349149885Y-101103039D01*
G75*
G02*
X349149885Y-101462247I-179604J-179604D01*
G01*
X347382117Y-103230015D01*
G75*
G02*
X347022909Y-103230015I-179604J179604D01*
G01*
X344901587Y-101108693D01*
G75*
G02*
X344901587Y-100749485I179604J179604D01*
G01*
G37*
X357703048Y-100328048D03*
X354167514Y-103863582D03*
%TD*%
M02*
