<?xml version="1.0" encoding="utf-8"?>
<!-- Generator: Adobe Illustrator 25.4.0, SVG Export Plug-In . SVG Version: 6.00 Build 0)  -->
<svg version="1.1" id="Layer_1" xmlns="http://www.w3.org/2000/svg" xmlns:xlink="http://www.w3.org/1999/xlink" x="0px" y="0px"
	 viewBox="0 0 200 200" style="enable-background:new 0 0 200 200;" xml:space="preserve">
<style type="text/css">
	.st0{clip-path:url(#SVGID_00000067950008450476681610000000740572832124811677_);}
	.st1{clip-path:url(#SVGID_00000067950008450476681610000000740572832124811677_);fill:#FFFFFF;}
</style>
<g>
	<defs>
		<rect id="SVGID_1_" x="4.76" y="4.6" width="190" height="190"/>
	</defs>
	<clipPath id="SVGID_00000121238122162440094650000014439044046090263210_">
		<use xlink:href="#SVGID_1_"  style="overflow:visible;"/>
	</clipPath>
	<path style="clip-path:url(#SVGID_00000121238122162440094650000014439044046090263210_);" d="M99.76,194.6c52.47,0,95-42.53,95-95
		c0-52.47-42.53-95-95-95s-95,42.53-95,95C4.76,152.07,47.29,194.6,99.76,194.6"/>
	<path style="clip-path:url(#SVGID_00000121238122162440094650000014439044046090263210_);fill:#FFFFFF;" d="M68.94,150.17H93.7
		l2.04-26.48h6.74l-0.47,26.48H110l1.41-14.42h1.1c0.47,10.66,5.64,15.51,13.16,15.51c11.13,0,13.79-9.56,13.79-23.35
		c0-12.07-5.02-22.72-9.72-31.34c-4.23-7.84-7.68-15.83-7.68-23.66c0-9.09,0.63-13.63,3.92-13.63c2.51,0,4.08,3.6,4.08,10.34
		c0,4.39-0.63,9.24-1.88,17.24h10.03c0.63-4.7,0.94-9.09,0.94-13.01c0-4.7-0.47-8.78-1.25-12.22l8.15-0.16l-3.13,88.7h10.81V61.32
		h11.75V49.41l-31.34,4.23c-2.04-2.51-4.54-3.76-7.84-3.76c-10.66,0-13.63,8.93-13.63,23.51c0,11.13,4.23,19.75,8.78,28.21
		c4.39,8.15,8.62,16.61,8.62,26.48c0,9.56-1.1,14.73-4.08,14.73c-2.51,0-4.08-2.51-4.08-7.99c0-7.05,1.88-12.54,4.86-18.81
		l-10.03-2.19c-1.57,3.29-2.98,6.27-4.07,10.97l-6.27-73.81H89.47l-4.7,90.58l-8.15,0.94l3.13-91.52H68.94V150.17z M39.95,150.17
		h9.25c11.13,0,16.77-6.58,16.77-26.8v-5.95c0-11.28-3.6-16.77-8.62-17.55v-0.63c5.02-0.94,7.68-9.72,7.68-21v-3.76
		c0-15.04-4.23-23.51-16.3-23.51h-8.78V150.17z M95.74,116.01l1.57-57.67h1.41l4.23,55.32L95.74,116.01z M49.35,96.11v-36.2h0.63
		c2.66,0,5.33,2.19,5.33,15.67v4.7c0,9.87-1.41,15.83-5.33,15.83H49.35z M49.35,141.24v-36.51h0.78c4.23,0,6.11,3.45,6.11,13.01
		v4.08c0,14.73-2.19,19.43-6.11,19.43H49.35z"/>
</g>
</svg>
