  0
SECTION
  2
HEADER
  9
$ACADVER
  1
AC1009
  9
$FILLMODE
 70
 0
  9
$SPLFRAME
 70
 1
  9
$EXTMIN
 10
0
 20
0
 30
0.0
  9
$EXTMAX
 10
41.6667
 20
41.6667
 30
0.0
  0
ENDSEC
  0
SECTION
  2
TABLES
  0
TABLE
  2
LAYER
 70
1
  0
LAYER
  2
0
 70
     0
 62
     7
  6
CONTINUOUS
  0
ENDTAB
  0
ENDSEC
  0
SECTION
  2
ENTITIES
  0
POLYLINE
  8
0
 62
     7
 66
     1
 10
0
 20
0
 30
0.0
 70
     1
 40
0
 41
0
  0
VERTEX
  8
0
 10
1.38552
 20
0.074924
 30
0.0
 40
0
 41
0
  0
VERTEX
  8
0
 10
1.45199
 20
0.074924
 30
0.0
 40
0
 41
0
  0
VERTEX
  8
0
 10
1.65142
 20
0.10178
 30
0.0
 40
0
 41
0
  0
VERTEX
  8
0
 10
1.89908
 20
0.178657
 30
0.0
 40
0
 41
0
  0
VERTEX
  8
0
 10
2.12321
 20
0.300293
 30
0.0
 40
0
 41
0
  0
VERTEX
  8
0
 10
2.31853
 20
0.461426
 30
0.0
 40
0
 41
0
  0
VERTEX
  8
0
 10
2.4796
 20
0.656685
 30
0.0
 40
0
 41
0
  0
VERTEX
  8
0
 10
2.60124
 20
0.88086
 30
0.0
 40
0
 41
0
  0
VERTEX
  8
0
 10
2.67811
 20
1.12853
 30
0.0
 40
0
 41
0
  0
VERTEX
  8
0
 10
2.70497
 20
1.32796
 30
0.0
 40
0
 41
0
  0
VERTEX
  8
0
 10
2.70497
 20
1.39442
 30
0.0
 40
0
 41
0
  0
VERTEX
  8
0
 10
2.70497
 20
1.46094
 30
0.0
 40
0
 41
0
  0
VERTEX
  8
0
 10
2.67811
 20
1.66037
 30
0.0
 40
0
 41
0
  0
VERTEX
  8
0
 10
2.60124
 20
1.90804
 30
0.0
 40
0
 41
0
  0
VERTEX
  8
0
 10
2.4796
 20
2.13211
 30
0.0
 40
0
 41
0
  0
VERTEX
  8
0
 10
2.31853
 20
2.32742
 30
0.0
 40
0
 41
0
  0
VERTEX
  8
0
 10
2.12321
 20
2.4885
 30
0.0
 40
0
 41
0
  0
VERTEX
  8
0
 10
1.89908
 20
2.61014
 30
0.0
 40
0
 41
0
  0
VERTEX
  8
0
 10
1.65142
 20
2.68701
 30
0.0
 40
0
 41
0
  0
VERTEX
  8
0
 10
1.45199
 20
2.71382
 30
0.0
 40
0
 41
0
  0
VERTEX
  8
0
 10
1.38552
 20
2.71382
 30
0.0
 40
0
 41
0
  0
VERTEX
  8
0
 10
1.31901
 20
2.71382
 30
0.0
 40
0
 41
0
  0
VERTEX
  8
0
 10
1.11957
 20
2.68701
 30
0.0
 40
0
 41
0
  0
VERTEX
  8
0
 10
0.871907
 20
2.61014
 30
0.0
 40
0
 41
0
  0
VERTEX
  8
0
 10
0.647786
 20
2.4885
 30
0.0
 40
0
 41
0
  0
VERTEX
  8
0
 10
0.452528
 20
2.32742
 30
0.0
 40
0
 41
0
  0
VERTEX
  8
0
 10
0.291396
 20
2.13211
 30
0.0
 40
0
 41
0
  0
VERTEX
  8
0
 10
0.16976
 20
1.90804
 30
0.0
 40
0
 41
0
  0
VERTEX
  8
0
 10
0.0928819
 20
1.66037
 30
0.0
 40
0
 41
0
  0
VERTEX
  8
0
 10
0.0660807
 20
1.46094
 30
0.0
 40
0
 41
0
  0
VERTEX
  8
0
 10
0.0660807
 20
1.39442
 30
0.0
 40
0
 41
0
  0
VERTEX
  8
0
 10
0.0660807
 20
1.32796
 30
0.0
 40
0
 41
0
  0
VERTEX
  8
0
 10
0.0928819
 20
1.12853
 30
0.0
 40
0
 41
0
  0
VERTEX
  8
0
 10
0.16976
 20
0.88086
 30
0.0
 40
0
 41
0
  0
VERTEX
  8
0
 10
0.291396
 20
0.656685
 30
0.0
 40
0
 41
0
  0
VERTEX
  8
0
 10
0.452528
 20
0.461426
 30
0.0
 40
0
 41
0
  0
VERTEX
  8
0
 10
0.647786
 20
0.300293
 30
0.0
 40
0
 41
0
  0
VERTEX
  8
0
 10
0.871907
 20
0.178657
 30
0.0
 40
0
 41
0
  0
VERTEX
  8
0
 10
1.11957
 20
0.10178
 30
0.0
 40
0
 41
0
  0
VERTEX
  8
0
 10
1.31901
 20
0.074924
 30
0.0
 40
0
 41
0
  0
VERTEX
  8
0
 10
1.38552
 20
0.074924
 30
0.0
 40
0
 41
0
  0
SEQEND
 8
0
  0
POLYLINE
  8
0
 62
     7
 66
     1
 10
0
 20
0
 30
0.0
 70
     1
 40
0
 41
0
  0
VERTEX
  8
0
 10
0.685439
 20
0.816081
 30
0.0
 40
0
 41
0
  0
VERTEX
  8
0
 10
0.685439
 20
1.32319
 30
0.0
 40
0
 41
0
  0
VERTEX
  8
0
 10
0.696343
 20
1.32319
 30
0.0
 40
0
 41
0
  0
VERTEX
  8
0
 10
0.705838
 20
1.32319
 30
0.0
 40
0
 41
0
  0
VERTEX
  8
0
 10
0.734375
 20
1.31364
 30
0.0
 40
0
 41
0
  0
VERTEX
  8
0
 10
0.760796
 20
1.28272
 30
0.0
 40
0
 41
0
  0
VERTEX
  8
0
 10
0.77615
 20
1.22683
 30
0.0
 40
0
 41
0
  0
VERTEX
  8
0
 10
0.781196
 20
1.16368
 30
0.0
 40
0
 41
0
  0
VERTEX
  8
0
 10
0.781196
 20
1.14258
 30
0.0
 40
0
 41
0
  0
VERTEX
  8
0
 10
0.781196
 20
1.08594
 30
0.0
 40
0
 41
0
  0
VERTEX
  8
0
 10
0.781196
 20
1.05387
 30
0.0
 40
0
 41
0
  0
VERTEX
  8
0
 10
0.775553
 20
0.957519
 30
0.0
 40
0
 41
0
  0
VERTEX
  8
0
 10
0.759169
 20
0.874349
 30
0.0
 40
0
 41
0
  0
VERTEX
  8
0
 10
0.732531
 20
0.829536
 30
0.0
 40
0
 41
0
  0
VERTEX
  8
0
 10
0.70535
 20
0.816081
 30
0.0
 40
0
 41
0
  0
VERTEX
  8
0
 10
0.696343
 20
0.816081
 30
0.0
 40
0
 41
0
  0
VERTEX
  8
0
 10
0.685439
 20
0.816081
 30
0.0
 40
0
 41
0
  0
SEQEND
 8
0
  0
POLYLINE
  8
0
 62
     7
 66
     1
 10
0
 20
0
 30
0.0
 70
     1
 40
0
 41
0
  0
VERTEX
  8
0
 10
0.685439
 20
1.44293
 30
0.0
 40
0
 41
0
  0
VERTEX
  8
0
 10
0.685439
 20
1.94569
 30
0.0
 40
0
 41
0
  0
VERTEX
  8
0
 10
0.694174
 20
1.94569
 30
0.0
 40
0
 41
0
  0
VERTEX
  8
0
 10
0.697592
 20
1.94569
 30
0.0
 40
0
 41
0
  0
VERTEX
  8
0
 10
0.707954
 20
1.94407
 30
0.0
 40
0
 41
0
  0
VERTEX
  8
0
 10
0.7213
 20
1.93804
 30
0.0
 40
0
 41
0
  0
VERTEX
  8
0
 10
0.733832
 20
1.92622
 30
0.0
 40
0
 41
0
  0
VERTEX
  8
0
 10
0.745008
 20
1.90707
 30
0.0
 40
0
 41
0
  0
VERTEX
  8
0
 10
0.754503
 20
1.87918
 30
0.0
 40
0
 41
0
  0
VERTEX
  8
0
 10
0.761774
 20
1.84104
 30
0.0
 40
0
 41
0
  0
VERTEX
  8
0
 10
0.766493
 20
1.79112
 30
0.0
 40
0
 41
0
  0
VERTEX
  8
0
 10
0.768175
 20
1.74382
 30
0.0
 40
0
 41
0
  0
VERTEX
  8
0
 10
0.768175
 20
1.72803
 30
0.0
 40
0
 41
0
  0
VERTEX
  8
0
 10
0.768175
 20
1.66276
 30
0.0
 40
0
 41
0
  0
VERTEX
  8
0
 10
0.768175
 20
1.63976
 30
0.0
 40
0
 41
0
  0
VERTEX
  8
0
 10
0.764214
 20
1.57058
 30
0.0
 40
0
 41
0
  0
VERTEX
  8
0
 10
0.751574
 20
1.50146
 30
0.0
 40
0
 41
0
  0
VERTEX
  8
0
 10
0.728678
 20
1.45801
 30
0.0
 40
0
 41
0
  0
VERTEX
  8
0
 10
0.7028
 20
1.44293
 30
0.0
 40
0
 41
0
  0
VERTEX
  8
0
 10
0.694174
 20
1.44293
 30
0.0
 40
0
 41
0
  0
VERTEX
  8
0
 10
0.685439
 20
1.44293
 30
0.0
 40
0
 41
0
  0
SEQEND
 8
0
  0
POLYLINE
  8
0
 62
     7
 66
     1
 10
0
 20
0
 30
0.0
 70
     1
 40
0
 41
0
  0
VERTEX
  8
0
 10
1.3297
 20
1.1665
 30
0.0
 40
0
 41
0
  0
VERTEX
  8
0
 10
1.35145
 20
1.96744
 30
0.0
 40
0
 41
0
  0
VERTEX
  8
0
 10
1.37109
 20
1.96744
 30
0.0
 40
0
 41
0
  0
VERTEX
  8
0
 10
1.42985
 20
1.19916
 30
0.0
 40
0
 41
0
  0
VERTEX
  8
0
 10
1.3297
 20
1.1665
 30
0.0
 40
0
 41
0
  0
SEQEND
 8
0
  0
POLYLINE
  8
0
 62
     7
 66
     1
 10
0
 20
0
 30
0.0
 70
     1
 40
0
 41
0
  0
VERTEX
  8
0
 10
0.55485
 20
0.692057
 30
0.0
 40
0
 41
0
  0
VERTEX
  8
0
 10
0.683268
 20
0.692057
 30
0.0
 40
0
 41
0
  0
VERTEX
  8
0
 10
0.708658
 20
0.692057
 30
0.0
 40
0
 41
0
  0
VERTEX
  8
0
 10
0.784831
 20
0.710721
 30
0.0
 40
0
 41
0
  0
VERTEX
  8
0
 10
0.857639
 20
0.77284
 30
0.0
 40
0
 41
0
  0
VERTEX
  8
0
 10
0.901476
 20
0.887642
 30
0.0
 40
0
 41
0
  0
VERTEX
  8
0
 10
0.916178
 20
1.02013
 30
0.0
 40
0
 41
0
  0
VERTEX
  8
0
 10
0.916178
 20
1.06424
 30
0.0
 40
0
 41
0
  0
VERTEX
  8
0
 10
0.916178
 20
1.14692
 30
0.0
 40
0
 41
0
  0
VERTEX
  8
0
 10
0.916178
 20
1.17263
 30
0.0
 40
0
 41
0
  0
VERTEX
  8
0
 10
0.907226
 20
1.24962
 30
0.0
 40
0
 41
0
  0
VERTEX
  8
0
 10
0.882433
 20
1.32351
 30
0.0
 40
0
 41
0
  0
VERTEX
  8
0
 10
0.84451
 20
1.37006
 30
0.0
 40
0
 41
0
  0
VERTEX
  8
0
 10
0.808919
 20
1.38878
 30
0.0
 40
0
 41
0
  0
VERTEX
  8
0
 10
0.796442
 20
1.39068
 30
0.0
 40
0
 41
0
  0
VERTEX
  8
0
 10
0.796442
 20
1.39942
 30
0.0
 40
0
 41
0
  0
VERTEX
  8
0
 10
0.808811
 20
1.40175
 30
0.0
 40
0
 41
0
  0
VERTEX
  8
0
 10
0.842449
 20
1.42844
 30
0.0
 40
0
 41
0
  0
VERTEX
  8
0
 10
0.875868
 20
1.49137
 30
0.0
 40
0
 41
0
  0
VERTEX
  8
0
 10
0.896212
 20
1.58122
 30
0.0
 40
0
 41
0
  0
VERTEX
  8
0
 10
0.903103
 20
1.66357
 30
0.0
 40
0
 41
0
  0
VERTEX
  8
0
 10
0.903103
 20
1.69103
 30
0.0
 40
0
 41
0
  0
VERTEX
  8
0
 10
0.903103
 20
1.74328
 30
0.0
 40
0
 41
0
  0
VERTEX
  8
0
 10
0.903103
 20
1.7781
 30
0.0
 40
0
 41
0
  0
VERTEX
  8
0
 10
0.891276
 20
1.88243
 30
0.0
 40
0
 41
0
  0
VERTEX
  8
0
 10
0.852756
 20
1.98492
 30
0.0
 40
0
 41
0
  0
VERTEX
  8
0
 10
0.782824
 20
2.04818
 30
0.0
 40
0
 41
0
  0
VERTEX
  8
0
 10
0.703233
 20
2.06976
 30
0.0
 40
0
 41
0
  0
VERTEX
  8
0
 10
0.676758
 20
2.06976
 30
0.0
 40
0
 41
0
  0
VERTEX
  8
0
 10
0.55485
 20
2.06976
 30
0.0
 40
0
 41
0
  0
VERTEX
  8
0
 10
0.55485
 20
0.692057
 30
0.0
 40
0
 41
0
  0
SEQEND
 8
0
  0
POLYLINE
  8
0
 62
     7
 66
     1
 10
0
 20
0
 30
0.0
 70
     1
 40
0
 41
0
  0
VERTEX
  8
0
 10
0.957519
 20
0.692057
 30
0.0
 40
0
 41
0
  0
VERTEX
  8
0
 10
1.30143
 20
0.692057
 30
0.0
 40
0
 41
0
  0
VERTEX
  8
0
 10
1.3297
 20
1.05984
 30
0.0
 40
0
 41
0
  0
VERTEX
  8
0
 10
1.42329
 20
1.05984
 30
0.0
 40
0
 41
0
  0
VERTEX
  8
0
 10
1.41678
 20
0.692057
 30
0.0
 40
0
 41
0
  0
VERTEX
  8
0
 10
1.52778
 20
0.692057
 30
0.0
 40
0
 41
0
  0
VERTEX
  8
0
 10
1.54736
 20
0.892253
 30
0.0
 40
0
 41
0
  0
VERTEX
  8
0
 10
1.56261
 20
0.892253
 30
0.0
 40
0
 41
0
  0
VERTEX
  8
0
 10
1.56364
 20
0.86811
 30
0.0
 40
0
 41
0
  0
VERTEX
  8
0
 10
1.57921
 20
0.796169
 30
0.0
 40
0
 41
0
  0
VERTEX
  8
0
 10
1.61724
 20
0.729004
 30
0.0
 40
0
 41
0
  0
VERTEX
  8
0
 10
1.67367
 20
0.689615
 30
0.0
 40
0
 41
0
  0
VERTEX
  8
0
 10
1.72749
 20
0.676758
 30
0.0
 40
0
 41
0
  0
VERTEX
  8
0
 10
1.74544
 20
0.676758
 30
0.0
 40
0
 41
0
  0
VERTEX
  8
0
 10
1.76921
 20
0.676758
 30
0.0
 40
0
 41
0
  0
VERTEX
  8
0
 10
1.84056
 20
0.700521
 30
0.0
 40
0
 41
0
  0
VERTEX
  8
0
 10
1.89914
 20
0.767144
 30
0.0
 40
0
 41
0
  0
VERTEX
  8
0
 10
1.92871
 20
0.869629
 30
0.0
 40
0
 41
0
  0
VERTEX
  8
0
 10
1.93696
 20
0.968261
 30
0.0
 40
0
 41
0
  0
VERTEX
  8
0
 10
1.93696
 20
1.00108
 30
0.0
 40
0
 41
0
  0
VERTEX
  8
0
 10
1.93696
 20
1.03157
 30
0.0
 40
0
 41
0
  0
VERTEX
  8
0
 10
1.92503
 20
1.12299
 30
0.0
 40
0
 41
0
  0
VERTEX
  8
0
 10
1.89393
 20
1.23671
 30
0.0
 40
0
 41
0
  0
VERTEX
  8
0
 10
1.85058
 20
1.34147
 30
0.0
 40
0
 41
0
  0
VERTEX
  8
0
 10
1.81472
 20
1.41297
 30
0.0
 40
0
 41
0
  0
VERTEX
  8
0
 10
1.80197
 20
1.43636
 30
0.0
 40
0
 41
0
  0
VERTEX
  8
0
 10
1.78728
 20
1.4636
 30
0.0
 40
0
 41
0
  0
VERTEX
  8
0
 10
1.72661
 20
1.60069
 30
0.0
 40
0
 41
0
  0
VERTEX
  8
0
 10
1.69536
 20
1.72396
 30
0.0
 40
0
 41
0
  0
VERTEX
  8
0
 10
1.69536
 20
1.76503
 30
0.0
 40
0
 41
0
  0
VERTEX
  8
0
 10
1.69536
 20
1.78575
 30
0.0
 40
0
 41
0
  0
VERTEX
  8
0
 10
1.69743
 20
1.84793
 30
0.0
 40
0
 41
0
  0
VERTEX
  8
0
 10
1.7054
 20
1.90713
 30
0.0
 40
0
 41
0
  0
VERTEX
  8
0
 10
1.72194
 20
1.9426
 30
0.0
 40
0
 41
0
  0
VERTEX
  8
0
 10
1.74278
 20
1.95443
 30
0.0
 40
0
 41
0
  0
VERTEX
  8
0
 10
1.74978
 20
1.95443
 30
0.0
 40
0
 41
0
  0
VERTEX
  8
0
 10
1.75564
 20
1.95443
 30
0.0
 40
0
 41
0
  0
VERTEX
  8
0
 10
1.77328
 20
1.94515
 30
0.0
 40
0
 41
0
  0
VERTEX
  8
0
 10
1.79112
 20
1.91769
 30
0.0
 40
0
 41
0
  0
VERTEX
  8
0
 10
1.8024
 20
1.87272
 30
0.0
 40
0
 41
0
  0
VERTEX
  8
0
 10
1.80638
 20
1.82628
 30
0.0
 40
0
 41
0
  0
VERTEX
  8
0
 10
1.80638
 20
1.81076
 30
0.0
 40
0
 41
0
  0
VERTEX
  8
0
 10
1.80638
 20
1.78554
 30
0.0
 40
0
 41
0
  0
VERTEX
  8
0
 10
1.79981
 20
1.70985
 30
0.0
 40
0
 41
0
  0
VERTEX
  8
0
 10
1.78461
 20
1.59913
 30
0.0
 40
0
 41
0
  0
VERTEX
  8
0
 10
1.78028
 20
1.57135
 30
0.0
 40
0
 41
0
  0
VERTEX
  8
0
 10
1.91954
 20
1.57135
 30
0.0
 40
0
 41
0
  0
VERTEX
  8
0
 10
1.92171
 20
1.58768
 30
0.0
 40
0
 41
0
  0
VERTEX
  8
0
 10
1.92931
 20
1.66581
 30
0.0
 40
0
 41
0
  0
VERTEX
  8
0
 10
1.93261
 20
1.73042
 30
0.0
 40
0
 41
0
  0
VERTEX
  8
0
 10
1.93261
 20
1.75196
 30
0.0
 40
0
 41
0
  0
VERTEX
  8
0
 10
1.93261
 20
1.77485
 30
0.0
 40
0
 41
0
  0
VERTEX
  8
0
 10
1.92796
 20
1.84343
 30
0.0
 40
0
 41
0
  0
VERTEX
  8
0
 10
1.91792
 20
1.90983
 30
0.0
 40
0
 41
0
  0
VERTEX
  8
0
 10
1.91521
 20
1.92176
 30
0.0
 40
0
 41
0
  0
VERTEX
  8
0
 10
2.02838
 20
1.92393
 30
0.0
 40
0
 41
0
  0
VERTEX
  8
0
 10
1.98486
 20
0.692057
 30
0.0
 40
0
 41
0
  0
VERTEX
  8
0
 10
2.13504
 20
0.692057
 30
0.0
 40
0
 41
0
  0
VERTEX
  8
0
 10
2.13504
 20
1.92611
 30
0.0
 40
0
 41
0
  0
VERTEX
  8
0
 10
2.29824
 20
1.92611
 30
0.0
 40
0
 41
0
  0
VERTEX
  8
0
 10
2.29824
 20
2.09153
 30
0.0
 40
0
 41
0
  0
VERTEX
  8
0
 10
1.86296
 20
2.03276
 30
0.0
 40
0
 41
0
  0
VERTEX
  8
0
 10
1.85585
 20
2.0415
 30
0.0
 40
0
 41
0
  0
VERTEX
  8
0
 10
1.81506
 20
2.072
 30
0.0
 40
0
 41
0
  0
VERTEX
  8
0
 10
1.76932
 20
2.08501
 30
0.0
 40
0
 41
0
  0
VERTEX
  8
0
 10
1.75412
 20
2.08501
 30
0.0
 40
0
 41
0
  0
VERTEX
  8
0
 10
1.73107
 20
2.08501
 30
0.0
 40
0
 41
0
  0
VERTEX
  8
0
 10
1.66206
 20
2.0625
 30
0.0
 40
0
 41
0
  0
VERTEX
  8
0
 10
1.60394
 20
1.99772
 30
0.0
 40
0
 41
0
  0
VERTEX
  8
0
 10
1.57351
 20
1.89497
 30
0.0
 40
0
 41
0
  0
VERTEX
  8
0
 10
1.56478
 20
1.79264
 30
0.0
 40
0
 41
0
  0
VERTEX
  8
0
 10
1.56478
 20
1.75851
 30
0.0
 40
0
 41
0
  0
VERTEX
  8
0
 10
1.56478
 20
1.73107
 30
0.0
 40
0
 41
0
  0
VERTEX
  8
0
 10
1.57493
 20
1.64865
 30
0.0
 40
0
 41
0
  0
VERTEX
  8
0
 10
1.60206
 20
1.54878
 30
0.0
 40
0
 41
0
  0
VERTEX
  8
0
 10
1.64094
 20
1.45583
 30
0.0
 40
0
 41
0
  0
VERTEX
  8
0
 10
1.67481
 20
1.38883
 30
0.0
 40
0
 41
0
  0
VERTEX
  8
0
 10
1.68668
 20
1.36675
 30
0.0
 40
0
 41
0
  0
VERTEX
  8
0
 10
1.69814
 20
1.34549
 30
0.0
 40
0
 41
0
  0
VERTEX
  8
0
 10
1.73107
 20
1.28087
 30
0.0
 40
0
 41
0
  0
VERTEX
  8
0
 10
1.76937
 20
1.19184
 30
0.0
 40
0
 41
0
  0
VERTEX
  8
0
 10
1.79622
 20
1.09836
 30
0.0
 40
0
 41
0
  0
VERTEX
  8
0
 10
1.80638
 20
1.02382
 30
0.0
 40
0
 41
0
  0
VERTEX
  8
0
 10
1.80638
 20
0.998915
 30
0.0
 40
0
 41
0
  0
VERTEX
  8
0
 10
1.80638
 20
0.976942
 30
0.0
 40
0
 41
0
  0
VERTEX
  8
0
 10
1.80333
 20
0.910969
 30
0.0
 40
0
 41
0
  0
VERTEX
  8
0
 10
1.79357
 20
0.846843
 30
0.0
 40
0
 41
0
  0
VERTEX
  8
0
 10
1.77604
 20
0.807671
 30
0.0
 40
0
 41
0
  0
VERTEX
  8
0
 10
1.75635
 20
0.794325
 30
0.0
 40
0
 41
0
  0
VERTEX
  8
0
 10
1.74978
 20
0.794325
 30
0.0
 40
0
 41
0
  0
VERTEX
  8
0
 10
1.74387
 20
0.794325
 30
0.0
 40
0
 41
0
  0
VERTEX
  8
0
 10
1.72624
 20
0.800999
 30
0.0
 40
0
 41
0
  0
VERTEX
  8
0
 10
1.70839
 20
0.821289
 30
0.0
 40
0
 41
0
  0
VERTEX
  8
0
 10
1.6971
 20
0.855849
 30
0.0
 40
0
 41
0
  0
VERTEX
  8
0
 10
1.69319
 20
0.892958
 30
0.0
 40
0
 41
0
  0
VERTEX
  8
0
 10
1.69319
 20
0.905328
 30
0.0
 40
0
 41
0
  0
VERTEX
  8
0
 10
1.69319
 20
0.939019
 30
0.0
 40
0
 41
0
  0
VERTEX
  8
0
 10
1.71138
 20
1.03998
 30
0.0
 40
0
 41
0
  0
VERTEX
  8
0
 10
1.75032
 20
1.14475
 30
0.0
 40
0
 41
0
  0
VERTEX
  8
0
 10
1.76069
 20
1.1665
 30
0.0
 40
0
 41
0
  0
VERTEX
  8
0
 10
1.62136
 20
1.19699
 30
0.0
 40
0
 41
0
  0
VERTEX
  8
0
 10
1.61589
 20
1.1856
 30
0.0
 40
0
 41
0
  0
VERTEX
  8
0
 10
1.5906
 20
1.12815
 30
0.0
 40
0
 41
0
  0
VERTEX
  8
0
 10
1.56858
 20
1.06098
 30
0.0
 40
0
 41
0
  0
VERTEX
  8
0
 10
1.56478
 20
1.04465
 30
0.0
 40
0
 41
0
  0
VERTEX
  8
0
 10
1.47771
 20
2.06976
 30
0.0
 40
0
 41
0
  0
VERTEX
  8
0
 10
1.24262
 20
2.06976
 30
0.0
 40
0
 41
0
  0
VERTEX
  8
0
 10
1.17735
 20
0.81174
 30
0.0
 40
0
 41
0
  0
VERTEX
  8
0
 10
1.06418
 20
0.798665
 30
0.0
 40
0
 41
0
  0
VERTEX
  8
0
 10
1.10769
 20
2.06976
 30
0.0
 40
0
 41
0
  0
VERTEX
  8
0
 10
0.957519
 20
2.06976
 30
0.0
 40
0
 41
0
  0
VERTEX
  8
0
 10
0.957519
 20
0.692057
 30
0.0
 40
0
 41
0
  0
SEQEND
 8
0
  0
ENDSEC
  0
EOF
